Amma.ufo
<glyph name="exclam" format="1">
  <advance width="247"/>
  <unicode hex="0021"/>
  <outline>
    <contour>
      <point x="166" y="191" type="line"/>
      <point x="182" y="708" type="line"/>
      <point x="62" y="708" type="line"/>
      <point x="78" y="191" type="line"/>
    </contour>
    <component base="period" xOffset="8"/>
  </outline>
</glyph>
<glyph name="numbersign" format="2">
	<advance width="654"/>
	<unicode hex="0023"/>
	<outline>
		<contour>
			<point x="356" y="675" type="line"/>
			<point x="269" y="675" type="line"/>
			<point x="73" y="0" type="line"/>
			<point x="161" y="0" type="line"/>
		</contour>
		<contour>
			<point x="574" y="675" type="line"/>
			<point x="487" y="675" type="line"/>
			<point x="292" y="0" type="line"/>
			<point x="380" y="0" type="line"/>
		</contour>
		<contour>
			<point x="634" y="503" type="line"/>
			<point x="87" y="503" type="line"/>
			<point x="87" y="430" type="line"/>
			<point x="634" y="430" type="line"/>
		</contour>
		<contour>
			<point x="566" y="262" type="line"/>
			<point x="20" y="262" type="line"/>
			<point x="20" y="189" type="line"/>
			<point x="566" y="190" type="line"/>
		</contour>
	</outline>
</glyph>
<glyph name="ampersand" format="2">
	<advance width="592"/>
	<unicode hex="0026"/>
	<outline>
		<contour>
			<point x="461" y="0" type="curve"/>
			<point x="565" y="0" type="line"/>
			<point x="416" y="154"/>
			<point x="226" y="392"/>
			<point x="226" y="504" type="curve" smooth="yes"/>
			<point x="226" y="558"/>
			<point x="260" y="585"/>
			<point x="300" y="585" type="curve" smooth="yes"/>
			<point x="345" y="585"/>
			<point x="374" y="555"/>
			<point x="374" y="510" type="curve" smooth="yes"/>
			<point x="374" y="465"/>
			<point x="326" y="400"/>
			<point x="223" y="388" type="curve"/>
			<point x="229" y="365" type="line"/>
			<point x="340" y="376"/>
			<point x="402" y="450"/>
			<point x="402" y="510" type="curve" smooth="yes"/>
			<point x="402" y="575"/>
			<point x="352" y="610"/>
			<point x="298" y="610" type="curve" smooth="yes"/>
			<point x="212" y="610"/>
			<point x="159" y="562"/>
			<point x="159" y="487" type="curve" smooth="yes"/>
			<point x="159" y="370"/>
			<point x="339" y="131"/>
		</contour>
		<contour>
			<point x="237" y="-10" type="curve" smooth="yes"/>
			<point x="448" y="-10"/>
			<point x="526" y="158"/>
			<point x="526" y="319" type="curve"/>
			<point x="498" y="326" type="line"/>
			<point x="498" y="141"/>
			<point x="403" y="20"/>
			<point x="269" y="20" type="curve" smooth="yes"/>
			<point x="160" y="20"/>
			<point x="120" y="105"/>
			<point x="120" y="202" type="curve" smooth="yes"/>
			<point x="120" y="277"/>
			<point x="157" y="332"/>
			<point x="210" y="346" type="curve"/>
			<point x="199" y="368" type="line"/>
			<point x="99" y="341"/>
			<point x="35" y="275"/>
			<point x="35" y="176" type="curve" smooth="yes"/>
			<point x="35" y="78"/>
			<point x="108" y="-10"/>
		</contour>
		<contour>
			<point x="473" y="0" type="line"/>
			<point x="602" y="0" type="line"/>
			<point x="602" y="22"/>
			<point x="595" y="26"/>
			<point x="577" y="26" type="curve" smooth="yes"/>
			<point x="563" y="26" type="line"/>
			<point x="460" y="26" type="line"/>
		</contour>
		<contour>
			<point x="528" y="319" type="line"/>
			<point x="559" y="320" type="line" smooth="yes"/>
			<point x="578" y="320"/>
			<point x="587" y="322"/>
			<point x="587" y="347" type="curve"/>
			<point x="443" y="347" type="line"/>
			<point x="443" y="321" type="line"/>
			<point x="504" y="321" type="line"/>
		</contour>
	</outline>
</glyph>
<glyph name="quotesingle" format="1">
  <advance width="166"/>
  <unicode hex="0027"/>
  <outline>
    <contour>
      <point x="118" y="500" type="line"/>
      <point x="134" y="736" type="line"/>
      <point x="32" y="736" type="line"/>
      <point x="48" y="500" type="line"/>
    </contour>
  </outline>
</glyph>
<glyph name="parenleft" format="2">
	<advance width="307"/>
	<unicode hex="0028"/>
	<outline>
		<contour>
			<point x="292" y="-139" type="line"/>
			<point x="214" y="-8"/>
			<point x="175" y="144"/>
			<point x="175" y="297" type="curve" smooth="yes"/>
			<point x="175" y="448"/>
			<point x="213" y="599"/>
			<point x="291" y="730" type="curve"/>
			<point x="210" y="771" type="line"/>
			<point x="120" y="624"/>
			<point x="76" y="458"/>
			<point x="76" y="293" type="curve" smooth="yes"/>
			<point x="76" y="128"/>
			<point x="120" y="-35"/>
			<point x="209" y="-182" type="curve"/>
		</contour>
	</outline>
</glyph>
<glyph name="asterisk" format="1">
  <advance width="363"/>
  <unicode hex="002A"/>
  <outline>
    <contour>
      <point x="165" y="599" type="line"/>
      <point x="197" y="599" type="line"/>
      <point x="215" y="673" type="line" smooth="yes"/>
      <point x="228" y="722"/>
      <point x="190" y="744"/>
      <point x="138" y="717" type="curve"/>
    </contour>
    <contour>
      <point x="150" y="565" type="line"/>
      <point x="159" y="594" type="line"/>
      <point x="94" y="635" type="line" smooth="yes"/>
      <point x="51" y="663"/>
      <point x="18" y="633"/>
      <point x="29" y="576" type="curve"/>
    </contour>
    <contour>
      <point x="176" y="539" type="line"/>
      <point x="152" y="558" type="line"/>
      <point x="92" y="508" type="line" smooth="yes"/>
      <point x="53" y="476"/>
      <point x="71" y="436"/>
      <point x="129" y="428" type="curve"/>
    </contour>
    <contour>
      <point x="209" y="556" type="line"/>
      <point x="185" y="538" type="line"/>
      <point x="214" y="466" type="line" smooth="yes"/>
      <point x="231" y="419"/>
      <point x="276" y="423"/>
      <point x="301" y="476" type="curve"/>
    </contour>
    <contour>
      <point x="202" y="593" type="line"/>
      <point x="211" y="564" type="line"/>
      <point x="289" y="569" type="line" smooth="yes"/>
      <point x="339" y="571"/>
      <point x="349" y="614"/>
      <point x="306" y="655" type="curve"/>
    </contour>
  </outline>
</glyph>
<glyph name="comma" format="1">
  <advance width="214"/>
  <unicode hex="002C"/>
  <outline>
    <contour>
      <point x="71" y="-150" type="line"/>
      <point x="132" y="-87"/>
      <point x="175" y="-6"/>
      <point x="175" y="54" type="curve" smooth="yes"/>
      <point x="175" y="109"/>
      <point x="139" y="136"/>
      <point x="102" y="136" type="curve" smooth="yes"/>
      <point x="67" y="136"/>
      <point x="31" y="110"/>
      <point x="31" y="59" type="curve" smooth="yes"/>
      <point x="31" y="30"/>
      <point x="48" y="2"/>
      <point x="82" y="-7" type="curve"/>
      <point x="77" y="-35"/>
      <point x="46" y="-96"/>
      <point x="29" y="-122" type="curve"/>
    </contour>
  </outline>
</glyph>
<glyph name="hyphen" format="1">
  <advance width="329"/>
  <unicode hex="002D"/>
  <outline>
    <contour>
      <point x="287" y="310" type="line"/>
      <point x="42" y="310" type="line"/>
      <point x="42" y="229" type="line"/>
      <point x="287" y="229" type="line"/>
    </contour>
  </outline>
</glyph>
<glyph name="period" format="2">
	<advance width="230"/>
	<unicode hex="002E"/>
	<outline>
		<contour>
			<point x="114" y="-12" type="curve" smooth="yes"/>
			<point x="149" y="-12"/>
			<point x="181" y="13"/>
			<point x="181" y="62" type="curve" smooth="yes"/>
			<point x="181" y="110"/>
			<point x="150" y="134"/>
			<point x="115" y="134" type="curve" smooth="yes"/>
			<point x="80" y="134"/>
			<point x="49" y="110"/>
			<point x="49" y="62" type="curve" smooth="yes"/>
			<point x="49" y="12"/>
			<point x="79" y="-12"/>
		</contour>
	</outline>
</glyph>
<glyph name="slash" format="1">
  <advance width="409"/>
  <unicode hex="002F"/>
  <outline>
    <contour>
      <point x="400" y="725" type="line"/>
      <point x="307" y="725" type="line"/>
      <point x="19" y="-70" type="line"/>
      <point x="114" y="-70" type="line"/>
    </contour>
  </outline>
</glyph>
<glyph name="zero" format="1">
  <advance width="574"/>
  <unicode hex="0030"/>
  <outline>
    <contour>
      <point x="424" y="269" type="curve" smooth="yes"/>
      <point x="424" y="145"/>
      <point x="367" y="76"/>
      <point x="287" y="76" type="curve" smooth="yes"/>
      <point x="203" y="76"/>
      <point x="149" y="145"/>
      <point x="149" y="271" type="curve" smooth="yes"/>
      <point x="149" y="389"/>
      <point x="197" y="463"/>
      <point x="289" y="464" type="curve" smooth="yes"/>
      <point x="378" y="465"/>
      <point x="424" y="389"/>
    </contour>
    <contour>
      <point x="532" y="272" type="curve" smooth="yes"/>
      <point x="532" y="446"/>
      <point x="448" y="553"/>
      <point x="291" y="553" type="curve" smooth="yes"/>
      <point x="134" y="553"/>
      <point x="42" y="441"/>
      <point x="42" y="269" type="curve" smooth="yes"/>
      <point x="42" y="98"/>
      <point x="128" y="-13"/>
      <point x="285" y="-13" type="curve" smooth="yes"/>
      <point x="439" y="-13"/>
      <point x="532" y="105"/>
    </contour>
  </outline>
</glyph>
<glyph name="one" format="1">
  <advance width="408"/>
  <unicode hex="0031"/>
  <outline>
    <contour>
      <point x="209" y="446" type="line"/>
      <point x="61" y="386" type="line"/>
      <point x="29" y="470" type="line"/>
      <point x="188" y="540" type="line"/>
      <point x="285" y="540" type="line"/>
      <point x="285" y="0" type="line"/>
      <point x="179" y="0" type="line"/>
      <point x="179" y="488" type="line"/>
    </contour>
    <contour>
      <point x="73" y="0" type="line"/>
      <point x="73" y="81" type="line"/>
      <point x="370" y="81" type="line"/>
      <point x="370" y="0" type="line"/>
    </contour>
  </outline>
</glyph>
<glyph name="two" format="1">
  <advance width="445"/>
  <unicode hex="0032"/>
  <outline>
    <contour>
      <point x="30" y="0" type="line"/>
      <point x="400" y="0" type="line"/>
      <point x="400" y="89" type="line"/>
      <point x="155" y="89" type="line"/>
      <point x="170" y="70" type="line"/>
      <point x="240" y="151" type="line" smooth="yes"/>
      <point x="301" y="222"/>
      <point x="388" y="301"/>
      <point x="388" y="386" type="curve" smooth="yes"/>
      <point x="388" y="492"/>
      <point x="299" y="553"/>
      <point x="204" y="553" type="curve" smooth="yes"/>
      <point x="136" y="553"/>
      <point x="65" y="522"/>
      <point x="23" y="452" type="curve"/>
      <point x="99" y="406" type="line"/>
      <point x="122" y="444"/>
      <point x="160" y="462"/>
      <point x="195" y="462" type="curve" smooth="yes"/>
      <point x="240" y="462"/>
      <point x="281" y="432"/>
      <point x="281" y="378" type="curve" smooth="yes"/>
      <point x="281" y="322"/>
      <point x="230" y="273"/>
      <point x="164" y="202" type="curve" smooth="yes"/>
      <point x="30" y="59" type="line"/>
    </contour>
  </outline>
</glyph>
<glyph name="five" format="2">
	<advance width="461"/>
	<unicode hex="0035"/>
	<outline>
		<contour>
			<point x="88" y="-131"/>
			<point x="148" y="-148"/>
			<point x="202" y="-148" type="curve" smooth="yes"/>
			<point x="359" y="-148"/>
			<point x="430" y="-30"/>
			<point x="430" y="86" type="curve" smooth="yes"/>
			<point x="430" y="191"/>
			<point x="360" y="296"/>
			<point x="213" y="297" type="curve" smooth="yes"/>
			<point x="202" y="297"/>
			<point x="188" y="296"/>
			<point x="178" y="295" type="curve"/>
			<point x="178" y="451" type="line"/>
			<point x="390" y="452" type="line"/>
			<point x="390" y="541" type="line"/>
			<point x="73" y="540" type="line"/>
			<point x="73" y="203" type="line"/>
			<point x="102" y="211"/>
			<point x="133" y="215"/>
			<point x="162" y="215" type="curve" smooth="yes"/>
			<point x="270" y="215"/>
			<point x="318" y="151"/>
			<point x="318" y="83" type="curve" smooth="yes"/>
			<point x="318" y="0"/>
			<point x="267" y="-55"/>
			<point x="190" y="-55" type="curve" smooth="yes"/>
			<point x="155" y="-55"/>
			<point x="116" y="-44"/>
			<point x="77" y="-19" type="curve"/>
			<point x="31" y="-96" type="line"/>
		</contour>
	</outline>
</glyph>
<glyph name="six" format="2">
	<advance width="512"/>
	<unicode hex="0036"/>
	<outline>
		<contour>
			<point x="257" y="-13" type="curve" smooth="yes"/>
			<point x="399" y="-13"/>
			<point x="473" y="104"/>
			<point x="473" y="224" type="curve" smooth="yes"/>
			<point x="473" y="361"/>
			<point x="378" y="442"/>
			<point x="283" y="442" type="curve" smooth="yes"/>
			<point x="220" y="442"/>
			<point x="155" y="404"/>
			<point x="120" y="322" type="curve"/>
			<point x="146" y="322" type="line"/>
			<point x="145" y="451"/>
			<point x="171" y="600"/>
			<point x="287" y="600" type="curve" smooth="yes"/>
			<point x="324" y="600"/>
			<point x="362" y="582"/>
			<point x="391" y="547" type="curve"/>
			<point x="460" y="601" type="line"/>
			<point x="418" y="657"/>
			<point x="353" y="688"/>
			<point x="288" y="688" type="curve" smooth="yes"/>
			<point x="115" y="688"/>
			<point x="40" y="508"/>
			<point x="40" y="311" type="curve" smooth="yes"/>
			<point x="40" y="112"/>
			<point x="111" y="-13"/>
		</contour>
		<contour>
			<point x="259" y="76" type="curve" smooth="yes"/>
			<point x="202" y="76"/>
			<point x="153" y="125"/>
			<point x="153" y="216" type="curve" smooth="yes"/>
			<point x="153" y="311"/>
			<point x="203" y="356"/>
			<point x="260" y="356" type="curve" smooth="yes"/>
			<point x="317" y="356"/>
			<point x="365" y="310"/>
			<point x="365" y="214" type="curve" smooth="yes"/>
			<point x="365" y="123"/>
			<point x="316" y="76"/>
		</contour>
	</outline>
</glyph>
<glyph name="seven" format="1">
  <advance width="423"/>
  <unicode hex="0037"/>
  <outline>
    <contour>
      <point x="193" y="-136" type="line"/>
      <point x="242" y="55"/>
      <point x="316" y="256"/>
      <point x="411" y="470" type="curve"/>
      <point x="411" y="541" type="line"/>
      <point x="14" y="541" type="line"/>
      <point x="14" y="440" type="line"/>
      <point x="308" y="440" type="line"/>
      <point x="305" y="477" type="line"/>
      <point x="213" y="267"/>
      <point x="134" y="66"/>
      <point x="82" y="-134" type="curve"/>
    </contour>
  </outline>
</glyph>
<glyph name="nine" format="2">
	<advance width="512"/>
	<unicode hex="0039"/>
	<outline>
		<contour>
			<point x="253" y="553" type="curve" smooth="yes"/>
			<point x="110" y="553"/>
			<point x="38" y="437"/>
			<point x="38" y="313" type="curve" smooth="yes"/>
			<point x="38" y="179"/>
			<point x="129" y="98"/>
			<point x="224" y="98" type="curve" smooth="yes"/>
			<point x="288" y="98"/>
			<point x="354" y="136"/>
			<point x="388" y="219" type="curve"/>
			<point x="363" y="217" type="line"/>
			<point x="364" y="84"/>
			<point x="342" y="-59"/>
			<point x="224" y="-59" type="curve" smooth="yes"/>
			<point x="186" y="-59"/>
			<point x="142" y="-40"/>
			<point x="112" y="-2" type="curve"/>
			<point x="48" y="-53" type="line"/>
			<point x="91" y="-115"/>
			<point x="160" y="-148"/>
			<point x="226" y="-148" type="curve" smooth="yes"/>
			<point x="396" y="-148"/>
			<point x="471" y="26"/>
			<point x="471" y="227" type="curve" smooth="yes"/>
			<point x="471" y="426"/>
			<point x="404" y="553"/>
		</contour>
		<contour>
			<point x="146" y="422"/>
			<point x="195" y="464"/>
			<point x="252" y="464" type="curve" smooth="yes"/>
			<point x="309" y="464"/>
			<point x="357" y="420"/>
			<point x="357" y="325" type="curve" smooth="yes"/>
			<point x="357" y="228"/>
			<point x="308" y="184"/>
			<point x="250" y="184" type="curve" smooth="yes"/>
			<point x="193" y="184"/>
			<point x="146" y="228"/>
			<point x="146" y="325" type="curve" smooth="yes"/>
		</contour>
	</outline>
</glyph>
<glyph name="semicolon" format="1">
  <advance width="231"/>
  <unicode hex="003B"/>
  <outline>
    <contour>
      <point x="84" y="-129" type="line"/>
      <point x="141" y="-68"/>
      <point x="178" y="3"/>
      <point x="178" y="61" type="curve" smooth="yes"/>
      <point x="178" y="104"/>
      <point x="154" y="135"/>
      <point x="111" y="135" type="curve" smooth="yes"/>
      <point x="71" y="135"/>
      <point x="45" y="102"/>
      <point x="45" y="66" type="curve" smooth="yes"/>
      <point x="45" y="39"/>
      <point x="60" y="11"/>
      <point x="92" y="3" type="curve"/>
      <point x="87" y="-22"/>
      <point x="59" y="-79"/>
      <point x="44" y="-104" type="curve"/>
    </contour>
    <component base="period" xOffset="-3" yOffset="265"/>
  </outline>
</glyph>
<glyph name="question" format="1">
  <advance width="467"/>
  <unicode hex="003F"/>
  <outline>
    <contour>
      <point x="95" y="176" type="curve"/>
      <point x="193" y="182" type="line"/>
      <point x="190" y="195"/>
      <point x="190" y="204"/>
      <point x="190" y="213" type="curve" smooth="yes"/>
      <point x="190" y="365"/>
      <point x="407" y="371"/>
      <point x="407" y="545" type="curve" smooth="yes"/>
      <point x="407" y="669"/>
      <point x="306" y="738"/>
      <point x="203" y="738" type="curve" smooth="yes"/>
      <point x="124" y="738"/>
      <point x="44" y="697"/>
      <point x="11" y="609" type="curve"/>
      <point x="102" y="576" type="line"/>
      <point x="119" y="627"/>
      <point x="159" y="649"/>
      <point x="199" y="649" type="curve" smooth="yes"/>
      <point x="251" y="649"/>
      <point x="302" y="609"/>
      <point x="302" y="541" type="curve" smooth="yes"/>
      <point x="302" y="410"/>
      <point x="91" y="420"/>
      <point x="91" y="214" type="curve" smooth="yes"/>
      <point x="91" y="204"/>
      <point x="93" y="191"/>
    </contour>
    <component base="period" xOffset="41"/>
  </outline>
</glyph>
<glyph name="bracketleft" format="1">
  <advance width="310"/>
  <unicode hex="005B"/>
  <outline>
    <contour>
      <point x="79" y="-182" type="line"/>
      <point x="284" y="-182" type="line"/>
      <point x="284" y="-87" type="line"/>
      <point x="177" y="-87" type="line"/>
      <point x="177" y="674" type="line"/>
      <point x="284" y="674" type="line"/>
      <point x="284" y="769" type="line"/>
      <point x="79" y="769" type="line"/>
    </contour>
  </outline>
</glyph>
<glyph name="backslash" format="2">
	<advance width="405"/>
	<unicode hex="005C"/>
	<outline>
		<contour>
			<point x="9" y="725" type="line"/>
			<point x="300" y="-70" type="line"/>
			<point x="396" y="-69" type="line"/>
			<point x="103" y="725" type="line"/>
		</contour>
	</outline>
</glyph>
<glyph name="underscore" format="2">
	<advance width="500"/>
	<unicode hex="005F"/>
	<outline>
		<contour>
			<point x="501" y="-121" type="line"/>
			<point x="-1" y="-121" type="line"/>
			<point x="-1" y="-201" type="line"/>
			<point x="501" y="-201" type="line"/>
		</contour>
	</outline>
</glyph>
<glyph name="braceleft" format="2">
	<advance width="332"/>
	<unicode hex="007B"/>
	<outline>
		<contour>
			<point x="242" y="-195" type="curve" smooth="yes"/>
			<point x="263" y="-195"/>
			<point x="286" y="-193"/>
			<point x="310" y="-188" type="curve"/>
			<point x="307" y="-108" type="line"/>
			<point x="299" y="-109"/>
			<point x="291" y="-109"/>
			<point x="282" y="-109" type="curve" smooth="yes"/>
			<point x="237" y="-109"/>
			<point x="221" y="-90"/>
			<point x="221" y="-46" type="curve" smooth="yes"/>
			<point x="221" y="185" type="line" smooth="yes"/>
			<point x="221" y="265"/>
			<point x="166" y="303"/>
			<point x="85" y="303" type="curve"/>
			<point x="85" y="288" type="line"/>
			<point x="166" y="288"/>
			<point x="221" y="325"/>
			<point x="221" y="408" type="curve" smooth="yes"/>
			<point x="221" y="633" type="line" smooth="yes"/>
			<point x="221" y="677"/>
			<point x="237" y="695"/>
			<point x="283" y="695" type="curve" smooth="yes"/>
			<point x="292" y="695"/>
			<point x="298" y="695"/>
			<point x="306" y="694" type="curve"/>
			<point x="310" y="774" type="line"/>
			<point x="286" y="779"/>
			<point x="263" y="782"/>
			<point x="242" y="782" type="curve" smooth="yes"/>
			<point x="165" y="782"/>
			<point x="124" y="746"/>
			<point x="124" y="656" type="curve" smooth="yes"/>
			<point x="124" y="416" type="line" smooth="yes"/>
			<point x="124" y="364"/>
			<point x="95" y="335"/>
			<point x="44" y="334" type="curve"/>
			<point x="44" y="258" type="line"/>
			<point x="96" y="256"/>
			<point x="125" y="227"/>
			<point x="125" y="176" type="curve" smooth="yes"/>
			<point x="125" y="-70" type="line" smooth="yes"/>
			<point x="125" y="-160"/>
			<point x="166" y="-195"/>
		</contour>
	</outline>
</glyph>
<glyph name="guillemotleft" format="1">
  <advance width="508"/>
  <unicode hex="00AB"/>
  <outline>
    <contour>
      <point x="144" y="265" type="line"/>
      <point x="248" y="413" type="line"/>
      <point x="176" y="465" type="line"/>
      <point x="34" y="264" type="line"/>
      <point x="173" y="62" type="line"/>
      <point x="246" y="115" type="line"/>
    </contour>
    <contour>
      <point x="346" y="265" type="line"/>
      <point x="458" y="413" type="line"/>
      <point x="386" y="465" type="line"/>
      <point x="236" y="264" type="line"/>
      <point x="383" y="62" type="line"/>
      <point x="456" y="115" type="line"/>
    </contour>
  </outline>
</glyph>
<glyph name="periodcentered" format="2">
	<advance width="242"/>
	<unicode hex="00B7"/>
	<outline>
		<contour>
			<point x="47" y="224"/>
			<point x="83" y="196"/>
			<point x="121" y="196" type="curve" smooth="yes"/>
			<point x="158" y="196"/>
			<point x="195" y="224"/>
			<point x="195" y="278" type="curve" smooth="yes"/>
			<point x="195" y="331"/>
			<point x="158" y="358"/>
			<point x="121" y="358" type="curve" smooth="yes"/>
			<point x="84" y="358"/>
			<point x="47" y="331"/>
			<point x="47" y="278" type="curve" smooth="yes"/>
		</contour>
	</outline>
</glyph>
<glyph name="anusvara-tamil" format="2">
	<advance width="0"/>
	<unicode hex="0B82"/>
	<outline>
		<contour>
			<point x="0" y="596" type="curve" smooth="yes"/>
			<point x="-59" y="596"/>
			<point x="-105" y="644"/>
			<point x="-105" y="702" type="curve" smooth="yes"/>
			<point x="-105" y="760"/>
			<point x="-59" y="807"/>
			<point x="0" y="807" type="curve" smooth="yes"/>
			<point x="59" y="807"/>
			<point x="106" y="760"/>
			<point x="106" y="702" type="curve" smooth="yes"/>
			<point x="106" y="644"/>
			<point x="59" y="596"/>
		</contour>
		<contour>
			<point x="-1" y="662" type="curve" smooth="yes"/>
			<point x="22" y="662"/>
			<point x="41" y="681"/>
			<point x="41" y="703" type="curve" smooth="yes"/>
			<point x="41" y="727"/>
			<point x="22" y="744"/>
			<point x="-1" y="744" type="curve" smooth="yes"/>
			<point x="-24" y="744"/>
			<point x="-41" y="727"/>
			<point x="-41" y="703" type="curve" smooth="yes"/>
			<point x="-41" y="681"/>
			<point x="-24" y="662"/>
		</contour>
	</outline>
</glyph>
<glyph name="taAnusvara" format="1">
  <advance width="0"/>
  <unicode hex="0B82"/>
  <outline>
    <contour>
      <point x="0" y="596" type="curve" smooth="yes"/>
      <point x="-59" y="596"/>
      <point x="-105" y="644"/>
      <point x="-105" y="702" type="curve" smooth="yes"/>
      <point x="-105" y="760"/>
      <point x="-59" y="807"/>
      <point x="0" y="807" type="curve" smooth="yes"/>
      <point x="59" y="807"/>
      <point x="106" y="760"/>
      <point x="106" y="702" type="curve" smooth="yes"/>
      <point x="106" y="644"/>
      <point x="59" y="596"/>
    </contour>
    <contour>
      <point x="-1" y="662" type="curve" smooth="yes"/>
      <point x="22" y="662"/>
      <point x="41" y="681"/>
      <point x="41" y="703" type="curve" smooth="yes"/>
      <point x="41" y="727"/>
      <point x="22" y="744"/>
      <point x="-1" y="744" type="curve" smooth="yes"/>
      <point x="-24" y="744"/>
      <point x="-41" y="727"/>
      <point x="-41" y="703" type="curve" smooth="yes"/>
      <point x="-41" y="681"/>
      <point x="-24" y="662"/>
    </contour>
  </outline>
</glyph>
<glyph name="aytham-tamil" format="2">
	<advance width="685"/>
	<unicode hex="0B83"/>
	<outline>
		<contour>
			<point x="340" y="360" type="curve" smooth="yes"/>
			<point x="419" y="360"/>
			<point x="479" y="424"/>
			<point x="479" y="503" type="curve" smooth="yes"/>
			<point x="479" y="581"/>
			<point x="419" y="633"/>
			<point x="340" y="633" type="curve" smooth="yes"/>
			<point x="261" y="633"/>
			<point x="200" y="581"/>
			<point x="200" y="503" type="curve" smooth="yes"/>
			<point x="200" y="424"/>
			<point x="261" y="360"/>
		</contour>
		<contour>
			<point x="340" y="440" type="curve" smooth="yes"/>
			<point x="300" y="440"/>
			<point x="269" y="463"/>
			<point x="269" y="502" type="curve" smooth="yes"/>
			<point x="269" y="542"/>
			<point x="300" y="563"/>
			<point x="340" y="563" type="curve" smooth="yes"/>
			<point x="380" y="563"/>
			<point x="410" y="542"/>
			<point x="410" y="502" type="curve" smooth="yes"/>
			<point x="410" y="463"/>
			<point x="380" y="440"/>
		</contour>
		<contour>
			<point x="530" y="-4" type="curve" smooth="yes"/>
			<point x="609" y="-4"/>
			<point x="669" y="60"/>
			<point x="669" y="139" type="curve" smooth="yes"/>
			<point x="669" y="217"/>
			<point x="609" y="269"/>
			<point x="530" y="269" type="curve" smooth="yes"/>
			<point x="451" y="269"/>
			<point x="390" y="217"/>
			<point x="390" y="139" type="curve" smooth="yes"/>
			<point x="390" y="60"/>
			<point x="451" y="-4"/>
		</contour>
		<contour>
			<point x="530" y="76" type="curve" smooth="yes"/>
			<point x="490" y="76"/>
			<point x="459" y="99"/>
			<point x="459" y="138" type="curve" smooth="yes"/>
			<point x="459" y="178"/>
			<point x="490" y="199"/>
			<point x="530" y="199" type="curve" smooth="yes"/>
			<point x="570" y="199"/>
			<point x="600" y="178"/>
			<point x="600" y="138" type="curve" smooth="yes"/>
			<point x="600" y="99"/>
			<point x="570" y="76"/>
		</contour>
		<contour>
			<point x="151" y="-4" type="curve" smooth="yes"/>
			<point x="230" y="-4"/>
			<point x="290" y="60"/>
			<point x="290" y="139" type="curve" smooth="yes"/>
			<point x="290" y="217"/>
			<point x="230" y="269"/>
			<point x="151" y="269" type="curve" smooth="yes"/>
			<point x="72" y="269"/>
			<point x="11" y="217"/>
			<point x="11" y="139" type="curve" smooth="yes"/>
			<point x="11" y="60"/>
			<point x="72" y="-4"/>
		</contour>
		<contour>
			<point x="151" y="76" type="curve" smooth="yes"/>
			<point x="111" y="76"/>
			<point x="80" y="99"/>
			<point x="80" y="138" type="curve" smooth="yes"/>
			<point x="80" y="178"/>
			<point x="111" y="199"/>
			<point x="151" y="199" type="curve" smooth="yes"/>
			<point x="191" y="199"/>
			<point x="221" y="178"/>
			<point x="221" y="138" type="curve" smooth="yes"/>
			<point x="221" y="99"/>
			<point x="191" y="76"/>
		</contour>
	</outline>
</glyph>
<glyph name="taVisarga" format="1">
  <advance width="685"/>
  <unicode hex="0B83"/>
  <outline>
    <contour>
      <point x="33" y="52"/>
      <point x="33" y="136" type="curve" smooth="yes"/>
      <point x="33" y="221"/>
      <point x="85" y="279"/>
      <point x="169" y="279" type="curve" smooth="yes"/>
      <point x="244" y="279"/>
      <point x="304" y="212"/>
      <point x="304" y="136" type="curve" smooth="yes"/>
      <point x="304" y="61"/>
      <point x="244" y="-5"/>
      <point x="169" y="-5" type="curve" smooth="yes"/>
      <point x="86" y="-5"/>
    </contour>
    <contour>
      <point x="63" y="191"/>
      <point x="63" y="136" type="curve" smooth="yes"/>
      <point x="63" y="82"/>
      <point x="97" y="25"/>
      <point x="148" y="25" type="curve" smooth="yes"/>
      <point x="198" y="25"/>
      <point x="229" y="83"/>
      <point x="229" y="136" type="curve" smooth="yes"/>
      <point x="229" y="190"/>
      <point x="199" y="249"/>
      <point x="148" y="249" type="curve" smooth="yes"/>
      <point x="96" y="249"/>
    </contour>
    <contour>
      <point x="384" y="53"/>
      <point x="384" y="136" type="curve" smooth="yes"/>
      <point x="384" y="220"/>
      <point x="436" y="279"/>
      <point x="519" y="279" type="curve" smooth="yes"/>
      <point x="594" y="279"/>
      <point x="654" y="212"/>
      <point x="654" y="136" type="curve" smooth="yes"/>
      <point x="654" y="61"/>
      <point x="594" y="-5"/>
      <point x="519" y="-5" type="curve" smooth="yes"/>
      <point x="437" y="-5"/>
    </contour>
    <contour>
      <point x="414" y="191"/>
      <point x="414" y="136" type="curve" smooth="yes"/>
      <point x="414" y="82"/>
      <point x="448" y="25"/>
      <point x="499" y="25" type="curve" smooth="yes"/>
      <point x="548" y="25"/>
      <point x="579" y="83"/>
      <point x="579" y="136" type="curve" smooth="yes"/>
      <point x="579" y="190"/>
      <point x="549" y="249"/>
      <point x="499" y="249" type="curve" smooth="yes"/>
      <point x="447" y="249"/>
    </contour>
    <contour>
      <point x="208" y="417"/>
      <point x="208" y="501" type="curve" smooth="yes"/>
      <point x="208" y="586"/>
      <point x="260" y="644"/>
      <point x="344" y="644" type="curve" smooth="yes"/>
      <point x="419" y="644"/>
      <point x="479" y="577"/>
      <point x="479" y="501" type="curve" smooth="yes"/>
      <point x="479" y="426"/>
      <point x="419" y="360"/>
      <point x="344" y="360" type="curve" smooth="yes"/>
      <point x="261" y="360"/>
    </contour>
    <contour>
      <point x="238" y="556"/>
      <point x="238" y="501" type="curve" smooth="yes"/>
      <point x="238" y="447"/>
      <point x="272" y="390"/>
      <point x="323" y="390" type="curve" smooth="yes"/>
      <point x="373" y="390"/>
      <point x="404" y="448"/>
      <point x="404" y="501" type="curve" smooth="yes"/>
      <point x="404" y="555"/>
      <point x="374" y="614"/>
      <point x="323" y="614" type="curve" smooth="yes"/>
      <point x="271" y="614"/>
    </contour>
  </outline>
</glyph>
<glyph name="taA" format="1">
  <advance width="908"/>
  <unicode hex="0B85"/>
  <outline>
    <contour>
      <point x="290" y="273" type="curve" smooth="yes"/>
      <point x="290" y="362"/>
      <point x="373" y="407"/>
      <point x="468" y="407" type="curve" smooth="yes"/>
      <point x="578" y="407"/>
      <point x="672" y="318"/>
      <point x="672" y="209" type="curve" smooth="yes"/>
      <point x="672" y="154"/>
      <point x="664" y="111"/>
      <point x="648" y="78" type="curve"/>
      <point x="763" y="78" type="line"/>
      <point x="763" y="400" type="line"/>
      <point x="835" y="400" type="line"/>
      <point x="835" y="-134" type="line"/>
      <point x="763" y="-134" type="line"/>
      <point x="763" y="48" type="line"/>
      <point x="635" y="48" type="line"/>
      <point x="579" y="-53"/>
      <point x="448" y="-120"/>
      <point x="292" y="-120" type="curve" smooth="yes"/>
      <point x="166" y="-120"/>
      <point x="12" y="-67"/>
      <point x="12" y="32" type="curve" smooth="yes"/>
      <point x="12" y="60"/>
      <point x="43" y="78"/>
      <point x="73" y="78" type="curve" smooth="yes"/>
      <point x="565" y="78" type="line"/>
      <point x="586" y="120"/>
      <point x="597" y="166"/>
      <point x="597" y="215" type="curve" smooth="yes"/>
      <point x="597" y="297"/>
      <point x="542" y="377"/>
      <point x="462" y="377" type="curve"/>
      <point x="496" y="356"/>
      <point x="523" y="315"/>
      <point x="523" y="262" type="curve" smooth="yes"/>
      <point x="523" y="200"/>
      <point x="460" y="158"/>
      <point x="395" y="158" type="curve" smooth="yes"/>
      <point x="336" y="158"/>
      <point x="290" y="212"/>
    </contour>
    <contour>
      <point x="320" y="311"/>
      <point x="320" y="270" type="curve" smooth="yes"/>
      <point x="320" y="229"/>
      <point x="345" y="188"/>
      <point x="383" y="188" type="curve" smooth="yes"/>
      <point x="422" y="188"/>
      <point x="448" y="229"/>
      <point x="448" y="270" type="curve" smooth="yes"/>
      <point x="448" y="311"/>
      <point x="424" y="358"/>
      <point x="384" y="358" type="curve" smooth="yes"/>
      <point x="344" y="358"/>
    </contour>
    <contour>
      <point x="46" y="44"/>
      <point x="43" y="33" type="curve" smooth="yes"/>
      <point x="26" y="-41"/>
      <point x="164" y="-90"/>
      <point x="271" y="-90" type="curve" smooth="yes"/>
      <point x="397" y="-90"/>
      <point x="500" y="-31"/>
      <point x="550" y="48" type="curve"/>
      <point x="75" y="48" type="line" smooth="yes"/>
      <point x="60" y="48"/>
    </contour>
  </outline>
</glyph>
<glyph name="aa-tamil" format="2">
	<advance width="1097"/>
	<unicode hex="0B86"/>
	<outline>
		<contour>
			<point x="761" y="-115" type="curve"/>
			<point x="666" y="-115" type="line"/>
			<point x="666" y="-15"/>
			<point x="692" y="115"/>
			<point x="859" y="115" type="curve" smooth="yes"/>
			<point x="951" y="115"/>
			<point x="1037" y="56"/>
			<point x="1037" y="-73" type="curve" smooth="yes"/>
			<point x="1037" y="-253"/>
			<point x="866" y="-353"/>
			<point x="677" y="-353" type="curve" smooth="yes"/>
			<point x="385" y="-353"/>
			<point x="287" y="-273"/>
			<point x="287" y="-172" type="curve" smooth="yes"/>
			<point x="287" y="-101"/>
			<point x="342" y="-60"/>
			<point x="417" y="-60" type="curve" smooth="yes"/>
			<point x="532" y="-60" type="line"/>
			<point x="532" y="-147" type="line"/>
			<point x="415" y="-147" type="line" smooth="yes"/>
			<point x="399" y="-147"/>
			<point x="377" y="-153"/>
			<point x="377" y="-173" type="curve" smooth="yes"/>
			<point x="377" y="-244"/>
			<point x="541" y="-256"/>
			<point x="677" y="-256" type="curve" smooth="yes"/>
			<point x="823" y="-256"/>
			<point x="934" y="-208"/>
			<point x="934" y="-77" type="curve" smooth="yes"/>
			<point x="934" y="-37"/>
			<point x="908" y="15"/>
			<point x="859" y="15" type="curve" smooth="yes"/>
			<point x="799" y="15"/>
			<point x="761" y="-15"/>
		</contour>
		<component base="a-tamil" xOffset="20"/>
	</outline>
</glyph>
<glyph name="taAa" format="1">
  <advance width="999"/>
  <unicode hex="0B86"/>
  <outline>
    <contour>
      <point x="828" y="20" type="curve"/>
      <point x="828" y="48" type="line"/>
      <point x="842" y="56"/>
      <point x="857" y="60"/>
      <point x="872" y="60" type="curve" smooth="yes"/>
      <point x="936" y="60"/>
      <point x="989" y="7"/>
      <point x="989" y="-58" type="curve" smooth="yes"/>
      <point x="989" y="-218"/>
      <point x="846" y="-298"/>
      <point x="677" y="-298" type="curve" smooth="yes"/>
      <point x="571" y="-298"/>
      <point x="417" y="-264"/>
      <point x="417" y="-193" type="curve" smooth="yes"/>
      <point x="417" y="-164"/>
      <point x="455" y="-146"/>
      <point x="487" y="-146" type="curve" smooth="yes"/>
      <point x="602" y="-146" type="line"/>
      <point x="602" y="-176" type="line"/>
      <point x="485" y="-176" type="line" smooth="yes"/>
      <point x="469" y="-176"/>
      <point x="447" y="-181"/>
      <point x="447" y="-194" type="curve" smooth="yes"/>
      <point x="447" y="-245"/>
      <point x="585" y="-268"/>
      <point x="677" y="-268" type="curve" smooth="yes"/>
      <point x="813" y="-268"/>
      <point x="914" y="-193"/>
      <point x="914" y="-62" type="curve" smooth="yes"/>
      <point x="914" y="-22"/>
      <point x="896" y="30"/>
      <point x="859" y="30" type="curve" smooth="yes"/>
      <point x="847" y="30"/>
      <point x="834" y="26"/>
    </contour>
    <component base="taA"/>
  </outline>
</glyph>
<glyph name="taI" format="1">
  <advance width="913"/>
  <unicode hex="0B87"/>
  <outline>
    <contour>
      <point x="18" y="-247"/>
      <point x="18" y="-186" type="curve" smooth="yes"/>
      <point x="18" y="-105"/>
      <point x="81" y="-46"/>
      <point x="141" y="-15" type="curve"/>
      <point x="89" y="52"/>
      <point x="52" y="146"/>
      <point x="52" y="259" type="curve" smooth="yes"/>
      <point x="52" y="498"/>
      <point x="209" y="671"/>
      <point x="452" y="671" type="curve" smooth="yes"/>
      <point x="705" y="671"/>
      <point x="848" y="466"/>
      <point x="848" y="188" type="curve" smooth="yes"/>
      <point x="848" y="-273" type="line"/>
      <point x="818" y="-273" type="line"/>
      <point x="818" y="189" type="line" smooth="yes"/>
      <point x="818" y="428"/>
      <point x="679" y="598"/>
      <point x="450" y="598" type="curve" smooth="yes"/>
      <point x="233" y="598"/>
      <point x="96" y="450"/>
      <point x="96" y="236" type="curve" smooth="yes"/>
      <point x="96" y="154"/>
      <point x="122" y="76"/>
      <point x="174" y="2" type="curve"/>
      <point x="238" y="36"/>
      <point x="319" y="53"/>
      <point x="418" y="53" type="curve" smooth="yes"/>
      <point x="459" y="53"/>
      <point x="506" y="47"/>
      <point x="545" y="36" type="curve"/>
      <point x="576" y="87"/>
      <point x="588" y="142"/>
      <point x="588" y="201" type="curve" smooth="yes"/>
      <point x="588" y="284"/>
      <point x="537" y="373"/>
      <point x="458" y="373" type="curve"/>
      <point x="493" y="353"/>
      <point x="518" y="309"/>
      <point x="518" y="256" type="curve" smooth="yes"/>
      <point x="518" y="186"/>
      <point x="463" y="146"/>
      <point x="390" y="146" type="curve" smooth="yes"/>
      <point x="323" y="146"/>
      <point x="282" y="193"/>
      <point x="282" y="261" type="curve" smooth="yes"/>
      <point x="282" y="353"/>
      <point x="357" y="403"/>
      <point x="452" y="403" type="curve" smooth="yes"/>
      <point x="567" y="403"/>
      <point x="660" y="310"/>
      <point x="660" y="193" type="curve" smooth="yes"/>
      <point x="660" y="122"/>
      <point x="644" y="62"/>
      <point x="612" y="15" type="curve"/>
      <point x="682" y="-14"/>
      <point x="735" y="-73"/>
      <point x="735" y="-139" type="curve" smooth="yes"/>
      <point x="735" y="-228"/>
      <point x="653" y="-285"/>
      <point x="549" y="-285" type="curve" smooth="yes"/>
      <point x="477" y="-285"/>
      <point x="410" y="-264"/>
      <point x="348" y="-222" type="curve"/>
      <point x="288" y="-264"/>
      <point x="222" y="-285"/>
      <point x="149" y="-285" type="curve" smooth="yes"/>
      <point x="85" y="-285"/>
    </contour>
    <contour>
      <point x="243" y="-6"/>
      <point x="194" y="-32" type="curve"/>
      <point x="237" y="-90"/>
      <point x="288" y="-138"/>
      <point x="346" y="-175" type="curve"/>
      <point x="409" y="-133"/>
      <point x="469" y="-78"/>
      <point x="515" y="-9" type="curve"/>
      <point x="482" y="2"/>
      <point x="441" y="7"/>
      <point x="402" y="7" type="curve" smooth="yes"/>
      <point x="312" y="7"/>
    </contour>
    <contour>
      <point x="465" y="-155"/>
      <point x="392" y="-198" type="curve"/>
      <point x="431" y="-219"/>
      <point x="473" y="-229"/>
      <point x="520" y="-229" type="curve" smooth="yes"/>
      <point x="583" y="-229"/>
      <point x="656" y="-195"/>
      <point x="656" y="-137" type="curve" smooth="yes"/>
      <point x="656" y="-86"/>
      <point x="620" y="-48"/>
      <point x="579" y="-36" type="curve"/>
      <point x="527" y="-101"/>
    </contour>
    <contour>
      <point x="312" y="307"/>
      <point x="312" y="264" type="curve" smooth="yes"/>
      <point x="312" y="221"/>
      <point x="339" y="176"/>
      <point x="380" y="176" type="curve" smooth="yes"/>
      <point x="419" y="176"/>
      <point x="451" y="220"/>
      <point x="451" y="262" type="curve" smooth="yes"/>
      <point x="451" y="303"/>
      <point x="422" y="349"/>
      <point x="384" y="349" type="curve" smooth="yes"/>
      <point x="342" y="349"/>
    </contour>
    <contour>
      <point x="48" y="-130"/>
      <point x="48" y="-186" type="curve" smooth="yes"/>
      <point x="48" y="-230"/>
      <point x="105" y="-255"/>
      <point x="153" y="-255" type="curve" smooth="yes"/>
      <point x="206" y="-255"/>
      <point x="260" y="-236"/>
      <point x="314" y="-198" type="curve"/>
      <point x="253" y="-154"/>
      <point x="202" y="-105"/>
      <point x="159" y="-50" type="curve"/>
      <point x="102" y="-79"/>
    </contour>
  </outline>
</glyph>
<glyph name="taIi" format="1">
  <advance width="583"/>
  <unicode hex="0B88"/>
  <outline>
    <contour>
      <point x="100" y="0" type="line"/>
      <point x="70" y="0" type="line"/>
      <point x="70" y="400" type="line"/>
      <point x="548" y="400" type="line"/>
      <point x="548" y="370" type="line"/>
      <point x="409" y="370" type="line"/>
      <point x="409" y="0" type="line"/>
      <point x="334" y="0" type="line"/>
      <point x="334" y="370" type="line"/>
      <point x="100" y="370" type="line"/>
    </contour>
    <contour>
      <point x="159" y="170"/>
      <point x="159" y="199" type="curve" smooth="yes"/>
      <point x="159" y="228"/>
      <point x="186" y="249"/>
      <point x="215" y="249" type="curve" smooth="yes"/>
      <point x="244" y="249"/>
      <point x="272" y="228"/>
      <point x="272" y="199" type="curve" smooth="yes"/>
      <point x="272" y="170"/>
      <point x="245" y="148"/>
      <point x="215" y="148" type="curve" smooth="yes"/>
      <point x="186" y="148"/>
    </contour>
    <contour>
      <point x="451" y="170"/>
      <point x="451" y="199" type="curve" smooth="yes"/>
      <point x="451" y="228"/>
      <point x="478" y="249"/>
      <point x="507" y="249" type="curve" smooth="yes"/>
      <point x="536" y="249"/>
      <point x="564" y="228"/>
      <point x="564" y="199" type="curve" smooth="yes"/>
      <point x="564" y="170"/>
      <point x="537" y="148"/>
      <point x="507" y="148" type="curve" smooth="yes"/>
      <point x="478" y="148"/>
    </contour>
  </outline>
</glyph>
<glyph name="taU" format="1">
  <advance width="709"/>
  <unicode hex="0B89"/>
  <outline>
    <contour>
      <point x="36" y="24"/>
      <point x="36" y="64" type="curve" smooth="yes"/>
      <point x="36" y="101"/>
      <point x="76" y="125"/>
      <point x="115" y="125" type="curve" smooth="yes"/>
      <point x="266" y="125" type="line" smooth="yes"/>
      <point x="327" y="125"/>
      <point x="368" y="189"/>
      <point x="368" y="253" type="curve" smooth="yes"/>
      <point x="368" y="314"/>
      <point x="323" y="372"/>
      <point x="263" y="372" type="curve" smooth="yes"/>
      <point x="192" y="372" type="line"/>
      <point x="227" y="362"/>
      <point x="256" y="325"/>
      <point x="256" y="280" type="curve" smooth="yes"/>
      <point x="256" y="218"/>
      <point x="204" y="186"/>
      <point x="141" y="186" type="curve" smooth="yes"/>
      <point x="90" y="186"/>
      <point x="46" y="229"/>
      <point x="46" y="280" type="curve" smooth="yes"/>
      <point x="46" y="374"/>
      <point x="132" y="402"/>
      <point x="236" y="402" type="curve" smooth="yes"/>
      <point x="345" y="402"/>
      <point x="443" y="354"/>
      <point x="443" y="252" type="curve" smooth="yes"/>
      <point x="443" y="163"/>
      <point x="365" y="95"/>
      <point x="275" y="95" type="curve" smooth="yes"/>
      <point x="156" y="95" type="line" smooth="yes"/>
      <point x="134" y="95"/>
      <point x="111" y="83"/>
      <point x="111" y="63" type="curve" smooth="yes"/>
      <point x="111" y="43"/>
      <point x="133" y="30"/>
      <point x="154" y="30" type="curve" smooth="yes"/>
      <point x="704" y="30" type="line"/>
      <point x="704" y="0" type="line"/>
      <point x="128" y="0" type="line" smooth="yes"/>
      <point x="85" y="0"/>
    </contour>
    <contour>
      <point x="76" y="319"/>
      <point x="76" y="286" type="curve" smooth="yes"/>
      <point x="76" y="253"/>
      <point x="95" y="216"/>
      <point x="125" y="216" type="curve" smooth="yes"/>
      <point x="158" y="216"/>
      <point x="181" y="251"/>
      <point x="181" y="286" type="curve" smooth="yes"/>
      <point x="181" y="320"/>
      <point x="159" y="356"/>
      <point x="127" y="356" type="curve" smooth="yes"/>
      <point x="96" y="356"/>
    </contour>
  </outline>
</glyph>
<glyph name="taUu" format="1">
  <advance width="1215"/>
  <unicode hex="0B8A"/>
  <outline>
    <contour>
      <point x="515" y="148"/>
      <point x="515" y="228" type="curve" smooth="yes"/>
      <point x="515" y="325"/>
      <point x="601" y="400"/>
      <point x="699" y="400" type="curve" smooth="yes"/>
      <point x="785" y="400"/>
      <point x="865" y="379"/>
      <point x="902" y="334" type="curve"/>
      <point x="902" y="400" type="line"/>
      <point x="1189" y="400" type="line"/>
      <point x="1189" y="370" type="line"/>
      <point x="1141" y="370" type="line"/>
      <point x="1141" y="90" type="line"/>
      <point x="1066" y="90" type="line"/>
      <point x="1066" y="370" type="line"/>
      <point x="948" y="370" type="line"/>
      <point x="948" y="90" type="line"/>
      <point x="873" y="90" type="line"/>
      <point x="873" y="285" type="line"/>
      <point x="837" y="331"/>
      <point x="777" y="370"/>
      <point x="700" y="370" type="curve" smooth="yes"/>
      <point x="617" y="370"/>
      <point x="545" y="306"/>
      <point x="545" y="224" type="curve" smooth="yes"/>
      <point x="545" y="179"/>
      <point x="566" y="144"/>
      <point x="592" y="123" type="curve"/>
      <point x="580" y="139"/>
      <point x="573" y="163"/>
      <point x="573" y="190" type="curve" smooth="yes"/>
      <point x="573" y="253"/>
      <point x="614" y="293"/>
      <point x="677" y="293" type="curve" smooth="yes"/>
      <point x="740" y="293"/>
      <point x="783" y="253"/>
      <point x="783" y="191" type="curve" smooth="yes"/>
      <point x="783" y="123"/>
      <point x="732" y="83"/>
      <point x="662" y="83" type="curve" smooth="yes"/>
      <point x="581" y="83"/>
    </contour>
    <contour>
      <point x="36" y="24"/>
      <point x="36" y="64" type="curve" smooth="yes"/>
      <point x="36" y="99"/>
      <point x="77" y="120"/>
      <point x="115" y="120" type="curve" smooth="yes"/>
      <point x="266" y="120" type="line" smooth="yes"/>
      <point x="328" y="120"/>
      <point x="368" y="188"/>
      <point x="368" y="253" type="curve" smooth="yes"/>
      <point x="368" y="314"/>
      <point x="323" y="370"/>
      <point x="263" y="370" type="curve" smooth="yes"/>
      <point x="192" y="370" type="line"/>
      <point x="227" y="360"/>
      <point x="256" y="324"/>
      <point x="256" y="280" type="curve" smooth="yes"/>
      <point x="256" y="218"/>
      <point x="204" y="186"/>
      <point x="141" y="186" type="curve" smooth="yes"/>
      <point x="90" y="186"/>
      <point x="46" y="229"/>
      <point x="46" y="280" type="curve" smooth="yes"/>
      <point x="46" y="373"/>
      <point x="132" y="400"/>
      <point x="236" y="400" type="curve" smooth="yes"/>
      <point x="345" y="400"/>
      <point x="443" y="353"/>
      <point x="443" y="252" type="curve" smooth="yes"/>
      <point x="443" y="162"/>
      <point x="367" y="90"/>
      <point x="275" y="90" type="curve" smooth="yes"/>
      <point x="156" y="90" type="line" smooth="yes"/>
      <point x="136" y="90"/>
      <point x="111" y="81"/>
      <point x="111" y="63" type="curve" smooth="yes"/>
      <point x="111" y="43"/>
      <point x="133" y="30"/>
      <point x="154" y="30" type="curve" smooth="yes"/>
      <point x="1189" y="30" type="line"/>
      <point x="1189" y="0" type="line"/>
      <point x="128" y="0" type="line" smooth="yes"/>
      <point x="85" y="0"/>
    </contour>
    <contour>
      <point x="76" y="319"/>
      <point x="76" y="286" type="curve" smooth="yes"/>
      <point x="76" y="253"/>
      <point x="95" y="216"/>
      <point x="125" y="216" type="curve" smooth="yes"/>
      <point x="158" y="216"/>
      <point x="181" y="251"/>
      <point x="181" y="286" type="curve" smooth="yes"/>
      <point x="181" y="320"/>
      <point x="159" y="356"/>
      <point x="127" y="356" type="curve" smooth="yes"/>
      <point x="96" y="356"/>
    </contour>
    <contour>
      <point x="603" y="223"/>
      <point x="603" y="188" type="curve" smooth="yes"/>
      <point x="603" y="151"/>
      <point x="625" y="113"/>
      <point x="659" y="113" type="curve" smooth="yes"/>
      <point x="691" y="113"/>
      <point x="708" y="154"/>
      <point x="708" y="189" type="curve" smooth="yes"/>
      <point x="708" y="224"/>
      <point x="688" y="263"/>
      <point x="655" y="263" type="curve" smooth="yes"/>
      <point x="622" y="263"/>
    </contour>
  </outline>
</glyph>
<glyph name="uu-tamil" format="2">
	<advance width="1053"/>
	<unicode hex="0B8A"/>
	<outline>
		<contour>
			<point x="503" y="-214" type="line"/>
			<point x="687" y="-214"/>
			<point x="1132" y="-214"/>
			<point x="1246" y="-214" type="curve"/>
			<point x="1246" y="-316" type="line"/>
			<point x="1185" y="-316"/>
			<point x="703" y="-316"/>
			<point x="503" y="-316" type="curve"/>
			<point x="40" y="-316" type="line"/>
			<point x="40" y="-214" type="line"/>
			<point x="40" y="3"/>
			<point x="73" y="93"/>
			<point x="109" y="135" type="curve" smooth="yes"/>
			<point x="150" y="183"/>
			<point x="194" y="215"/>
			<point x="286" y="236" type="curve" smooth="yes"/>
			<point x="348" y="250"/>
			<point x="406" y="265"/>
			<point x="453" y="300" type="curve" smooth="yes"/>
			<point x="485" y="324"/>
			<point x="498" y="351"/>
			<point x="498" y="390" type="curve" smooth="yes"/>
			<point x="498" y="519"/>
			<point x="360" y="543"/>
			<point x="296" y="543" type="curve" smooth="yes"/>
			<point x="246" y="543"/>
			<point x="222" y="514"/>
			<point x="222" y="481" type="curve" smooth="yes"/>
			<point x="222" y="455"/>
			<point x="245" y="433"/>
			<point x="275" y="433" type="curve" smooth="yes"/>
			<point x="305" y="433"/>
			<point x="327" y="452"/>
			<point x="327" y="481" type="curve" smooth="yes"/>
			<point x="327" y="499"/>
			<point x="317" y="540"/>
			<point x="260" y="537" type="curve"/>
			<point x="319" y="576" type="line"/>
			<point x="354" y="566"/>
			<point x="399" y="550"/>
			<point x="399" y="472" type="curve" smooth="yes"/>
			<point x="399" y="401"/>
			<point x="335" y="360"/>
			<point x="275" y="360" type="curve" smooth="yes"/>
			<point x="224" y="360"/>
			<point x="144" y="391"/>
			<point x="144" y="481" type="curve" smooth="yes"/>
			<point x="144" y="586"/>
			<point x="224" y="635"/>
			<point x="334" y="635" type="curve" smooth="yes"/>
			<point x="406" y="635"/>
			<point x="469" y="611"/>
			<point x="522" y="562" type="curve" smooth="yes"/>
			<point x="574" y="514"/>
			<point x="600" y="457"/>
			<point x="600" y="389" type="curve" smooth="yes"/>
			<point x="600" y="342"/>
			<point x="588" y="301"/>
			<point x="562" y="264" type="curve" smooth="yes"/>
			<point x="528" y="216"/>
			<point x="471" y="180"/>
			<point x="390" y="160" type="curve" smooth="yes"/>
			<point x="370" y="155"/>
			<point x="357" y="153"/>
			<point x="336" y="148" type="curve" smooth="yes"/>
			<point x="305" y="141"/>
			<point x="269" y="129"/>
			<point x="240" y="114" type="curve" smooth="yes"/>
			<point x="155" y="70"/>
			<point x="142" y="-13"/>
			<point x="142" y="-214" type="curve"/>
		</contour>
		<contour>
			<point x="843" y="-21" type="curve" smooth="yes"/>
			<point x="843" y="-111"/>
			<point x="800" y="-170"/>
			<point x="731" y="-170" type="curve" smooth="yes"/>
			<point x="654" y="-170"/>
			<point x="610" y="-85"/>
			<point x="610" y="32" type="curve" smooth="yes"/>
			<point x="610" y="185"/>
			<point x="676" y="281"/>
			<point x="788" y="281" type="curve" smooth="yes"/>
			<point x="883" y="281"/>
			<point x="953" y="189"/>
			<point x="953" y="35" type="curve"/>
			<point x="900" y="48" type="line"/>
			<point x="900" y="154"/>
			<point x="856" y="221"/>
			<point x="789" y="221" type="curve" smooth="yes"/>
			<point x="712" y="221"/>
			<point x="674" y="140"/>
			<point x="674" y="37" type="curve" smooth="yes"/>
			<point x="674" y="-34"/>
			<point x="687" y="-108"/>
			<point x="731" y="-108" type="curve" smooth="yes"/>
			<point x="769" y="-108"/>
			<point x="781" y="-59"/>
			<point x="781" y="-19" type="curve" smooth="yes"/>
			<point x="781" y="39"/>
			<point x="758" y="68"/>
			<point x="732" y="68" type="curve" smooth="yes"/>
			<point x="694" y="68"/>
			<point x="675" y="26"/>
			<point x="679" y="-30" type="curve"/>
			<point x="640" y="-10" type="line"/>
			<point x="640" y="51"/>
			<point x="677" y="120"/>
			<point x="737" y="120" type="curve" smooth="yes"/>
			<point x="793" y="120"/>
			<point x="843" y="71"/>
		</contour>
		<contour>
			<point x="967" y="-152" type="line"/>
			<point x="900" y="-152" type="line"/>
			<point x="900" y="193" type="line"/>
			<point x="908" y="199" type="line"/>
			<point x="908" y="272" type="line"/>
			<point x="1246" y="272" type="line"/>
			<point x="1246" y="210" type="line"/>
			<point x="1160" y="210" type="line"/>
			<point x="1160" y="-152" type="line"/>
			<point x="1094" y="-152" type="line"/>
			<point x="1094" y="210" type="line"/>
			<point x="967" y="210" type="line"/>
		</contour>
	</outline>
</glyph>
<glyph name="taE" format="1">
  <advance width="695"/>
  <unicode hex="0B8E"/>
  <outline>
    <contour>
      <point x="38" y="85"/>
      <point x="38" y="183" type="curve" smooth="yes"/>
      <point x="38" y="303"/>
      <point x="131" y="400"/>
      <point x="246" y="400" type="curve" smooth="yes"/>
      <point x="686" y="400" type="line"/>
      <point x="686" y="370" type="line"/>
      <point x="574" y="370" type="line"/>
      <point x="574" y="0" type="line"/>
      <point x="503" y="0" type="line"/>
      <point x="503" y="370" type="line"/>
      <point x="246" y="370" type="line" smooth="yes"/>
      <point x="146" y="370"/>
      <point x="64" y="282"/>
      <point x="64" y="183" type="curve" smooth="yes"/>
      <point x="64" y="119"/>
      <point x="98" y="73"/>
      <point x="135" y="46" type="curve"/>
      <point x="117" y="70"/>
      <point x="110" y="93"/>
      <point x="110" y="120" type="curve" smooth="yes"/>
      <point x="110" y="183"/>
      <point x="162" y="230"/>
      <point x="226" y="230" type="curve" smooth="yes"/>
      <point x="289" y="230"/>
      <point x="342" y="190"/>
      <point x="342" y="123" type="curve" smooth="yes"/>
      <point x="342" y="54"/>
      <point x="283" y="0"/>
      <point x="212" y="0" type="curve" smooth="yes"/>
      <point x="115" y="0"/>
    </contour>
    <contour>
      <point x="136" y="159"/>
      <point x="136" y="117" type="curve" smooth="yes"/>
      <point x="136" y="77"/>
      <point x="161" y="37"/>
      <point x="200" y="37" type="curve" smooth="yes"/>
      <point x="242" y="37"/>
      <point x="268" y="76"/>
      <point x="268" y="119" type="curve" smooth="yes"/>
      <point x="268" y="160"/>
      <point x="245" y="200"/>
      <point x="206" y="200" type="curve" smooth="yes"/>
      <point x="165" y="200"/>
    </contour>
  </outline>
</glyph>
<glyph name="ee-tamil" format="2">
	<advance width="1201"/>
	<unicode hex="0B8F"/>
	<outline>
		<contour>
			<point x="562" y="13" type="line"/>
			<point x="660" y="-9" type="line"/>
			<point x="347" y="-181" type="line"/>
			<point x="318" y="-121" type="line"/>
		</contour>
		<component base="e-sinhala"/>
	</outline>
</glyph>
<glyph name="taEe" format="1">
  <advance width="695"/>
  <unicode hex="0B8F"/>
  <outline>
    <contour>
      <point x="505" y="9" type="line"/>
      <point x="580" y="0" type="line"/>
      <point x="277" y="-141" type="line"/>
      <point x="260" y="-117" type="line"/>
    </contour>
    <component base="taE"/>
  </outline>
</glyph>
<glyph name="ai-tamil" format="2">
	<advance width="708"/>
	<unicode hex="0B90"/>
	<outline>
		<contour>
			<point x="234" y="-155" type="curve" smooth="yes"/>
			<point x="143" y="-155"/>
			<point x="45" y="-99"/>
			<point x="45" y="21" type="curve" smooth="yes"/>
			<point x="45" y="201"/>
			<point x="239" y="220"/>
			<point x="380" y="234" type="curve" smooth="yes"/>
			<point x="513" y="247"/>
			<point x="646" y="271"/>
			<point x="646" y="397" type="curve" smooth="yes"/>
			<point x="646" y="456"/>
			<point x="615" y="501"/>
			<point x="560" y="501" type="curve" smooth="yes"/>
			<point x="497" y="501"/>
			<point x="448" y="431"/>
			<point x="448" y="299" type="curve"/>
			<point x="364" y="299" type="line"/>
			<point x="367" y="476"/>
			<point x="433" y="581"/>
			<point x="563" y="581" type="curve" smooth="yes"/>
			<point x="671" y="581"/>
			<point x="733" y="509"/>
			<point x="733" y="402" type="curve" smooth="yes"/>
			<point x="733" y="188"/>
			<point x="534" y="163"/>
			<point x="381" y="151" type="curve" smooth="yes"/>
			<point x="221" y="137"/>
			<point x="137" y="105"/>
			<point x="137" y="25" type="curve" smooth="yes"/>
			<point x="137" y="-28"/>
			<point x="181" y="-68"/>
			<point x="239" y="-68" type="curve" smooth="yes"/>
			<point x="301" y="-68"/>
			<point x="359" y="-35"/>
			<point x="359" y="74" type="curve"/>
			<point x="451" y="74" type="line"/>
			<point x="451" y="-7"/>
			<point x="480" y="-73"/>
			<point x="554" y="-71" type="curve" smooth="yes"/>
			<point x="615" y="-69"/>
			<point x="647" y="-6"/>
			<point x="624" y="68" type="curve"/>
			<point x="709" y="81" type="line"/>
			<point x="715" y="71"/>
			<point x="762" y="-153"/>
			<point x="554" y="-153" type="curve" smooth="yes"/>
			<point x="427" y="-153"/>
			<point x="408" y="-57"/>
			<point x="408" y="-57" type="curve"/>
			<point x="408" y="-57"/>
			<point x="390" y="-155"/>
		</contour>
		<contour>
			<point x="447" y="299" type="curve"/>
			<point x="364" y="299" type="line"/>
			<point x="366" y="391"/>
			<point x="339" y="504"/>
			<point x="238" y="504" type="curve" smooth="yes"/>
			<point x="175" y="504"/>
			<point x="116" y="468"/>
			<point x="116" y="371" type="curve" smooth="yes"/>
			<point x="116" y="327"/>
			<point x="140" y="305"/>
			<point x="166" y="305" type="curve" smooth="yes"/>
			<point x="199" y="305"/>
			<point x="217" y="336"/>
			<point x="217" y="368" type="curve" smooth="yes"/>
			<point x="217" y="410"/>
			<point x="194" y="432"/>
			<point x="167" y="432" type="curve" smooth="yes"/>
			<point x="136" y="432"/>
			<point x="116" y="406"/>
			<point x="116" y="370" type="curve"/>
			<point x="64" y="403" type="line"/>
			<point x="64" y="424"/>
			<point x="99" y="494"/>
			<point x="170" y="495" type="curve" smooth="yes"/>
			<point x="208" y="495"/>
			<point x="284" y="467"/>
			<point x="284" y="362" type="curve" smooth="yes"/>
			<point x="284" y="273"/>
			<point x="226" y="234"/>
			<point x="164" y="234" type="curve" smooth="yes"/>
			<point x="83" y="234"/>
			<point x="41" y="294"/>
			<point x="42" y="384" type="curve" smooth="yes"/>
			<point x="43" y="513"/>
			<point x="126" y="583"/>
			<point x="241" y="582" type="curve" smooth="yes"/>
			<point x="407" y="581"/>
			<point x="446" y="441"/>
		</contour>
	</outline>
</glyph>
<glyph name="taAi" format="1">
  <advance width="708"/>
  <unicode hex="0B90"/>
  <outline>
    <contour>
      <point x="26" y="-164"/>
      <point x="26" y="-76" type="curve" smooth="yes"/>
      <point x="26" y="28"/>
      <point x="114" y="80"/>
      <point x="200" y="80" type="curve" smooth="yes"/>
      <point x="458" y="80" type="line" smooth="yes"/>
      <point x="550" y="80"/>
      <point x="598" y="155"/>
      <point x="598" y="231" type="curve" smooth="yes"/>
      <point x="598" y="303"/>
      <point x="567" y="365"/>
      <point x="506" y="365" type="curve" smooth="yes"/>
      <point x="460" y="365"/>
      <point x="421" y="322"/>
      <point x="421" y="240" type="curve" smooth="yes"/>
      <point x="421" y="138" type="line"/>
      <point x="346" y="138" type="line"/>
      <point x="346" y="229" type="line" smooth="yes"/>
      <point x="346" y="326"/>
      <point x="270" y="368"/>
      <point x="195" y="368" type="curve" smooth="yes"/>
      <point x="121" y="368"/>
      <point x="64" y="321"/>
      <point x="64" y="248" type="curve" smooth="yes"/>
      <point x="64" y="205"/>
      <point x="88" y="167"/>
      <point x="123" y="154" type="curve"/>
      <point x="108" y="171"/>
      <point x="96" y="196"/>
      <point x="96" y="226" type="curve" smooth="yes"/>
      <point x="96" y="277"/>
      <point x="132" y="323"/>
      <point x="190" y="323" type="curve" smooth="yes"/>
      <point x="248" y="323"/>
      <point x="289" y="286"/>
      <point x="289" y="220" type="curve" smooth="yes"/>
      <point x="289" y="157"/>
      <point x="237" y="116"/>
      <point x="176" y="116" type="curve" smooth="yes"/>
      <point x="82" y="116"/>
      <point x="34" y="178"/>
      <point x="34" y="249" type="curve" smooth="yes"/>
      <point x="34" y="340"/>
      <point x="110" y="398"/>
      <point x="203" y="398" type="curve" smooth="yes"/>
      <point x="304" y="398"/>
      <point x="365" y="361"/>
      <point x="396" y="309" type="curve"/>
      <point x="391" y="307" type="line"/>
      <point x="405" y="358"/>
      <point x="458" y="398"/>
      <point x="519" y="398" type="curve" smooth="yes"/>
      <point x="609" y="398"/>
      <point x="673" y="340"/>
      <point x="673" y="233" type="curve" smooth="yes"/>
      <point x="673" y="132"/>
      <point x="588" y="50"/>
      <point x="487" y="50" type="curve" smooth="yes"/>
      <point x="215" y="50" type="line" smooth="yes"/>
      <point x="152" y="50"/>
      <point x="101" y="-1"/>
      <point x="101" y="-64" type="curve" smooth="yes"/>
      <point x="101" y="-127"/>
      <point x="145" y="-183"/>
      <point x="221" y="-183" type="curve" smooth="yes"/>
      <point x="272" y="-183"/>
      <point x="346" y="-149"/>
      <point x="346" y="-66" type="curve" smooth="yes"/>
      <point x="346" y="2" type="line"/>
      <point x="421" y="2" type="line"/>
      <point x="421" y="-65" type="line" smooth="yes"/>
      <point x="421" y="-145"/>
      <point x="462" y="-186"/>
      <point x="527" y="-186" type="curve" smooth="yes"/>
      <point x="575" y="-186"/>
      <point x="636" y="-164"/>
      <point x="636" y="-67" type="curve" smooth="yes"/>
      <point x="636" y="2" type="line"/>
      <point x="666" y="2" type="line"/>
      <point x="666" y="-67" type="line" smooth="yes"/>
      <point x="666" y="-179"/>
      <point x="594" y="-216"/>
      <point x="521" y="-216" type="curve" smooth="yes"/>
      <point x="426" y="-216"/>
      <point x="385" y="-185"/>
      <point x="362" y="-135" type="curve"/>
      <point x="330" y="-181"/>
      <point x="271" y="-216"/>
      <point x="197" y="-216" type="curve" smooth="yes"/>
      <point x="106" y="-216"/>
    </contour>
    <contour>
      <point x="123" y="261"/>
      <point x="123" y="224" type="curve" smooth="yes"/>
      <point x="123" y="192"/>
      <point x="141" y="152"/>
      <point x="170" y="152" type="curve" smooth="yes"/>
      <point x="199" y="152"/>
      <point x="217" y="184"/>
      <point x="217" y="223" type="curve" smooth="yes"/>
      <point x="217" y="262"/>
      <point x="201" y="290"/>
      <point x="173" y="290" type="curve" smooth="yes"/>
      <point x="144" y="290"/>
    </contour>
  </outline>
</glyph>
<glyph name="taO" format="1">
  <advance width="716"/>
  <unicode hex="0B92"/>
  <outline>
    <contour>
      <point x="37" y="65"/>
      <point x="37" y="156" type="curve" smooth="yes"/>
      <point x="37" y="315"/>
      <point x="173" y="399"/>
      <point x="341" y="399" type="curve" smooth="yes"/>
      <point x="520" y="399"/>
      <point x="681" y="321"/>
      <point x="681" y="154" type="curve" smooth="yes"/>
      <point x="681" y="75"/>
      <point x="617" y="8"/>
      <point x="538" y="8" type="curve" smooth="yes"/>
      <point x="484" y="8"/>
      <point x="442" y="54"/>
      <point x="442" y="108" type="curve" smooth="yes"/>
      <point x="442" y="131" type="line"/>
      <point x="418" y="113"/>
      <point x="399" y="81"/>
      <point x="399" y="40" type="curve" smooth="yes"/>
      <point x="399" y="-23"/>
      <point x="454" y="-74"/>
      <point x="518" y="-74" type="curve" smooth="yes"/>
      <point x="612" y="-74" type="line"/>
      <point x="612" y="-104" type="line"/>
      <point x="474" y="-104" type="line" smooth="yes"/>
      <point x="439" y="-104"/>
      <point x="416" y="-140"/>
      <point x="416" y="-176" type="curve" smooth="yes"/>
      <point x="416" y="-253"/>
      <point x="325" y="-282"/>
      <point x="239" y="-282" type="curve" smooth="yes"/>
      <point x="166" y="-282"/>
      <point x="80" y="-245"/>
      <point x="80" y="-178" type="curve" smooth="yes"/>
      <point x="80" y="-140"/>
      <point x="93" y="-110"/>
      <point x="112" y="-92" type="curve"/>
      <point x="133" y="-110" type="line"/>
      <point x="119" y="-126"/>
      <point x="110" y="-150"/>
      <point x="110" y="-179" type="curve" smooth="yes"/>
      <point x="110" y="-232"/>
      <point x="179" y="-252"/>
      <point x="240" y="-252" type="curve" smooth="yes"/>
      <point x="298" y="-252"/>
      <point x="341" y="-220"/>
      <point x="341" y="-164" type="curve" smooth="yes"/>
      <point x="341" y="-113"/>
      <point x="377" y="-80"/>
      <point x="453" y="-80" type="curve"/>
      <point x="407" y="-63"/>
      <point x="369" y="-17"/>
      <point x="369" y="43" type="curve" smooth="yes"/>
      <point x="369" y="114"/>
      <point x="424" y="178"/>
      <point x="494" y="178" type="curve"/>
      <point x="480" y="162"/>
      <point x="472" y="138"/>
      <point x="472" y="109" type="curve" smooth="yes"/>
      <point x="472" y="71"/>
      <point x="501" y="38"/>
      <point x="538" y="38" type="curve" smooth="yes"/>
      <point x="583" y="38"/>
      <point x="606" y="103"/>
      <point x="606" y="153" type="curve" smooth="yes"/>
      <point x="606" y="274"/>
      <point x="476" y="355"/>
      <point x="336" y="355" type="curve" smooth="yes"/>
      <point x="200" y="355"/>
      <point x="67" y="276"/>
      <point x="67" y="156" type="curve" smooth="yes"/>
      <point x="67" y="96"/>
      <point x="100" y="46"/>
      <point x="143" y="28" type="curve"/>
      <point x="125" y="45"/>
      <point x="110" y="72"/>
      <point x="110" y="105" type="curve" smooth="yes"/>
      <point x="110" y="161"/>
      <point x="156" y="208"/>
      <point x="212" y="208" type="curve" smooth="yes"/>
      <point x="272" y="208"/>
      <point x="324" y="160"/>
      <point x="324" y="100" type="curve" smooth="yes"/>
      <point x="324" y="37"/>
      <point x="266" y="-10"/>
      <point x="201" y="-10" type="curve" smooth="yes"/>
      <point x="111" y="-10"/>
    </contour>
    <contour>
      <point x="140" y="143"/>
      <point x="140" y="106" type="curve" smooth="yes"/>
      <point x="140" y="69"/>
      <point x="156" y="20"/>
      <point x="190" y="20" type="curve" smooth="yes"/>
      <point x="226" y="20"/>
      <point x="249" y="64"/>
      <point x="249" y="104" type="curve" smooth="yes"/>
      <point x="249" y="137"/>
      <point x="234" y="178"/>
      <point x="204" y="178" type="curve" smooth="yes"/>
      <point x="167" y="178"/>
    </contour>
  </outline>
</glyph>
<glyph name="taOo" format="1">
  <advance width="716"/>
  <unicode hex="0B93"/>
  <outline>
    <contour>
      <point x="37" y="65"/>
      <point x="37" y="156" type="curve" smooth="yes"/>
      <point x="37" y="315"/>
      <point x="173" y="399"/>
      <point x="341" y="399" type="curve" smooth="yes"/>
      <point x="520" y="399"/>
      <point x="681" y="321"/>
      <point x="681" y="154" type="curve" smooth="yes"/>
      <point x="681" y="75"/>
      <point x="617" y="8"/>
      <point x="538" y="8" type="curve" smooth="yes"/>
      <point x="484" y="8"/>
      <point x="442" y="54"/>
      <point x="442" y="108" type="curve" smooth="yes"/>
      <point x="442" y="131" type="line"/>
      <point x="418" y="113"/>
      <point x="399" y="81"/>
      <point x="399" y="40" type="curve" smooth="yes"/>
      <point x="399" y="-23"/>
      <point x="454" y="-74"/>
      <point x="518" y="-74" type="curve" smooth="yes"/>
      <point x="612" y="-74" type="line"/>
      <point x="612" y="-104" type="line"/>
      <point x="474" y="-104" type="line" smooth="yes"/>
      <point x="439" y="-104"/>
      <point x="416" y="-140"/>
      <point x="416" y="-176" type="curve" smooth="yes"/>
      <point x="416" y="-263"/>
      <point x="332" y="-302"/>
      <point x="239" y="-302" type="curve" smooth="yes"/>
      <point x="159" y="-302"/>
      <point x="80" y="-249"/>
      <point x="80" y="-173" type="curve" smooth="yes"/>
      <point x="80" y="-105"/>
      <point x="132" y="-44"/>
      <point x="200" y="-44" type="curve" smooth="yes"/>
      <point x="252" y="-44"/>
      <point x="303" y="-78"/>
      <point x="303" y="-127" type="curve" smooth="yes"/>
      <point x="303" y="-172"/>
      <point x="269" y="-210"/>
      <point x="224" y="-210" type="curve" smooth="yes"/>
      <point x="185" y="-210"/>
      <point x="153" y="-174"/>
      <point x="153" y="-133" type="curve" smooth="yes"/>
      <point x="153" y="-117"/>
      <point x="159" y="-103"/>
      <point x="167" y="-95" type="curve"/>
      <point x="134" y="-100"/>
      <point x="110" y="-135"/>
      <point x="110" y="-174" type="curve" smooth="yes"/>
      <point x="110" y="-239"/>
      <point x="171" y="-272"/>
      <point x="240" y="-272" type="curve" smooth="yes"/>
      <point x="303" y="-272"/>
      <point x="341" y="-227"/>
      <point x="341" y="-164" type="curve" smooth="yes"/>
      <point x="341" y="-113"/>
      <point x="377" y="-80"/>
      <point x="453" y="-80" type="curve"/>
      <point x="407" y="-63"/>
      <point x="369" y="-17"/>
      <point x="369" y="43" type="curve" smooth="yes"/>
      <point x="369" y="114"/>
      <point x="424" y="178"/>
      <point x="494" y="178" type="curve"/>
      <point x="480" y="162"/>
      <point x="472" y="138"/>
      <point x="472" y="109" type="curve" smooth="yes"/>
      <point x="472" y="71"/>
      <point x="501" y="38"/>
      <point x="538" y="38" type="curve" smooth="yes"/>
      <point x="583" y="38"/>
      <point x="606" y="103"/>
      <point x="606" y="153" type="curve" smooth="yes"/>
      <point x="606" y="274"/>
      <point x="476" y="355"/>
      <point x="336" y="355" type="curve" smooth="yes"/>
      <point x="200" y="355"/>
      <point x="67" y="276"/>
      <point x="67" y="156" type="curve" smooth="yes"/>
      <point x="67" y="96"/>
      <point x="100" y="46"/>
      <point x="143" y="28" type="curve"/>
      <point x="125" y="45"/>
      <point x="110" y="72"/>
      <point x="110" y="105" type="curve" smooth="yes"/>
      <point x="110" y="161"/>
      <point x="156" y="208"/>
      <point x="212" y="208" type="curve" smooth="yes"/>
      <point x="272" y="208"/>
      <point x="324" y="160"/>
      <point x="324" y="100" type="curve" smooth="yes"/>
      <point x="324" y="37"/>
      <point x="266" y="-10"/>
      <point x="201" y="-10" type="curve" smooth="yes"/>
      <point x="111" y="-10"/>
    </contour>
    <contour>
      <point x="140" y="136"/>
      <point x="140" y="99" type="curve" smooth="yes"/>
      <point x="140" y="62"/>
      <point x="160" y="20"/>
      <point x="195" y="20" type="curve" smooth="yes"/>
      <point x="229" y="20"/>
      <point x="249" y="62"/>
      <point x="249" y="99" type="curve" smooth="yes"/>
      <point x="249" y="136"/>
      <point x="229" y="178"/>
      <point x="195" y="178" type="curve" smooth="yes"/>
      <point x="160" y="178"/>
    </contour>
    <contour>
      <point x="185" y="-118"/>
      <point x="185" y="-141" type="curve" smooth="yes"/>
      <point x="185" y="-164"/>
      <point x="202" y="-185"/>
      <point x="225" y="-185" type="curve" smooth="yes"/>
      <point x="249" y="-185"/>
      <point x="269" y="-165"/>
      <point x="269" y="-141" type="curve" smooth="yes"/>
      <point x="269" y="-117"/>
      <point x="249" y="-97"/>
      <point x="225" y="-97" type="curve" smooth="yes"/>
      <point x="202" y="-97"/>
    </contour>
  </outline>
</glyph>
<glyph name="au-tamil" format="2">
	<advance width="1831"/>
	<unicode hex="0B94"/>
	<anchor x="1723" y="560" name="MatraIi"/>
	<anchor x="943" y="228" name="MatraAi.alt"/>
	<anchor x="1709" y="560" name="MatraI.alt2"/>
	<anchor x="1359" y="669" name="tm_halant"/>
	<outline>
		<contour>
			<point x="1249" y="173" type="curve" smooth="yes"/>
			<point x="1249" y="55"/>
			<point x="1193" y="-23"/>
			<point x="1101" y="-23" type="curve" smooth="yes"/>
			<point x="1000" y="-23"/>
			<point x="942" y="89"/>
			<point x="942" y="243" type="curve" smooth="yes"/>
			<point x="942" y="445"/>
			<point x="1029" y="572"/>
			<point x="1177" y="572" type="curve" smooth="yes"/>
			<point x="1302" y="572"/>
			<point x="1394" y="450"/>
			<point x="1394" y="248" type="curve"/>
			<point x="1324" y="264" type="line"/>
			<point x="1324" y="404"/>
			<point x="1267" y="492"/>
			<point x="1178" y="492" type="curve" smooth="yes"/>
			<point x="1077" y="492"/>
			<point x="1026" y="386"/>
			<point x="1026" y="250" type="curve" smooth="yes"/>
			<point x="1026" y="156"/>
			<point x="1044" y="59"/>
			<point x="1102" y="59" type="curve" smooth="yes"/>
			<point x="1152" y="59"/>
			<point x="1167" y="123"/>
			<point x="1167" y="176" type="curve" smooth="yes"/>
			<point x="1167" y="252"/>
			<point x="1137" y="291"/>
			<point x="1103" y="291" type="curve" smooth="yes"/>
			<point x="1053" y="291"/>
			<point x="1028" y="235"/>
			<point x="1033" y="161" type="curve"/>
			<point x="981" y="188" type="line"/>
			<point x="981" y="268"/>
			<point x="1030" y="360"/>
			<point x="1110" y="360" type="curve" smooth="yes"/>
			<point x="1183" y="360"/>
			<point x="1249" y="295"/>
		</contour>
		<contour>
			<point x="1413" y="1" type="line"/>
			<point x="1324" y="1" type="line"/>
			<point x="1324" y="456" type="line"/>
			<point x="1335" y="464" type="line"/>
			<point x="1335" y="560" type="line"/>
			<point x="1781" y="560" type="line"/>
			<point x="1781" y="478" type="line"/>
			<point x="1668" y="478" type="line"/>
			<point x="1668" y="1" type="line"/>
			<point x="1580" y="1" type="line"/>
			<point x="1580" y="478" type="line"/>
			<point x="1413" y="478" type="line"/>
		</contour>
		<component base="o-sinhala"/>
	</outline>
</glyph>
<glyph name="taKa" format="1">
  <advance width="566"/>
  <unicode hex="0B95"/>
  <outline>
    <contour>
      <point x="24" y="59"/>
      <point x="24" y="125" type="curve" smooth="yes"/>
      <point x="24" y="182"/>
      <point x="66" y="215"/>
      <point x="120" y="215" type="curve" smooth="yes"/>
      <point x="144" y="215" type="line"/>
      <point x="144" y="400" type="line"/>
      <point x="471" y="400" type="line"/>
      <point x="471" y="370" type="line"/>
      <point x="357" y="370" type="line"/>
      <point x="357" y="215" type="line"/>
      <point x="426" y="215" type="line" smooth="yes"/>
      <point x="508" y="215"/>
      <point x="536" y="169"/>
      <point x="536" y="114" type="curve" smooth="yes"/>
      <point x="536" y="24"/>
      <point x="485" y="0"/>
      <point x="389" y="0" type="curve"/>
      <point x="389" y="28" type="line"/>
      <point x="446" y="28"/>
      <point x="461" y="63"/>
      <point x="461" y="113" type="curve" smooth="yes"/>
      <point x="461" y="149"/>
      <point x="444" y="185"/>
      <point x="393" y="185" type="curve" smooth="yes"/>
      <point x="357" y="185" type="line"/>
      <point x="357" y="131" type="line" smooth="yes"/>
      <point x="357" y="30"/>
      <point x="272" y="-2"/>
      <point x="182" y="-2" type="curve" smooth="yes"/>
      <point x="87" y="-2"/>
    </contour>
    <contour>
      <point x="53" y="166"/>
      <point x="53" y="124" type="curve" smooth="yes"/>
      <point x="53" y="78"/>
      <point x="103" y="28"/>
      <point x="177" y="28" type="curve" smooth="yes"/>
      <point x="245" y="28"/>
      <point x="285" y="76"/>
      <point x="285" y="139" type="curve" smooth="yes"/>
      <point x="285" y="185" type="line"/>
      <point x="113" y="185" type="line" smooth="yes"/>
      <point x="81" y="185"/>
    </contour>
    <contour>
      <point x="174" y="370" type="line"/>
      <point x="174" y="215" type="line"/>
      <point x="285" y="215" type="line"/>
      <point x="285" y="370" type="line"/>
    </contour>
    <contour>
      <point x="314" y="446" type="move" name="tm_halant"/>
    </contour>
  </outline>
</glyph>
<glyph name="nga-tamil" format="2">
	<advance width="1138"/>
	<unicode hex="0B99"/>
	<outline>
		<contour>
			<point x="862" y="80" type="line"/>
			<point x="916" y="80"/>
			<point x="946" y="126"/>
			<point x="946" y="200" type="curve"/>
			<point x="946" y="712" type="line"/>
			<point x="1042" y="712" type="line"/>
			<point x="1042" y="200" type="line"/>
			<point x="1042" y="53"/>
			<point x="976" y="-16"/>
			<point x="862" y="-16" type="curve"/>
			<point x="601" y="-16" type="line"/>
			<point x="601" y="80" type="line"/>
		</contour>
		<contour>
			<point x="278.27" y="286.958" type="curve" smooth="yes"/>
			<point x="275.169" y="286.958"/>
			<point x="271.93" y="287.081"/>
			<point x="268.896" y="287.081" type="curve" smooth="yes"/>
			<point x="202" y="287.081"/>
			<point x="165.215" y="256.494"/>
			<point x="165.215" y="199.321" type="curve" smooth="yes"/>
			<point x="165.215" y="130.755"/>
			<point x="232.639" y="86.9092"/>
			<point x="283.115" y="86.9092" type="curve" smooth="yes"/>
			<point x="338.444" y="86.9092"/>
			<point x="371.704" y="112.901"/>
			<point x="395" y="156" type="curve"/>
			<point x="486" y="157" type="line"/>
			<point x="503.512" y="121.977"/>
			<point x="546.058" y="87.6484"/>
			<point x="599.14" y="87.6484" type="curve" smooth="yes"/>
			<point x="690.542" y="87.6484"/>
			<point x="745.087" y="186.035"/>
			<point x="745.087" y="266.169" type="curve" smooth="yes"/>
			<point x="745.087" y="330.379"/>
			<point x="703.678" y="397.886"/>
			<point x="637.277" y="397.886" type="curve" smooth="yes"/>
			<point x="616.75" y="397.886"/>
			<point x="597.046" y="388.984"/>
			<point x="583" y="366" type="curve"/>
			<point x="583" y="366"/>
			<point x="504" y="366"/>
			<point x="481" y="366" type="curve"/>
			<point x="500" y="450"/>
			<point x="577" y="697"/>
			<point x="608" y="769" type="curve"/>
			<point x="434" y="769" type="line"/>
			<point x="374" y="769"/>
			<point x="323" y="763"/>
			<point x="323" y="707" type="curve" smooth="yes"/>
			<point x="323" y="693"/>
			<point x="334" y="669"/>
			<point x="368" y="669" type="curve" smooth="yes"/>
			<point x="400" y="669"/>
			<point x="409" y="680"/>
			<point x="427" y="696" type="curve"/>
			<point x="463" y="635" type="line"/>
			<point x="441" y="607"/>
			<point x="406" y="581"/>
			<point x="356" y="581" type="curve" smooth="yes"/>
			<point x="316" y="581"/>
			<point x="238" y="604"/>
			<point x="238" y="696" type="curve" smooth="yes"/>
			<point x="238" y="814"/>
			<point x="323" y="857"/>
			<point x="436" y="857" type="curve"/>
			<point x="746" y="857" type="line"/>
			<point x="706" y="772" type="line"/>
			<point x="692.022" y="738.72"/>
			<point x="647.748" y="597.321"/>
			<point x="613" y="480.452" type="curve"/>
			<point x="621.347" y="481.565"/>
			<point x="629.796" y="482.097"/>
			<point x="638.26" y="482.097" type="curve" smooth="yes"/>
			<point x="764.478" y="482.097"/>
			<point x="842.951" y="385.016"/>
			<point x="842.951" y="271.164" type="curve" smooth="yes"/>
			<point x="842.951" y="110.098"/>
			<point x="744.88" y="-16.6924"/>
			<point x="598.39" y="-16.6924" type="curve" smooth="yes"/>
			<point x="536.233" y="-16.6924"/>
			<point x="481.136" y="12.5332"/>
			<point x="443" y="46" type="curve"/>
			<point x="397" y="3"/>
			<point x="345" y="-18"/>
			<point x="287" y="-18" type="curve" smooth="yes"/>
			<point x="174.207" y="-18"/>
			<point x="59.9492" y="71.2051"/>
			<point x="59.9492" y="189.908" type="curve" smooth="yes"/>
			<point x="59.9492" y="321.172"/>
			<point x="157" y="374.503"/>
			<point x="257.672" y="374.503" type="curve" smooth="yes"/>
			<point x="264.31" y="374.503"/>
			<point x="270.993" y="373.924"/>
			<point x="277.66" y="373.924" type="curve" smooth="yes"/>
			<point x="315" y="373.924"/>
			<point x="339.193" y="406.184"/>
			<point x="339.193" y="442.247" type="curve" smooth="yes"/>
			<point x="339.193" y="498.792"/>
			<point x="264.955" y="519.105"/>
			<point x="199.397" y="519.105" type="curve" smooth="yes"/>
			<point x="155.7" y="519.105"/>
			<point x="118.476" y="502.223"/>
			<point x="118.476" y="467.782" type="curve" smooth="yes"/>
			<point x="118.476" y="446.005"/>
			<point x="134.215" y="431.933"/>
			<point x="155.211" y="431.933" type="curve" smooth="yes"/>
			<point x="177.439" y="431.933"/>
			<point x="193.785" y="443.518"/>
			<point x="193.785" y="469.109" type="curve" smooth="yes"/>
			<point x="193.785" y="491.771"/>
			<point x="169" y="513"/>
			<point x="147" y="509" type="curve"/>
			<point x="185" y="548" type="line"/>
			<point x="227" y="538"/>
			<point x="256.728" y="504.032"/>
			<point x="256.728" y="467.374" type="curve" smooth="yes"/>
			<point x="256.728" y="394.145"/>
			<point x="200.74" y="369"/>
			<point x="147" y="369" type="curve" smooth="yes"/>
			<point x="102.367" y="369"/>
			<point x="48.4141" y="408.086"/>
			<point x="48.4141" y="462.222" type="curve" smooth="yes"/>
			<point x="48.4141" y="549.452"/>
			<point x="132.834" y="596.247"/>
			<point x="220.978" y="596.247" type="curve" smooth="yes"/>
			<point x="336.944" y="596.247"/>
			<point x="428.092" y="540.85"/>
			<point x="428.092" y="424.584" type="curve" smooth="yes"/>
			<point x="428.092" y="339.451"/>
			<point x="354" y="286.958"/>
		</contour>
	</outline>
</glyph>
<glyph name="taNga" format="1">
  <advance width="769"/>
  <unicode hex="0B99"/>
  <outline>
    <contour>
      <point x="103" y="0" type="line"/>
      <point x="73" y="0" type="line"/>
      <point x="73" y="400" type="line"/>
      <point x="504" y="400" type="line"/>
      <point x="504" y="370" type="line"/>
      <point x="321" y="370" type="line"/>
      <point x="321" y="247" type="line"/>
      <point x="342" y="261"/>
      <point x="372" y="270"/>
      <point x="407" y="270" type="curve" smooth="yes"/>
      <point x="486" y="270"/>
      <point x="536" y="216"/>
      <point x="536" y="137" type="curve" smooth="yes"/>
      <point x="536" y="86"/>
      <point x="497" y="46"/>
      <point x="457" y="30" type="curve"/>
      <point x="624" y="30" type="line"/>
      <point x="624" y="400" type="line"/>
      <point x="696" y="400" type="line"/>
      <point x="696" y="0" type="line"/>
      <point x="246" y="0" type="line"/>
      <point x="246" y="30" type="line"/>
      <point x="397" y="30" type="line"/>
      <point x="431" y="49"/>
      <point x="461" y="87"/>
      <point x="461" y="137" type="curve" smooth="yes"/>
      <point x="461" y="189"/>
      <point x="428" y="240"/>
      <point x="379" y="240" type="curve" smooth="yes"/>
      <point x="353" y="240"/>
      <point x="334" y="227"/>
      <point x="321" y="212" type="curve"/>
      <point x="321" y="110" type="line"/>
      <point x="249" y="110" type="line"/>
      <point x="249" y="370" type="line"/>
      <point x="103" y="370" type="line"/>
    </contour>
    <contour>
      <point x="284" y="446" type="move" name="tm_halant"/>
    </contour>
  </outline>
</glyph>
<glyph name="taCa" format="1">
  <advance width="504"/>
  <unicode hex="0B9A"/>
  <outline>
    <contour>
      <point x="26" y="53"/>
      <point x="26" y="137" type="curve" smooth="yes"/>
      <point x="26" y="187"/>
      <point x="68" y="215"/>
      <point x="121" y="215" type="curve" smooth="yes"/>
      <point x="135" y="215" type="line"/>
      <point x="135" y="400" type="line"/>
      <point x="493" y="400" type="line"/>
      <point x="493" y="370" type="line"/>
      <point x="358" y="370" type="line"/>
      <point x="358" y="215" type="line"/>
      <point x="493" y="215" type="line"/>
      <point x="493" y="185" type="line"/>
      <point x="358" y="185" type="line"/>
      <point x="358" y="137" type="line" smooth="yes"/>
      <point x="358" y="33"/>
      <point x="276" y="-2"/>
      <point x="163" y="-2" type="curve" smooth="yes"/>
      <point x="80" y="-2"/>
    </contour>
    <contour>
      <point x="165" y="370" type="line"/>
      <point x="165" y="215" type="line"/>
      <point x="286" y="215" type="line"/>
      <point x="286" y="370" type="line"/>
    </contour>
    <contour>
      <point x="56" y="168"/>
      <point x="56" y="137" type="curve" smooth="yes"/>
      <point x="56" y="71"/>
      <point x="99" y="28"/>
      <point x="164" y="28" type="curve" smooth="yes"/>
      <point x="236" y="28"/>
      <point x="286" y="70"/>
      <point x="286" y="137" type="curve" smooth="yes"/>
      <point x="286" y="185" type="line"/>
      <point x="114" y="185" type="line" smooth="yes"/>
      <point x="82" y="185"/>
    </contour>
    <contour>
      <point x="314" y="446" type="move" name="tm_halant"/>
    </contour>
  </outline>
</glyph>
<glyph name="taJa" format="1">
  <advance width="718"/>
  <unicode hex="0B9C"/>
  <outline>
    <contour>
      <point x="25" y="-162"/>
      <point x="25" y="-64" type="curve" smooth="yes"/>
      <point x="25" y="24"/>
      <point x="118" y="80"/>
      <point x="210" y="80" type="curve" smooth="yes"/>
      <point x="478" y="80" type="line" smooth="yes"/>
      <point x="554" y="80"/>
      <point x="609" y="152"/>
      <point x="609" y="231" type="curve" smooth="yes"/>
      <point x="609" y="296"/>
      <point x="572" y="368"/>
      <point x="511" y="368" type="curve" smooth="yes"/>
      <point x="461" y="368"/>
      <point x="423" y="322"/>
      <point x="423" y="271" type="curve" smooth="yes"/>
      <point x="423" y="138" type="line"/>
      <point x="348" y="138" type="line"/>
      <point x="348" y="259" type="line" smooth="yes"/>
      <point x="348" y="327"/>
      <point x="263" y="368"/>
      <point x="189" y="368" type="curve" smooth="yes"/>
      <point x="125" y="368"/>
      <point x="64" y="324"/>
      <point x="64" y="262" type="curve" smooth="yes"/>
      <point x="64" y="212"/>
      <point x="90" y="158"/>
      <point x="133" y="154" type="curve"/>
      <point x="108" y="163"/>
      <point x="96" y="195"/>
      <point x="96" y="229" type="curve" smooth="yes"/>
      <point x="96" y="286"/>
      <point x="131" y="325"/>
      <point x="188" y="325" type="curve" smooth="yes"/>
      <point x="246" y="325"/>
      <point x="280" y="283"/>
      <point x="280" y="225" type="curve" smooth="yes"/>
      <point x="280" y="164"/>
      <point x="232" y="127"/>
      <point x="168" y="127" type="curve" smooth="yes"/>
      <point x="88" y="127"/>
      <point x="34" y="179"/>
      <point x="34" y="258" type="curve" smooth="yes"/>
      <point x="34" y="341"/>
      <point x="120" y="398"/>
      <point x="207" y="398" type="curve" smooth="yes"/>
      <point x="291" y="398"/>
      <point x="365" y="370"/>
      <point x="397" y="320" type="curve"/>
      <point x="414" y="365"/>
      <point x="464" y="398"/>
      <point x="527" y="398" type="curve" smooth="yes"/>
      <point x="616" y="398"/>
      <point x="684" y="318"/>
      <point x="684" y="228" type="curve" smooth="yes"/>
      <point x="684" y="127"/>
      <point x="590" y="50"/>
      <point x="477" y="50" type="curve" smooth="yes"/>
      <point x="215" y="50" type="line" smooth="yes"/>
      <point x="152" y="50"/>
      <point x="100" y="-2"/>
      <point x="100" y="-64" type="curve" smooth="yes"/>
      <point x="100" y="-127"/>
      <point x="144" y="-188"/>
      <point x="205" y="-188" type="curve" smooth="yes"/>
      <point x="251" y="-188"/>
      <point x="313" y="-136"/>
      <point x="358" y="-88" type="curve" smooth="yes"/>
      <point x="405" y="-37"/>
      <point x="472" y="4"/>
      <point x="541" y="4" type="curve" smooth="yes"/>
      <point x="621" y="4"/>
      <point x="684" y="-37"/>
      <point x="684" y="-114" type="curve" smooth="yes"/>
      <point x="684" y="-189"/>
      <point x="618" y="-228"/>
      <point x="539" y="-228" type="curve" smooth="yes"/>
      <point x="488" y="-228"/>
      <point x="447" y="-208"/>
      <point x="421" y="-181" type="curve"/>
      <point x="436" y="-157" type="line"/>
      <point x="462" y="-179"/>
      <point x="497" y="-198"/>
      <point x="539" y="-198" type="curve" smooth="yes"/>
      <point x="580" y="-198"/>
      <point x="609" y="-155"/>
      <point x="609" y="-113" type="curve" smooth="yes"/>
      <point x="609" y="-68"/>
      <point x="576" y="-26"/>
      <point x="531" y="-26" type="curve" smooth="yes"/>
      <point x="486" y="-26"/>
      <point x="431" y="-58"/>
      <point x="366" y="-122" type="curve" smooth="yes"/>
      <point x="301" y="-186"/>
      <point x="246" y="-218"/>
      <point x="201" y="-218" type="curve" smooth="yes"/>
      <point x="100" y="-218"/>
    </contour>
    <contour>
      <point x="126" y="260"/>
      <point x="126" y="229" type="curve" smooth="yes"/>
      <point x="126" y="197"/>
      <point x="141" y="157"/>
      <point x="170" y="157" type="curve" smooth="yes"/>
      <point x="199" y="157"/>
      <point x="217" y="194"/>
      <point x="217" y="225" type="curve" smooth="yes"/>
      <point x="217" y="256"/>
      <point x="201" y="295"/>
      <point x="173" y="295" type="curve" smooth="yes"/>
      <point x="144" y="295"/>
    </contour>
    <contour>
      <point x="382" y="446" type="move" name="tm_halant"/>
    </contour>
  </outline>
</glyph>
<glyph name="taNya" format="1">
  <advance width="928"/>
  <unicode hex="0B9E"/>
  <outline>
    <contour>
      <point x="195" y="-259"/>
      <point x="35" y="-79"/>
      <point x="35" y="146" type="curve" smooth="yes"/>
      <point x="35" y="258"/>
      <point x="86" y="348"/>
      <point x="146" y="410" type="curve"/>
      <point x="166" y="390" type="line"/>
      <point x="121" y="352"/>
      <point x="65" y="249"/>
      <point x="65" y="145" type="curve" smooth="yes"/>
      <point x="65" y="-61"/>
      <point x="209" y="-226"/>
      <point x="487" y="-226" type="curve" smooth="yes"/>
      <point x="682" y="-226"/>
      <point x="806" y="-122"/>
      <point x="806" y="79" type="curve" smooth="yes"/>
      <point x="806" y="168"/>
      <point x="772" y="212"/>
      <point x="717" y="212" type="curve" smooth="yes"/>
      <point x="703" y="212"/>
      <point x="690" y="208"/>
      <point x="679" y="200" type="curve"/>
      <point x="679" y="228" type="line"/>
      <point x="700" y="237"/>
      <point x="717" y="242"/>
      <point x="751" y="242" type="curve" smooth="yes"/>
      <point x="828" y="242"/>
      <point x="901" y="194"/>
      <point x="901" y="77" type="curve" smooth="yes"/>
      <point x="901" y="-154"/>
      <point x="703" y="-259"/>
      <point x="487" y="-259" type="curve" smooth="yes"/>
    </contour>
    <component base="taE" xOffset="110"/>
    <contour>
      <point x="636" y="446" type="move" name="tm_halant"/>
    </contour>
  </outline>
</glyph>
<glyph name="taTta" format="1">
  <advance width="649"/>
  <unicode hex="0B9F"/>
  <outline>
    <contour>
      <point x="639" y="0" type="line"/>
      <point x="70" y="0" type="line"/>
      <point x="70" y="400" type="line"/>
      <point x="145" y="400" type="line"/>
      <point x="145" y="30" type="line"/>
      <point x="639" y="30" type="line"/>
    </contour>
    <contour>
      <point x="414" y="446" type="move" name="tm_halant"/>
    </contour>
  </outline>
</glyph>
<glyph name="taNna" format="1">
  <advance width="1175"/>
  <unicode hex="0BA3"/>
  <outline>
    <contour>
      <point x="39" y="82"/>
      <point x="39" y="173" type="curve" smooth="yes"/>
      <point x="39" y="317"/>
      <point x="154" y="399"/>
      <point x="302" y="399" type="curve" smooth="yes"/>
      <point x="380" y="399"/>
      <point x="454" y="385"/>
      <point x="495" y="350" type="curve"/>
      <point x="530" y="379"/>
      <point x="579" y="400"/>
      <point x="639" y="400" type="curve" smooth="yes"/>
      <point x="700" y="400"/>
      <point x="751" y="384"/>
      <point x="785" y="357" type="curve"/>
      <point x="823" y="386"/>
      <point x="863" y="400"/>
      <point x="906" y="400" type="curve" smooth="yes"/>
      <point x="1169" y="400" type="line"/>
      <point x="1169" y="369" type="line"/>
      <point x="1061" y="369" type="line"/>
      <point x="1061" y="0" type="line"/>
      <point x="986" y="0" type="line"/>
      <point x="986" y="369" type="line"/>
      <point x="928" y="369" type="line" smooth="yes"/>
      <point x="879" y="369"/>
      <point x="836" y="357"/>
      <point x="809" y="335" type="curve"/>
      <point x="856" y="289"/>
      <point x="895" y="223"/>
      <point x="895" y="137" type="curve" smooth="yes"/>
      <point x="895" y="60"/>
      <point x="860" y="-6"/>
      <point x="787" y="-6" type="curve" smooth="yes"/>
      <point x="715" y="-6"/>
      <point x="680" y="60"/>
      <point x="680" y="137" type="curve" smooth="yes"/>
      <point x="680" y="212"/>
      <point x="708" y="272"/>
      <point x="744" y="315" type="curve"/>
      <point x="725" y="347"/>
      <point x="684" y="369"/>
      <point x="633" y="369" type="curve" smooth="yes"/>
      <point x="587" y="369"/>
      <point x="550" y="352"/>
      <point x="523" y="330" type="curve"/>
      <point x="571" y="287"/>
      <point x="612" y="221"/>
      <point x="612" y="137" type="curve" smooth="yes"/>
      <point x="612" y="58"/>
      <point x="572" y="-6"/>
      <point x="497" y="-6" type="curve" smooth="yes"/>
      <point x="422" y="-6"/>
      <point x="383" y="58"/>
      <point x="383" y="137" type="curve" smooth="yes"/>
      <point x="383" y="212"/>
      <point x="415" y="270"/>
      <point x="454" y="312" type="curve"/>
      <point x="415" y="347"/>
      <point x="355" y="369"/>
      <point x="283" y="369" type="curve" smooth="yes"/>
      <point x="224" y="369"/>
      <point x="173" y="350"/>
      <point x="132" y="312" type="curve" smooth="yes"/>
      <point x="90" y="274"/>
      <point x="69" y="228"/>
      <point x="69" y="175" type="curve" smooth="yes"/>
      <point x="69" y="112"/>
      <point x="93" y="56"/>
      <point x="136" y="39" type="curve"/>
      <point x="121" y="57"/>
      <point x="111" y="84"/>
      <point x="111" y="118" type="curve" smooth="yes"/>
      <point x="111" y="182"/>
      <point x="148" y="229"/>
      <point x="211" y="229" type="curve" smooth="yes"/>
      <point x="271" y="229"/>
      <point x="320" y="180"/>
      <point x="320" y="120" type="curve" smooth="yes"/>
      <point x="320" y="43"/>
      <point x="269" y="-6"/>
      <point x="191" y="-6" type="curve" smooth="yes"/>
      <point x="102" y="-6"/>
    </contour>
    <contour>
      <point x="710" y="201"/>
      <point x="710" y="137" type="curve" smooth="yes"/>
      <point x="710" y="95"/>
      <point x="730" y="44"/>
      <point x="768" y="44" type="curve" smooth="yes"/>
      <point x="804" y="44"/>
      <point x="820" y="97"/>
      <point x="820" y="137" type="curve" smooth="yes"/>
      <point x="820" y="201"/>
      <point x="798" y="254"/>
      <point x="765" y="288" type="curve"/>
      <point x="733" y="255"/>
    </contour>
    <contour>
      <point x="413" y="201"/>
      <point x="413" y="137" type="curve" smooth="yes"/>
      <point x="413" y="94"/>
      <point x="435" y="44"/>
      <point x="474" y="44" type="curve" smooth="yes"/>
      <point x="514" y="44"/>
      <point x="537" y="93"/>
      <point x="537" y="137" type="curve" smooth="yes"/>
      <point x="537" y="202"/>
      <point x="511" y="254"/>
      <point x="478" y="289" type="curve"/>
      <point x="444" y="251"/>
    </contour>
    <contour>
      <point x="141" y="152"/>
      <point x="141" y="117" type="curve" smooth="yes"/>
      <point x="141" y="82"/>
      <point x="160" y="44"/>
      <point x="193" y="44" type="curve" smooth="yes"/>
      <point x="226" y="44"/>
      <point x="245" y="83"/>
      <point x="245" y="118" type="curve" smooth="yes"/>
      <point x="245" y="152"/>
      <point x="225" y="189"/>
      <point x="193" y="189" type="curve" smooth="yes"/>
      <point x="160" y="189"/>
    </contour>
    <contour>
      <point x="614" y="446" type="move" name="tm_halant"/>
    </contour>
  </outline>
</glyph>
<glyph name="taTa" format="1">
  <advance width="583"/>
  <unicode hex="0BA4"/>
  <outline>
    <contour>
      <point x="18" y="-193"/>
      <point x="18" y="-164" type="curve" smooth="yes"/>
      <point x="18" y="-104"/>
      <point x="81" y="-68"/>
      <point x="145" y="-68" type="curve" smooth="yes"/>
      <point x="322" y="-68" type="line" smooth="yes"/>
      <point x="412" y="-68"/>
      <point x="481" y="3"/>
      <point x="481" y="88" type="curve" smooth="yes"/>
      <point x="481" y="136"/>
      <point x="453" y="185"/>
      <point x="387" y="185" type="curve" smooth="yes"/>
      <point x="357" y="185" type="line"/>
      <point x="357" y="131" type="line" smooth="yes"/>
      <point x="357" y="30"/>
      <point x="271" y="-2"/>
      <point x="186" y="-2" type="curve" smooth="yes"/>
      <point x="95" y="-2"/>
      <point x="24" y="53"/>
      <point x="24" y="131" type="curve" smooth="yes"/>
      <point x="24" y="187"/>
      <point x="64" y="215"/>
      <point x="108" y="215" type="curve" smooth="yes"/>
      <point x="144" y="215" type="line"/>
      <point x="144" y="400" type="line"/>
      <point x="491" y="400" type="line"/>
      <point x="491" y="370" type="line"/>
      <point x="357" y="370" type="line"/>
      <point x="357" y="215" type="line"/>
      <point x="411" y="215" type="line" smooth="yes"/>
      <point x="498" y="215"/>
      <point x="556" y="160"/>
      <point x="556" y="85" type="curve" smooth="yes"/>
      <point x="556" y="-36"/>
      <point x="451" y="-98"/>
      <point x="324" y="-98" type="curve" smooth="yes"/>
      <point x="155" y="-98" type="line" smooth="yes"/>
      <point x="132" y="-98"/>
      <point x="102" y="-107"/>
      <point x="102" y="-131" type="curve" smooth="yes"/>
      <point x="102" y="-150"/>
      <point x="111" y="-160"/>
      <point x="111" y="-180" type="curve" smooth="yes"/>
      <point x="111" y="-205"/>
      <point x="90" y="-218"/>
      <point x="67" y="-218" type="curve" smooth="yes"/>
      <point x="34" y="-218"/>
    </contour>
    <contour>
      <point x="174" y="370" type="line"/>
      <point x="174" y="215" type="line"/>
      <point x="285" y="215" type="line"/>
      <point x="285" y="370" type="line"/>
    </contour>
    <contour>
      <point x="53" y="165"/>
      <point x="53" y="132" type="curve" smooth="yes"/>
      <point x="53" y="71"/>
      <point x="109" y="28"/>
      <point x="182" y="28" type="curve" smooth="yes"/>
      <point x="246" y="28"/>
      <point x="285" y="75"/>
      <point x="285" y="138" type="curve" smooth="yes"/>
      <point x="285" y="187" type="line"/>
      <point x="103" y="188" type="line" smooth="yes"/>
      <point x="73" y="188"/>
    </contour>
    <contour>
      <point x="314" y="446" type="move" name="tm_halant"/>
    </contour>
  </outline>
</glyph>
<glyph name="taNa" format="1">
  <advance width="562"/>
  <unicode hex="0BA8"/>
  <outline>
    <contour>
      <point x="34" y="-197"/>
      <point x="34" y="-169" type="curve" smooth="yes"/>
      <point x="34" y="-112"/>
      <point x="84" y="-68"/>
      <point x="141" y="-68" type="curve" smooth="yes"/>
      <point x="315" y="-68" type="line" smooth="yes"/>
      <point x="417" y="-68"/>
      <point x="451" y="-3"/>
      <point x="451" y="105" type="curve" smooth="yes"/>
      <point x="451" y="158"/>
      <point x="420" y="217"/>
      <point x="370" y="217" type="curve" smooth="yes"/>
      <point x="350" y="217"/>
      <point x="333" y="206"/>
      <point x="321" y="194" type="curve"/>
      <point x="321" y="0" type="line"/>
      <point x="249" y="0" type="line"/>
      <point x="249" y="370" type="line"/>
      <point x="100" y="370" type="line"/>
      <point x="100" y="0" type="line"/>
      <point x="70" y="0" type="line"/>
      <point x="70" y="400" type="line"/>
      <point x="504" y="400" type="line"/>
      <point x="504" y="370" type="line"/>
      <point x="321" y="370" type="line"/>
      <point x="321" y="230" type="line"/>
      <point x="337" y="242"/>
      <point x="362" y="247"/>
      <point x="392" y="247" type="curve" smooth="yes"/>
      <point x="468" y="247"/>
      <point x="526" y="180"/>
      <point x="526" y="103" type="curve" smooth="yes"/>
      <point x="526" y="-27"/>
      <point x="444" y="-98"/>
      <point x="312" y="-98" type="curve" smooth="yes"/>
      <point x="137" y="-98" type="line" smooth="yes"/>
      <point x="108" y="-98"/>
      <point x="74" y="-111"/>
      <point x="74" y="-137" type="curve"/>
      <point x="78" y="-137"/>
      <point x="89" y="-135"/>
      <point x="89" y="-135" type="curve" smooth="yes"/>
      <point x="113" y="-135"/>
      <point x="129" y="-157"/>
      <point x="129" y="-181" type="curve" smooth="yes"/>
      <point x="129" y="-204"/>
      <point x="107" y="-220"/>
      <point x="83" y="-220" type="curve" smooth="yes"/>
      <point x="56" y="-220"/>
    </contour>
    <contour>
      <point x="284" y="436" type="move" name="tm_halant"/>
    </contour>
  </outline>
</glyph>
<glyph name="nnna-tamil" format="2">
	<advance width="1000"/>
	<unicode hex="0BA9"/>
	<anchor x="907" y="561" name="MatraIi"/>
	<anchor x="43" y="228" name="MatraAi.alt"/>
	<anchor x="601" y="554" name="MatraIi.alt2"/>
	<anchor x="872" y="561" name="MatraI.alt2"/>
	<anchor x="584" y="543" name="MatraI.alt5"/>
	<anchor x="523" y="669" name="tm_halant"/>
	<outline>
		<contour>
			<point x="533" y="-23" type="curve" smooth="yes"/>
			<point x="638" y="-23"/>
			<point x="681" y="59"/>
			<point x="681" y="214" type="curve" smooth="yes"/>
			<point x="681" y="470"/>
			<point x="517" y="572"/>
			<point x="362" y="572" type="curve"/>
			<point x="362" y="491" type="line"/>
			<point x="464" y="491"/>
			<point x="593" y="426"/>
			<point x="593" y="213" type="curve" smooth="yes"/>
			<point x="593" y="128"/>
			<point x="576" y="59"/>
			<point x="533" y="59" type="curve" smooth="yes"/>
			<point x="490" y="59"/>
			<point x="470" y="134"/>
			<point x="470" y="214" type="curve" smooth="yes"/>
			<point x="470" y="374"/>
			<point x="525" y="479"/>
			<point x="661" y="479" type="curve" smooth="yes"/>
			<point x="745" y="479" type="line"/>
			<point x="745" y="1" type="line"/>
			<point x="834" y="1" type="line"/>
			<point x="834" y="479" type="line"/>
			<point x="940" y="479" type="line"/>
			<point x="940" y="561" type="line"/>
			<point x="669" y="561" type="line" smooth="yes"/>
			<point x="477" y="561"/>
			<point x="381" y="425"/>
			<point x="381" y="214" type="curve" smooth="yes"/>
			<point x="381" y="61"/>
			<point x="431" y="-23"/>
		</contour>
		<contour>
			<point x="201" y="-22" type="curve" smooth="yes"/>
			<point x="295" y="-22"/>
			<point x="352" y="55"/>
			<point x="352" y="174" type="curve" smooth="yes"/>
			<point x="352" y="309"/>
			<point x="277" y="367"/>
			<point x="208" y="367" type="curve" smooth="yes"/>
			<point x="119" y="367"/>
			<point x="80" y="274"/>
			<point x="64" y="203" type="curve"/>
			<point x="135" y="148" type="line"/>
			<point x="125" y="226"/>
			<point x="156" y="284"/>
			<point x="203" y="284" type="curve" smooth="yes"/>
			<point x="237" y="284"/>
			<point x="267" y="247"/>
			<point x="267" y="176" type="curve" smooth="yes"/>
			<point x="267" y="123"/>
			<point x="252" y="60"/>
			<point x="202" y="60" type="curve" smooth="yes"/>
			<point x="144" y="60"/>
			<point x="126" y="157"/>
			<point x="126" y="251" type="curve" smooth="yes"/>
			<point x="126" y="386"/>
			<point x="196" y="491"/>
			<point x="345" y="491" type="curve"/>
			<point x="345" y="572" type="line"/>
			<point x="156" y="571"/>
			<point x="42" y="445"/>
			<point x="42" y="243" type="curve" smooth="yes"/>
			<point x="42" y="90"/>
			<point x="100" y="-22"/>
		</contour>
		<contour>
			<point x="345" y="491" type="line"/>
			<point x="364" y="491" type="line"/>
			<point x="364" y="572" type="line"/>
			<point x="345" y="572" type="line"/>
		</contour>
	</outline>
</glyph>
<glyph name="taNnna" format="1">
  <advance width="882"/>
  <unicode hex="0BA9"/>
  <outline>
    <contour>
      <point x="134" y="154"/>
      <point x="134" y="117" type="curve" smooth="yes"/>
      <point x="134" y="67"/>
      <point x="161" y="24"/>
      <point x="200" y="24" type="curve" smooth="yes"/>
      <point x="243" y="24"/>
      <point x="262" y="65"/>
      <point x="262" y="117" type="curve" smooth="yes"/>
      <point x="262" y="156"/>
      <point x="240" y="192"/>
      <point x="198" y="192" type="curve" smooth="yes"/>
      <point x="160" y="192"/>
    </contour>
    <contour>
      <point x="768" y="0" type="line"/>
      <point x="693" y="0" type="line"/>
      <point x="693" y="367" type="line"/>
      <point x="635" y="367" type="line" smooth="yes"/>
      <point x="508" y="367"/>
      <point x="413" y="283"/>
      <point x="413" y="139" type="curve" smooth="yes"/>
      <point x="413" y="99"/>
      <point x="431" y="49"/>
      <point x="468" y="49" type="curve" smooth="yes"/>
      <point x="504" y="49"/>
      <point x="522" y="100"/>
      <point x="522" y="139" type="curve" smooth="yes"/>
      <point x="522" y="279"/>
      <point x="432" y="369"/>
      <point x="282" y="367" type="curve" smooth="yes"/>
      <point x="165" y="365"/>
      <point x="67" y="293"/>
      <point x="67" y="172" type="curve" smooth="yes"/>
      <point x="67" y="110"/>
      <point x="95" y="44"/>
      <point x="141" y="30" type="curve"/>
      <point x="130" y="44"/>
      <point x="108" y="68"/>
      <point x="108" y="117" type="curve" smooth="yes"/>
      <point x="108" y="178"/>
      <point x="153" y="224"/>
      <point x="218" y="224" type="curve" smooth="yes"/>
      <point x="283" y="224"/>
      <point x="334" y="178"/>
      <point x="334" y="120" type="curve" smooth="yes"/>
      <point x="334" y="43"/>
      <point x="280" y="-5"/>
      <point x="201" y="-5" type="curve" smooth="yes"/>
      <point x="78" y="-5"/>
      <point x="37" y="91"/>
      <point x="37" y="170" type="curve" smooth="yes"/>
      <point x="37" y="308"/>
      <point x="154" y="397"/>
      <point x="295" y="397" type="curve" smooth="yes"/>
      <point x="465" y="397"/>
      <point x="597" y="296"/>
      <point x="597" y="139" type="curve" smooth="yes"/>
      <point x="597" y="63"/>
      <point x="554" y="-3"/>
      <point x="489" y="-3" type="curve" smooth="yes"/>
      <point x="424" y="-3"/>
      <point x="383" y="60"/>
      <point x="383" y="139" type="curve" smooth="yes"/>
      <point x="383" y="309"/>
      <point x="502" y="400"/>
      <point x="636" y="400" type="curve" smooth="yes"/>
      <point x="876" y="400" type="line"/>
      <point x="876" y="367" type="line"/>
      <point x="768" y="367" type="line"/>
    </contour>
    <contour>
      <point x="474" y="446" type="move" name="tm_halant"/>
    </contour>
  </outline>
</glyph>
<glyph name="taPa" format="1">
  <advance width="605"/>
  <unicode hex="0BAA"/>
  <outline>
    <contour>
      <point x="535" y="0" type="line"/>
      <point x="70" y="0" type="line"/>
      <point x="70" y="400" type="line"/>
      <point x="142" y="400" type="line"/>
      <point x="142" y="30" type="line"/>
      <point x="463" y="30" type="line"/>
      <point x="463" y="400" type="line"/>
      <point x="535" y="400" type="line"/>
    </contour>
    <contour>
      <point x="314" y="446" type="move" name="tm_halant"/>
    </contour>
  </outline>
</glyph>
<glyph name="taMa" format="1">
  <advance width="682"/>
  <unicode hex="0BAE"/>
  <outline>
    <contour>
      <point x="515" y="0" type="curve" smooth="yes"/>
      <point x="70" y="0" type="line"/>
      <point x="70" y="400" type="line"/>
      <point x="142" y="400" type="line"/>
      <point x="142" y="30" type="line"/>
      <point x="334" y="30" type="line"/>
      <point x="334" y="262" type="line" smooth="yes"/>
      <point x="334" y="346"/>
      <point x="382" y="401"/>
      <point x="467" y="401" type="curve" smooth="yes"/>
      <point x="576" y="401"/>
      <point x="636" y="295"/>
      <point x="636" y="178" type="curve" smooth="yes"/>
      <point x="636" y="86"/>
      <point x="599" y="0"/>
    </contour>
    <contour>
      <point x="406" y="275" type="curve" smooth="yes"/>
      <point x="406" y="30" type="line"/>
      <point x="505" y="30" type="line" smooth="yes"/>
      <point x="575" y="30"/>
      <point x="606" y="104"/>
      <point x="606" y="180" type="curve" smooth="yes"/>
      <point x="606" y="276"/>
      <point x="571" y="371"/>
      <point x="484" y="371" type="curve" smooth="yes"/>
      <point x="438" y="371"/>
      <point x="406" y="323"/>
    </contour>
    <contour>
      <point x="414" y="446" type="move" name="tm_halant"/>
    </contour>
  </outline>
</glyph>
<glyph name="taYa" format="1">
  <advance width="683"/>
  <unicode hex="0BAF"/>
  <outline>
    <contour>
      <point x="67" y="58"/>
      <point x="67" y="119" type="curve" smooth="yes"/>
      <point x="67" y="400" type="line"/>
      <point x="139" y="400" type="line"/>
      <point x="139" y="113" type="line" smooth="yes"/>
      <point x="139" y="76"/>
      <point x="157" y="31"/>
      <point x="191" y="31" type="curve" smooth="yes"/>
      <point x="225" y="31"/>
      <point x="244" y="75"/>
      <point x="244" y="112" type="curve" smooth="yes"/>
      <point x="244" y="400" type="line"/>
      <point x="316" y="400" type="line"/>
      <point x="316" y="30" type="line"/>
      <point x="541" y="30" type="line"/>
      <point x="541" y="400" type="line"/>
      <point x="613" y="400" type="line"/>
      <point x="613" y="0" type="line"/>
      <point x="261" y="0" type="line"/>
      <point x="261" y="66" type="line"/>
      <point x="252" y="28"/>
      <point x="212" y="1"/>
      <point x="164" y="1" type="curve" smooth="yes"/>
      <point x="106" y="1"/>
    </contour>
    <contour>
      <point x="274" y="446" type="move" name="tm_halant"/>
    </contour>
  </outline>
</glyph>
<glyph name="taRa" format="1">
  <advance width="450"/>
  <unicode hex="0BB0"/>
  <outline>
    <contour>
      <point x="63" y="-165" type="line"/>
      <point x="46" y="-142" type="line"/>
      <point x="257" y="10" type="line"/>
      <point x="323" y="1" type="line"/>
    </contour>
    <component base="taMatraAa"/>
    <contour>
      <point x="274" y="446" type="move" name="tm_halant"/>
    </contour>
  </outline>
</glyph>
<glyph name="taRra" format="1">
  <advance width="637"/>
  <unicode hex="0BB1"/>
  <outline>
    <contour>
      <point x="50" y="-197"/>
      <point x="50" y="-169" type="curve" smooth="yes"/>
      <point x="50" y="-114"/>
      <point x="97" y="-68"/>
      <point x="152" y="-68" type="curve" smooth="yes"/>
      <point x="359" y="-68" type="line" smooth="yes"/>
      <point x="456" y="-68"/>
      <point x="516" y="53"/>
      <point x="516" y="172" type="curve" smooth="yes"/>
      <point x="516" y="257"/>
      <point x="482" y="374"/>
      <point x="406" y="374" type="curve" smooth="yes"/>
      <point x="355" y="374"/>
      <point x="320" y="320"/>
      <point x="320" y="266" type="curve" smooth="yes"/>
      <point x="320" y="0" type="line"/>
      <point x="249" y="0" type="line"/>
      <point x="249" y="310" type="line" smooth="yes"/>
      <point x="249" y="347"/>
      <point x="213" y="374"/>
      <point x="175" y="374" type="curve" smooth="yes"/>
      <point x="136" y="374"/>
      <point x="99" y="344"/>
      <point x="99" y="304" type="curve" smooth="yes"/>
      <point x="99" y="0" type="line"/>
      <point x="69" y="0" type="line"/>
      <point x="69" y="302" type="line" smooth="yes"/>
      <point x="69" y="360"/>
      <point x="122" y="404"/>
      <point x="181" y="404" type="curve" smooth="yes"/>
      <point x="240" y="404"/>
      <point x="286" y="375"/>
      <point x="302" y="331" type="curve"/>
      <point x="318" y="371"/>
      <point x="361" y="404"/>
      <point x="414" y="404" type="curve" smooth="yes"/>
      <point x="518" y="404"/>
      <point x="591" y="293"/>
      <point x="591" y="172" type="curve" smooth="yes"/>
      <point x="591" y="28"/>
      <point x="495" y="-98"/>
      <point x="362" y="-98" type="curve" smooth="yes"/>
      <point x="153" y="-98" type="line" smooth="yes"/>
      <point x="122" y="-98"/>
      <point x="93" y="-113"/>
      <point x="87" y="-137" type="curve"/>
      <point x="93" y="-136"/>
      <point x="99" y="-136"/>
      <point x="105" y="-135" type="curve"/>
      <point x="129" y="-135"/>
      <point x="145" y="-157"/>
      <point x="145" y="-181" type="curve" smooth="yes"/>
      <point x="145" y="-204"/>
      <point x="123" y="-220"/>
      <point x="99" y="-220" type="curve" smooth="yes"/>
      <point x="72" y="-220"/>
    </contour>
    <contour>
      <point x="284" y="446" type="move" name="tm_halant"/>
    </contour>
  </outline>
</glyph>
<glyph name="taLa" format="1">
  <advance width="736"/>
  <unicode hex="0BB2"/>
  <outline>
    <contour>
      <point x="38" y="88"/>
      <point x="38" y="180" type="curve" smooth="yes"/>
      <point x="38" y="300"/>
      <point x="135" y="400"/>
      <point x="262" y="400" type="curve" smooth="yes"/>
      <point x="368" y="400"/>
      <point x="454" y="348"/>
      <point x="454" y="246" type="curve" smooth="yes"/>
      <point x="454" y="117" type="line" smooth="yes"/>
      <point x="454" y="75"/>
      <point x="479" y="31"/>
      <point x="519" y="31" type="curve" smooth="yes"/>
      <point x="610" y="31"/>
      <point x="656" y="109"/>
      <point x="656" y="204" type="curve" smooth="yes"/>
      <point x="656" y="255"/>
      <point x="615" y="315"/>
      <point x="571" y="360" type="curve" smooth="yes"/>
      <point x="564" y="367"/>
      <point x="556" y="379"/>
      <point x="556" y="392" type="curve" smooth="yes"/>
      <point x="556" y="408"/>
      <point x="572" y="422"/>
      <point x="589" y="422" type="curve" smooth="yes"/>
      <point x="616" y="422"/>
      <point x="639" y="401"/>
      <point x="658" y="358" type="curve" smooth="yes"/>
      <point x="677" y="315"/>
      <point x="686" y="264"/>
      <point x="686" y="204" type="curve" smooth="yes"/>
      <point x="686" y="81"/>
      <point x="639" y="1"/>
      <point x="522" y="1" type="curve" smooth="yes"/>
      <point x="444" y="1"/>
      <point x="379" y="40"/>
      <point x="379" y="114" type="curve" smooth="yes"/>
      <point x="379" y="247" type="line" smooth="yes"/>
      <point x="379" y="320"/>
      <point x="332" y="369"/>
      <point x="259" y="369" type="curve" smooth="yes"/>
      <point x="156" y="369"/>
      <point x="68" y="285"/>
      <point x="68" y="182" type="curve" smooth="yes"/>
      <point x="68" y="119"/>
      <point x="95" y="70"/>
      <point x="133" y="44" type="curve"/>
      <point x="117" y="60"/>
      <point x="108" y="89"/>
      <point x="108" y="123" type="curve" smooth="yes"/>
      <point x="108" y="177"/>
      <point x="149" y="228"/>
      <point x="202" y="228" type="curve" smooth="yes"/>
      <point x="269" y="228"/>
      <point x="314" y="186"/>
      <point x="314" y="120" type="curve" smooth="yes"/>
      <point x="314" y="48"/>
      <point x="264" y="1"/>
      <point x="191" y="1" type="curve" smooth="yes"/>
      <point x="102" y="1"/>
    </contour>
    <contour>
      <point x="138" y="151"/>
      <point x="138" y="114" type="curve" smooth="yes"/>
      <point x="138" y="78"/>
      <point x="155" y="31"/>
      <point x="188" y="31" type="curve" smooth="yes"/>
      <point x="222" y="31"/>
      <point x="239" y="78"/>
      <point x="239" y="114" type="curve" smooth="yes"/>
      <point x="239" y="150"/>
      <point x="223" y="198"/>
      <point x="191" y="198" type="curve" smooth="yes"/>
      <point x="157" y="198"/>
    </contour>
    <contour>
      <point x="354" y="446" type="move" name="tm_halant"/>
    </contour>
  </outline>
</glyph>
<glyph name="lla-tamil" format="2">
	<advance width="799"/>
	<unicode hex="0BB3"/>
	<outline>
		<contour>
			<point x="354" y="1" type="curve" smooth="yes"/>
			<point x="523" y="1" type="line"/>
			<point x="523" y="-61" type="line"/>
			<point x="323" y="-61" type="line" smooth="yes"/>
			<point x="250" y="-61"/>
			<point x="209" y="-20"/>
			<point x="209" y="40" type="curve" smooth="yes"/>
			<point x="209" y="64"/>
			<point x="215" y="91"/>
			<point x="230" y="120" type="curve"/>
			<point x="305" y="120" type="line"/>
			<point x="291" y="92"/>
			<point x="283" y="69"/>
			<point x="283" y="51" type="curve" smooth="yes"/>
			<point x="283" y="18"/>
			<point x="307" y="1"/>
		</contour>
		<contour>
			<point x="199" y="100"/>
			<point x="115" y="6"/>
			<point x="115" y="-92" type="curve" smooth="yes"/>
			<point x="115" y="-233"/>
			<point x="249" y="-289"/>
			<point x="398" y="-289" type="curve" smooth="yes"/>
			<point x="584" y="-289"/>
			<point x="663" y="-149"/>
			<point x="663" y="-149" type="curve"/>
			<point x="759" y="-161" type="line"/>
			<point x="759" y="-161"/>
			<point x="681" y="-381"/>
			<point x="366" y="-381" type="curve" smooth="yes"/>
			<point x="167" y="-381"/>
			<point x="20" y="-284"/>
			<point x="20" y="-78" type="curve" smooth="yes"/>
			<point x="20" y="77"/>
			<point x="148" y="182"/>
			<point x="290" y="182" type="curve" smooth="yes"/>
			<point x="358" y="182"/>
			<point x="391" y="181"/>
			<point x="435" y="181" type="curve" smooth="yes"/>
			<point x="528" y="181"/>
			<point x="551" y="232"/>
			<point x="557" y="291" type="curve" smooth="yes"/>
			<point x="562" y="343"/>
			<point x="562" y="396"/>
			<point x="568" y="430" type="curve"/>
			<point x="530" y="430" type="line" smooth="yes"/>
			<point x="506" y="430"/>
			<point x="479" y="408"/>
			<point x="479" y="382" type="curve" smooth="yes"/>
			<point x="479" y="207" type="line"/>
			<point x="414" y="207" type="line"/>
			<point x="414" y="307" type="line" smooth="yes"/>
			<point x="414" y="392"/>
			<point x="361" y="422"/>
			<point x="324" y="422" type="curve" smooth="yes"/>
			<point x="248" y="422"/>
			<point x="217" y="369"/>
			<point x="217" y="304" type="curve" smooth="yes"/>
			<point x="217" y="275"/>
			<point x="239" y="257"/>
			<point x="267" y="257" type="curve" smooth="yes"/>
			<point x="295" y="257"/>
			<point x="315" y="276"/>
			<point x="315" y="304" type="curve" smooth="yes"/>
			<point x="315" y="332"/>
			<point x="293" y="351"/>
			<point x="267" y="351" type="curve" smooth="yes"/>
			<point x="236" y="351"/>
			<point x="217" y="329"/>
			<point x="217" y="304" type="curve"/>
			<point x="160" y="304" type="line"/>
			<point x="160" y="367"/>
			<point x="216" y="405"/>
			<point x="279" y="405" type="curve" smooth="yes"/>
			<point x="333" y="405"/>
			<point x="376" y="359"/>
			<point x="376" y="305" type="curve" smooth="yes"/>
			<point x="376" y="244"/>
			<point x="325" y="192"/>
			<point x="254" y="192" type="curve" smooth="yes"/>
			<point x="201" y="192"/>
			<point x="136" y="239"/>
			<point x="136" y="326" type="curve" smooth="yes"/>
			<point x="136" y="464"/>
			<point x="271" y="500"/>
			<point x="322" y="500" type="curve" smooth="yes"/>
			<point x="383" y="500"/>
			<point x="431" y="470"/>
			<point x="447" y="449" type="curve"/>
			<point x="456" y="471"/>
			<point x="483" y="500"/>
			<point x="529" y="500" type="curve" smooth="yes"/>
			<point x="581" y="500"/>
			<point x="656" y="499"/>
			<point x="656" y="499" type="curve"/>
			<point x="656" y="499"/>
			<point x="646" y="466"/>
			<point x="643" y="443" type="curve" smooth="yes"/>
			<point x="638" y="404"/>
			<point x="635" y="342"/>
			<point x="631" y="282" type="curve" smooth="yes"/>
			<point x="623" y="158"/>
			<point x="546" y="100"/>
			<point x="479" y="100" type="curve" smooth="yes"/>
			<point x="283" y="100" type="line" smooth="yes"/>
		</contour>
	</outline>
</glyph>
<glyph name="taLla" format="1">
  <advance width="805"/>
  <unicode hex="0BB3"/>
  <outline>
    <contour>
      <point x="37" y="121"/>
      <point x="37" y="168" type="curve" smooth="yes"/>
      <point x="37" y="231"/>
      <point x="59" y="285"/>
      <point x="102" y="330" type="curve" smooth="yes"/>
      <point x="146" y="375"/>
      <point x="199" y="397"/>
      <point x="260" y="397" type="curve" smooth="yes"/>
      <point x="335" y="397"/>
      <point x="398" y="371"/>
      <point x="431" y="329" type="curve"/>
      <point x="431" y="400" type="line"/>
      <point x="793" y="400" type="line"/>
      <point x="793" y="367" type="line"/>
      <point x="699" y="367" type="line"/>
      <point x="699" y="0" type="line"/>
      <point x="627" y="0" type="line"/>
      <point x="627" y="367" type="line"/>
      <point x="481" y="367" type="line"/>
      <point x="481" y="0" type="line"/>
      <point x="409" y="0" type="line"/>
      <point x="409" y="238" type="line"/>
      <point x="388" y="300"/>
      <point x="335" y="367"/>
      <point x="260" y="367" type="curve" smooth="yes"/>
      <point x="154" y="367"/>
      <point x="67" y="277"/>
      <point x="67" y="170" type="curve" smooth="yes"/>
      <point x="67" y="109"/>
      <point x="97" y="57"/>
      <point x="141" y="41" type="curve"/>
      <point x="125" y="58"/>
      <point x="120" y="91"/>
      <point x="120" y="127" type="curve" smooth="yes"/>
      <point x="120" y="189"/>
      <point x="153" y="235"/>
      <point x="213" y="235" type="curve" smooth="yes"/>
      <point x="283" y="235"/>
      <point x="331" y="191"/>
      <point x="331" y="122" type="curve" smooth="yes"/>
      <point x="331" y="46"/>
      <point x="276" y="-1"/>
      <point x="199" y="-1" type="curve" smooth="yes"/>
      <point x="154" y="-1"/>
      <point x="116" y="15"/>
      <point x="84" y="48" type="curve" smooth="yes"/>
      <point x="53" y="81"/>
    </contour>
    <contour>
      <point x="150" y="152"/>
      <point x="150" y="118" type="curve" smooth="yes"/>
      <point x="150" y="83"/>
      <point x="169" y="44"/>
      <point x="202" y="44" type="curve" smooth="yes"/>
      <point x="235" y="44"/>
      <point x="256" y="84"/>
      <point x="256" y="119" type="curve" smooth="yes"/>
      <point x="256" y="152"/>
      <point x="235" y="190"/>
      <point x="203" y="190" type="curve" smooth="yes"/>
      <point x="170" y="190"/>
    </contour>
    <contour>
      <point x="414" y="446" type="move" name="tm_halant"/>
    </contour>
  </outline>
</glyph>
<glyph name="llla-tamil" format="2">
	<advance width="1195"/>
	<unicode hex="0BB4"/>
	<anchor x="498" y="673" name="MatraIi.alt1"/>
	<anchor x="491" y="676" name="MatraI.alt6"/>
	<anchor x="305" y="675" name="tm_halant"/>
	<outline>
		<contour>
			<point x="443" y="-160" type="curve" smooth="yes"/>
			<point x="444" y="-191"/>
			<point x="375" y="-293"/>
			<point x="248" y="-293" type="curve" smooth="yes"/>
			<point x="127" y="-293"/>
			<point x="45" y="-206"/>
			<point x="45" y="-83" type="curve"/>
			<point x="137" y="-82" type="line"/>
			<point x="137" y="-142"/>
			<point x="162" y="-208"/>
			<point x="253" y="-208" type="curve" smooth="yes"/>
			<point x="335" y="-208"/>
			<point x="361" y="-134"/>
			<point x="361" y="-134" type="curve"/>
			<point x="361" y="-134"/>
			<point x="394" y="-173"/>
			<point x="397" y="-170" type="curve"/>
			<point x="353" y="-170"/>
			<point x="274" y="-133"/>
			<point x="274" y="8" type="curve" smooth="yes"/>
			<point x="274" y="437" type="line" smooth="yes"/>
			<point x="274" y="521"/>
			<point x="311" y="574"/>
			<point x="403" y="574" type="curve" smooth="yes"/>
			<point x="564" y="574"/>
			<point x="616" y="430"/>
			<point x="619" y="299" type="curve" smooth="yes"/>
			<point x="624" y="124"/>
			<point x="548" y="0"/>
			<point x="390" y="0" type="curve" smooth="yes"/>
			<point x="42" y="0" type="line"/>
			<point x="42" y="559" type="line"/>
			<point x="130" y="559" type="line"/>
			<point x="130" y="82" type="line"/>
			<point x="374" y="82" type="line" smooth="yes"/>
			<point x="505" y="79"/>
			<point x="537" y="170"/>
			<point x="537" y="282" type="curve" smooth="yes"/>
			<point x="537" y="423"/>
			<point x="485" y="499"/>
			<point x="415" y="499" type="curve" smooth="yes"/>
			<point x="379" y="499"/>
			<point x="363" y="481"/>
			<point x="363" y="433" type="curve" smooth="yes"/>
			<point x="363" y="1" type="line" smooth="yes"/>
			<point x="363" y="-54"/>
			<point x="382" y="-98"/>
			<point x="450" y="-98" type="curve" smooth="yes"/>
			<point x="555" y="-98" type="line"/>
			<point x="555" y="-173" type="line"/>
			<point x="416" y="-173" type="line"/>
			<point x="416" y="-173"/>
			<point x="443" y="-157"/>
		</contour>
	</outline>
</glyph>
<glyph name="taLlla" format="1">
  <advance width="680"/>
  <unicode hex="0BB4"/>
  <outline>
    <contour>
      <point x="190" y="-280" type="curve" smooth="yes"/>
      <point x="114" y="-280"/>
      <point x="50" y="-245"/>
      <point x="50" y="-173" type="curve" smooth="yes"/>
      <point x="50" y="-114"/>
      <point x="108" y="-71"/>
      <point x="169" y="-71" type="curve" smooth="yes"/>
      <point x="196" y="-71"/>
      <point x="218" y="-93"/>
      <point x="218" y="-121" type="curve" smooth="yes"/>
      <point x="218" y="-143"/>
      <point x="202" y="-163"/>
      <point x="180" y="-163" type="curve" smooth="yes"/>
      <point x="160" y="-163"/>
      <point x="143" y="-146"/>
      <point x="143" y="-126" type="curve" smooth="yes"/>
      <point x="141" y="-116"/>
      <point x="146" y="-109"/>
      <point x="152" y="-105" type="curve"/>
      <point x="113" y="-105"/>
      <point x="80" y="-135"/>
      <point x="80" y="-174" type="curve" smooth="yes"/>
      <point x="80" y="-222"/>
      <point x="138" y="-250"/>
      <point x="189" y="-250" type="curve" smooth="yes"/>
      <point x="239" y="-250"/>
      <point x="281" y="-210"/>
      <point x="281" y="-160" type="curve" smooth="yes"/>
      <point x="281" y="-108"/>
      <point x="335" y="-71"/>
      <point x="390" y="-71" type="curve"/>
      <point x="357" y="-66"/>
      <point x="331" y="-38"/>
      <point x="331" y="0" type="curve"/>
      <point x="405" y="0" type="line"/>
      <point x="405" y="-31"/>
      <point x="421" y="-71"/>
      <point x="449" y="-71" type="curve" smooth="yes"/>
      <point x="533" y="-71" type="line"/>
      <point x="533" y="-101" type="line"/>
      <point x="425" y="-101" type="line" smooth="yes"/>
      <point x="384" y="-101"/>
      <point x="356" y="-142"/>
      <point x="356" y="-185" type="curve" smooth="yes"/>
      <point x="356" y="-248"/>
      <point x="261" y="-280"/>
    </contour>
    <component base="taMa"/>
    <contour>
      <point x="314" y="446" type="move" name="tm_halant"/>
    </contour>
  </outline>
</glyph>
<glyph name="taVa" format="1">
  <advance width="757"/>
  <unicode hex="0BB5"/>
  <outline>
    <contour>
      <point x="38" y="85"/>
      <point x="38" y="182" type="curve" smooth="yes"/>
      <point x="38" y="308"/>
      <point x="139" y="396"/>
      <point x="264" y="396" type="curve" smooth="yes"/>
      <point x="397" y="396"/>
      <point x="502" y="308"/>
      <point x="502" y="188" type="curve" smooth="yes"/>
      <point x="502" y="123"/>
      <point x="474" y="54"/>
      <point x="438" y="27" type="curve"/>
      <point x="432" y="30" type="line"/>
      <point x="615" y="30" type="line"/>
      <point x="615" y="400" type="line"/>
      <point x="687" y="400" type="line"/>
      <point x="687" y="0" type="line"/>
      <point x="351" y="0" type="line"/>
      <point x="351" y="27" type="line"/>
      <point x="401" y="53"/>
      <point x="431" y="120"/>
      <point x="431" y="196" type="curve" smooth="yes"/>
      <point x="431" y="288"/>
      <point x="346" y="365"/>
      <point x="247" y="365" type="curve" smooth="yes"/>
      <point x="141" y="365"/>
      <point x="65" y="283"/>
      <point x="65" y="182" type="curve" smooth="yes"/>
      <point x="65" y="119"/>
      <point x="95" y="70"/>
      <point x="133" y="44" type="curve"/>
      <point x="118" y="63"/>
      <point x="111" y="90"/>
      <point x="111" y="120" type="curve" smooth="yes"/>
      <point x="111" y="178"/>
      <point x="145" y="230"/>
      <point x="208" y="230" type="curve" smooth="yes"/>
      <point x="270" y="230"/>
      <point x="314" y="186"/>
      <point x="314" y="122" type="curve" smooth="yes"/>
      <point x="314" y="49"/>
      <point x="268" y="1"/>
      <point x="196" y="1" type="curve" smooth="yes"/>
      <point x="95" y="1"/>
    </contour>
    <contour>
      <point x="138" y="155"/>
      <point x="138" y="120" type="curve" smooth="yes"/>
      <point x="138" y="82"/>
      <point x="154" y="31"/>
      <point x="188" y="31" type="curve" smooth="yes"/>
      <point x="222" y="31"/>
      <point x="239" y="81"/>
      <point x="239" y="119" type="curve" smooth="yes"/>
      <point x="239" y="154"/>
      <point x="223" y="198"/>
      <point x="191" y="198" type="curve" smooth="yes"/>
      <point x="158" y="198"/>
    </contour>
    <contour>
      <point x="314" y="446" type="move" name="tm_halant"/>
    </contour>
  </outline>
</glyph>
<glyph name="taSha" format="1">
  <advance width="731"/>
  <unicode hex="0BB6"/>
  <outline>
    <contour>
      <point x="67" y="51"/>
      <point x="67" y="115" type="curve" smooth="yes"/>
      <point x="67" y="400" type="line"/>
      <point x="97" y="400" type="line"/>
      <point x="97" y="115" type="line" smooth="yes"/>
      <point x="97" y="78"/>
      <point x="129" y="47"/>
      <point x="167" y="47" type="curve" smooth="yes"/>
      <point x="205" y="47"/>
      <point x="238" y="77"/>
      <point x="238" y="115" type="curve" smooth="yes"/>
      <point x="238" y="400" type="line"/>
      <point x="664" y="400" type="line"/>
      <point x="664" y="116" type="line" smooth="yes"/>
      <point x="664" y="50"/>
      <point x="608" y="0"/>
      <point x="541" y="0" type="curve" smooth="yes"/>
      <point x="477" y="0"/>
      <point x="422" y="52"/>
      <point x="422" y="116" type="curve" smooth="yes"/>
      <point x="422" y="370" type="line"/>
      <point x="309" y="370" type="line"/>
      <point x="309" y="118" type="line" smooth="yes"/>
      <point x="309" y="52"/>
      <point x="254" y="0"/>
      <point x="187" y="0" type="curve" smooth="yes"/>
      <point x="122" y="0"/>
    </contour>
    <contour>
      <point x="452" y="370" type="line"/>
      <point x="452" y="116" type="line" smooth="yes"/>
      <point x="452" y="78"/>
      <point x="484" y="47"/>
      <point x="522" y="47" type="curve" smooth="yes"/>
      <point x="560" y="47"/>
      <point x="593" y="78"/>
      <point x="593" y="116" type="curve" smooth="yes"/>
      <point x="593" y="370" type="line"/>
    </contour>
    <contour>
      <point x="314" y="446" type="move" name="tm_halant"/>
    </contour>
  </outline>
</glyph>
<glyph name="taSsa" format="1">
  <advance width="999"/>
  <unicode hex="0BB7"/>
  <outline>
    <contour>
      <point x="37" y="82"/>
      <point x="37" y="185" type="curve" smooth="yes"/>
      <point x="37" y="299"/>
      <point x="140" y="389"/>
      <point x="266" y="389" type="curve" smooth="yes"/>
      <point x="393" y="389"/>
      <point x="506" y="306"/>
      <point x="506" y="190" type="curve" smooth="yes"/>
      <point x="506" y="121"/>
      <point x="483" y="59"/>
      <point x="443" y="30" type="curve"/>
      <point x="691" y="30" type="line"/>
      <point x="691" y="164" type="line"/>
      <point x="617" y="164"/>
      <point x="564" y="209"/>
      <point x="564" y="281" type="curve" smooth="yes"/>
      <point x="564" y="347"/>
      <point x="608" y="389"/>
      <point x="675" y="389" type="curve" smooth="yes"/>
      <point x="724" y="389"/>
      <point x="762" y="351"/>
      <point x="762" y="304" type="curve" smooth="yes"/>
      <point x="762" y="193" type="line"/>
      <point x="841" y="193"/>
      <point x="904" y="247"/>
      <point x="932" y="304" type="curve"/>
      <point x="946" y="304" type="line"/>
      <point x="946" y="0" type="line"/>
      <point x="762" y="0" type="line"/>
      <point x="762" y="-242" type="line"/>
      <point x="691" y="-242" type="line"/>
      <point x="691" y="0" type="line"/>
      <point x="351" y="0" type="line"/>
      <point x="351" y="27" type="line"/>
      <point x="400" y="55"/>
      <point x="431" y="119"/>
      <point x="431" y="196" type="curve" smooth="yes"/>
      <point x="431" y="286"/>
      <point x="354" y="359"/>
      <point x="264" y="359" type="curve" smooth="yes"/>
      <point x="157" y="359"/>
      <point x="67" y="282"/>
      <point x="67" y="182" type="curve" smooth="yes"/>
      <point x="67" y="120"/>
      <point x="98" y="70"/>
      <point x="137" y="44" type="curve"/>
      <point x="122" y="62"/>
      <point x="112" y="86"/>
      <point x="112" y="118" type="curve" smooth="yes"/>
      <point x="112" y="185"/>
      <point x="148" y="238"/>
      <point x="212" y="238" type="curve" smooth="yes"/>
      <point x="278" y="238"/>
      <point x="318" y="190"/>
      <point x="318" y="122" type="curve" smooth="yes"/>
      <point x="318" y="47"/>
      <point x="270" y="-4"/>
      <point x="195" y="-4" type="curve" smooth="yes"/>
      <point x="105" y="-4"/>
    </contour>
    <contour>
      <point x="594" y="318"/>
      <point x="594" y="281" type="curve" smooth="yes"/>
      <point x="594" y="228"/>
      <point x="639" y="188"/>
      <point x="691" y="188" type="curve"/>
      <point x="691" y="302" type="line" smooth="yes"/>
      <point x="691" y="329"/>
      <point x="675" y="359"/>
      <point x="650" y="359" type="curve" smooth="yes"/>
      <point x="615" y="359"/>
    </contour>
    <contour>
      <point x="142" y="152"/>
      <point x="142" y="119" type="curve" smooth="yes"/>
      <point x="142" y="87"/>
      <point x="161" y="51"/>
      <point x="192" y="51" type="curve" smooth="yes"/>
      <point x="223" y="51"/>
      <point x="243" y="86"/>
      <point x="243" y="119" type="curve" smooth="yes"/>
      <point x="243" y="153"/>
      <point x="224" y="188"/>
      <point x="192" y="188" type="curve" smooth="yes"/>
      <point x="161" y="188"/>
    </contour>
    <contour>
      <point x="762" y="164" type="curve"/>
      <point x="762" y="30" type="line"/>
      <point x="871" y="30" type="line"/>
      <point x="871" y="194" type="line"/>
      <point x="846" y="175"/>
      <point x="804" y="164"/>
    </contour>
    <contour>
      <point x="514" y="446" type="move" name="tm_halant"/>
    </contour>
  </outline>
</glyph>
<glyph name="taSa" format="1">
  <advance width="1038"/>
  <unicode hex="0BB8"/>
  <outline>
    <contour>
      <point x="38" y="75"/>
      <point x="38" y="168" type="curve" smooth="yes"/>
      <point x="38" y="299"/>
      <point x="140" y="401"/>
      <point x="266" y="401" type="curve" smooth="yes"/>
      <point x="359" y="401"/>
      <point x="443" y="366"/>
      <point x="472" y="305" type="curve"/>
      <point x="485" y="355"/>
      <point x="534" y="395"/>
      <point x="596" y="395" type="curve" smooth="yes"/>
      <point x="680" y="395"/>
      <point x="759" y="337"/>
      <point x="759" y="256" type="curve" smooth="yes"/>
      <point x="759" y="117" type="line" smooth="yes"/>
      <point x="759" y="72"/>
      <point x="785" y="24"/>
      <point x="827" y="24" type="curve" smooth="yes"/>
      <point x="916" y="24"/>
      <point x="956" y="109"/>
      <point x="956" y="204" type="curve" smooth="yes"/>
      <point x="956" y="232"/>
      <point x="947" y="260"/>
      <point x="929" y="288" type="curve" smooth="yes"/>
      <point x="916" y="309"/>
      <point x="897" y="333"/>
      <point x="870" y="360" type="curve" smooth="yes"/>
      <point x="863" y="367"/>
      <point x="856" y="380"/>
      <point x="856" y="392" type="curve" smooth="yes"/>
      <point x="856" y="408"/>
      <point x="872" y="422"/>
      <point x="889" y="422" type="curve" smooth="yes"/>
      <point x="916" y="422"/>
      <point x="939" y="401"/>
      <point x="958" y="358" type="curve" smooth="yes"/>
      <point x="977" y="315"/>
      <point x="986" y="264"/>
      <point x="986" y="204" type="curve" smooth="yes"/>
      <point x="986" y="90"/>
      <point x="931" y="-6"/>
      <point x="822" y="-6" type="curve" smooth="yes"/>
      <point x="743" y="-6"/>
      <point x="684" y="38"/>
      <point x="684" y="114" type="curve" smooth="yes"/>
      <point x="684" y="257" type="line" smooth="yes"/>
      <point x="684" y="314"/>
      <point x="642" y="365"/>
      <point x="586" y="365" type="curve" smooth="yes"/>
      <point x="536" y="365"/>
      <point x="498" y="320"/>
      <point x="498" y="269" type="curve" smooth="yes"/>
      <point x="498" y="0" type="line"/>
      <point x="426" y="0" type="line"/>
      <point x="426" y="235" type="line" smooth="yes"/>
      <point x="426" y="314"/>
      <point x="347" y="371"/>
      <point x="265" y="371" type="curve" smooth="yes"/>
      <point x="153" y="371"/>
      <point x="68" y="278"/>
      <point x="68" y="170" type="curve" smooth="yes"/>
      <point x="68" y="109"/>
      <point x="98" y="57"/>
      <point x="142" y="41" type="curve"/>
      <point x="126" y="60"/>
      <point x="116" y="90"/>
      <point x="116" y="124" type="curve" smooth="yes"/>
      <point x="116" y="191"/>
      <point x="158" y="235"/>
      <point x="224" y="235" type="curve" smooth="yes"/>
      <point x="290" y="235"/>
      <point x="332" y="189"/>
      <point x="332" y="122" type="curve" smooth="yes"/>
      <point x="332" y="51"/>
      <point x="272" y="-6"/>
      <point x="200" y="-6" type="curve" smooth="yes"/>
      <point x="109" y="-6"/>
    </contour>
    <contour>
      <point x="146" y="154"/>
      <point x="146" y="119" type="curve" smooth="yes"/>
      <point x="146" y="82"/>
      <point x="166" y="39"/>
      <point x="201" y="39" type="curve" smooth="yes"/>
      <point x="237" y="39"/>
      <point x="257" y="81"/>
      <point x="257" y="119" type="curve" smooth="yes"/>
      <point x="257" y="154"/>
      <point x="234" y="190"/>
      <point x="201" y="190" type="curve" smooth="yes"/>
      <point x="168" y="190"/>
    </contour>
    <contour>
      <point x="514" y="446" type="move" name="tm_halant"/>
    </contour>
  </outline>
</glyph>
<glyph name="ha-tamil" format="2">
	<advance width="1310"/>
	<unicode hex="0BB9"/>
	<outline>
		<contour>
			<point x="268" y="346" type="curve" smooth="yes"/>
			<point x="219.432" y="346"/>
			<point x="166.023" y="304.993"/>
			<point x="166.023" y="244.04" type="curve" smooth="yes"/>
			<point x="166.023" y="181.961"/>
			<point x="208" y="102.561"/>
			<point x="289.039" y="102.561" type="curve" smooth="yes"/>
			<point x="349.039" y="102.561" type="line" smooth="yes"/>
			<point x="484.069" y="102.561"/>
			<point x="467" y="342"/>
			<point x="544" y="487" type="curve" smooth="yes"/>
			<point x="579.552" y="553.948"/>
			<point x="632" y="613"/>
			<point x="719" y="613" type="curve" smooth="yes"/>
			<point x="785" y="613"/>
			<point x="823" y="586"/>
			<point x="842" y="567" type="curve"/>
			<point x="864" y="586"/>
			<point x="906" y="613"/>
			<point x="974" y="613" type="curve" smooth="yes"/>
			<point x="1200.97" y="613"/>
			<point x="1246.67" y="368.829"/>
			<point x="1246.67" y="169.207" type="curve" smooth="yes"/>
			<point x="1246.67" y="-50.3887"/>
			<point x="1139.91" y="-163"/>
			<point x="938" y="-163" type="curve" smooth="yes"/>
			<point x="785.333" y="-163"/>
			<point x="630.667" y="-163.074"/>
			<point x="516.814" y="-163.074" type="curve" smooth="yes"/>
			<point x="459.741" y="-163.074"/>
			<point x="415.639" y="-163"/>
			<point x="391.801" y="-163" type="curve" smooth="yes"/>
			<point x="358.127" y="-163"/>
			<point x="346.342" y="-183.199"/>
			<point x="346.342" y="-211.528" type="curve" smooth="yes"/>
			<point x="346.342" y="-244.977"/>
			<point x="362.771" y="-289.757"/>
			<point x="379" y="-326" type="curve"/>
			<point x="259" y="-358" type="line"/>
			<point x="238.758" y="-310.768"/>
			<point x="219.866" y="-256.706"/>
			<point x="219.866" y="-204.11" type="curve" smooth="yes"/>
			<point x="219.866" y="-94.5713"/>
			<point x="290.749" y="-61"/>
			<point x="389" y="-61" type="curve" smooth="yes"/>
			<point x="594" y="-61"/>
			<point x="714" y="-62"/>
			<point x="909" y="-62" type="curve" smooth="yes"/>
			<point x="1085" y="-62"/>
			<point x="1130.28" y="32.0811"/>
			<point x="1130.28" y="197.025" type="curve" smooth="yes"/>
			<point x="1130.28" y="313.953"/>
			<point x="1093.13" y="508"/>
			<point x="971" y="508" type="curve" smooth="yes"/>
			<point x="926.868" y="508"/>
			<point x="894" y="468.234"/>
			<point x="894" y="414" type="curve" smooth="yes"/>
			<point x="894" y="0" type="line"/>
			<point x="784" y="0" type="line"/>
			<point x="784" y="414" type="line" smooth="yes"/>
			<point x="784" y="456.19"/>
			<point x="768.45" y="508"/>
			<point x="716" y="508" type="curve" smooth="yes"/>
			<point x="671" y="508"/>
			<point x="652.54" y="472.953"/>
			<point x="635" y="434" type="curve" smooth="yes"/>
			<point x="558" y="263"/>
			<point x="560.404" y="0"/>
			<point x="377" y="0" type="curve" smooth="yes"/>
			<point x="367" y="0"/>
			<point x="302.61" y="0.30762"/>
			<point x="289.61" y="0.30762" type="curve" smooth="yes"/>
			<point x="156.358" y="0.30762"/>
			<point x="57.1768" y="104.834"/>
			<point x="57.1768" y="236.202" type="curve" smooth="yes"/>
			<point x="57.1768" y="367.559"/>
			<point x="138.04" y="450"/>
			<point x="254" y="450" type="curve" smooth="yes"/>
			<point x="331.34" y="450"/>
			<point x="345.193" y="485.184"/>
			<point x="345.193" y="527.247" type="curve" smooth="yes"/>
			<point x="345.193" y="596.792"/>
			<point x="260.955" y="610.105"/>
			<point x="195.397" y="610.105" type="curve" smooth="yes"/>
			<point x="151.7" y="610.105"/>
			<point x="114.476" y="593.223"/>
			<point x="114.476" y="558.782" type="curve" smooth="yes"/>
			<point x="114.476" y="537.005"/>
			<point x="130.215" y="519.933"/>
			<point x="151.211" y="519.933" type="curve" smooth="yes"/>
			<point x="174.439" y="519.933"/>
			<point x="191.785" y="533.518"/>
			<point x="191.785" y="560.109" type="curve" smooth="yes"/>
			<point x="191.785" y="582.771"/>
			<point x="165" y="604"/>
			<point x="143" y="600" type="curve"/>
			<point x="191" y="641" type="line"/>
			<point x="233" y="631"/>
			<point x="263.728" y="606.032"/>
			<point x="263.728" y="558.374" type="curve" smooth="yes"/>
			<point x="263.728" y="472.145"/>
			<point x="206.74" y="451"/>
			<point x="146" y="451" type="curve" smooth="yes"/>
			<point x="87.3672" y="451"/>
			<point x="45.4141" y="500.086"/>
			<point x="45.4141" y="554.222" type="curve" smooth="yes"/>
			<point x="45.4141" y="648.452"/>
			<point x="138.834" y="692.247"/>
			<point x="226.978" y="692.247" type="curve" smooth="yes"/>
			<point x="342.944" y="692.247"/>
			<point x="454.092" y="638.85"/>
			<point x="454.092" y="509.584" type="curve" smooth="yes"/>
			<point x="454.092" y="419.451"/>
			<point x="383.73" y="346"/>
		</contour>
	</outline>
</glyph>
<glyph name="taHa" format="1">
  <advance width="1162"/>
  <unicode hex="0BB9"/>
  <outline>
    <contour>
      <point x="38" y="-193"/>
      <point x="38" y="-164" type="curve" smooth="yes"/>
      <point x="38" y="-109"/>
      <point x="84" y="-64"/>
      <point x="140" y="-64" type="curve" smooth="yes"/>
      <point x="864" y="-64" type="line" smooth="yes"/>
      <point x="964" y="-64"/>
      <point x="1032" y="50"/>
      <point x="1032" y="170" type="curve" smooth="yes"/>
      <point x="1032" y="262"/>
      <point x="1003" y="364"/>
      <point x="922" y="364" type="curve" smooth="yes"/>
      <point x="876" y="364"/>
      <point x="844" y="316"/>
      <point x="844" y="269" type="curve" smooth="yes"/>
      <point x="844" y="0" type="line"/>
      <point x="773" y="0" type="line"/>
      <point x="773" y="295" type="line" smooth="yes"/>
      <point x="773" y="329"/>
      <point x="751" y="364"/>
      <point x="719" y="364" type="curve" smooth="yes"/>
      <point x="686" y="364"/>
      <point x="663" y="329"/>
      <point x="663" y="294" type="curve" smooth="yes"/>
      <point x="663" y="0" type="line"/>
      <point x="348" y="0" type="line"/>
      <point x="348" y="27" type="line"/>
      <point x="397" y="55"/>
      <point x="428" y="119"/>
      <point x="428" y="196" type="curve" smooth="yes"/>
      <point x="428" y="290"/>
      <point x="354" y="371"/>
      <point x="261" y="371" type="curve" smooth="yes"/>
      <point x="153" y="371"/>
      <point x="68" y="286"/>
      <point x="68" y="182" type="curve" smooth="yes"/>
      <point x="68" y="121"/>
      <point x="96" y="70"/>
      <point x="134" y="44" type="curve"/>
      <point x="118" y="60"/>
      <point x="109" y="89"/>
      <point x="109" y="123" type="curve" smooth="yes"/>
      <point x="109" y="186"/>
      <point x="148" y="228"/>
      <point x="209" y="228" type="curve" smooth="yes"/>
      <point x="273" y="228"/>
      <point x="315" y="186"/>
      <point x="315" y="122" type="curve" smooth="yes"/>
      <point x="315" y="47"/>
      <point x="267" y="-4"/>
      <point x="192" y="-4" type="curve" smooth="yes"/>
      <point x="102" y="-4"/>
      <point x="38" y="86"/>
      <point x="38" y="180" type="curve" smooth="yes"/>
      <point x="38" y="305"/>
      <point x="141" y="401"/>
      <point x="263" y="401" type="curve" smooth="yes"/>
      <point x="392" y="401"/>
      <point x="499" y="311"/>
      <point x="499" y="190" type="curve" smooth="yes"/>
      <point x="499" y="121"/>
      <point x="476" y="59"/>
      <point x="440" y="30" type="curve"/>
      <point x="633" y="30" type="line"/>
      <point x="633" y="292" type="line" smooth="yes"/>
      <point x="633" y="345"/>
      <point x="673" y="394"/>
      <point x="725" y="394" type="curve" smooth="yes"/>
      <point x="775" y="394"/>
      <point x="813" y="368"/>
      <point x="826" y="331" type="curve"/>
      <point x="838" y="368"/>
      <point x="880" y="394"/>
      <point x="930" y="394" type="curve" smooth="yes"/>
      <point x="1057" y="394"/>
      <point x="1107" y="306"/>
      <point x="1107" y="172" type="curve" smooth="yes"/>
      <point x="1107" y="28"/>
      <point x="1005" y="-94"/>
      <point x="869" y="-94" type="curve" smooth="yes"/>
      <point x="141" y="-94" type="line" smooth="yes"/>
      <point x="109" y="-94"/>
      <point x="68" y="-109"/>
      <point x="68" y="-139" type="curve"/>
      <point x="76" y="-138"/>
      <point x="85" y="-136"/>
      <point x="93" y="-135" type="curve"/>
      <point x="117" y="-135"/>
      <point x="133" y="-157"/>
      <point x="133" y="-181" type="curve" smooth="yes"/>
      <point x="133" y="-204"/>
      <point x="111" y="-220"/>
      <point x="87" y="-220" type="curve" smooth="yes"/>
      <point x="58" y="-220"/>
    </contour>
    <contour>
      <point x="139" y="148"/>
      <point x="139" y="114" type="curve" smooth="yes"/>
      <point x="139" y="82"/>
      <point x="158" y="46"/>
      <point x="189" y="46" type="curve" smooth="yes"/>
      <point x="220" y="46"/>
      <point x="240" y="81"/>
      <point x="240" y="114" type="curve" smooth="yes"/>
      <point x="240" y="147"/>
      <point x="223" y="183"/>
      <point x="192" y="183" type="curve" smooth="yes"/>
      <point x="160" y="183"/>
    </contour>
    <contour>
      <point x="614" y="446" type="move" name="tm_halant"/>
    </contour>
  </outline>
</glyph>
<glyph name="aaMatra-tamil" format="2">
	<advance width="525"/>
	<unicode hex="0BBE"/>
	<outline>
		<contour>
			<point x="143" y="1" type="line"/>
			<point x="55" y="1" type="line"/>
			<point x="55" y="560" type="line"/>
			<point x="525" y="560" type="line"/>
			<point x="525" y="478" type="line"/>
			<point x="413" y="478" type="line"/>
			<point x="413" y="1" type="line"/>
			<point x="323" y="1" type="line"/>
			<point x="324" y="478" type="line"/>
			<point x="143" y="478" type="line"/>
		</contour>
	</outline>
</glyph>
<glyph name="taMatraAa" format="1">
  <advance width="525"/>
  <unicode hex="0BBE"/>
  <outline>
    <contour>
      <point x="143" y="1" type="line"/>
      <point x="55" y="1" type="line"/>
      <point x="55" y="560" type="line"/>
      <point x="525" y="560" type="line"/>
      <point x="525" y="478" type="line"/>
      <point x="413" y="478" type="line"/>
      <point x="413" y="1" type="line"/>
      <point x="323" y="1" type="line"/>
      <point x="324" y="478" type="line"/>
      <point x="143" y="478" type="line"/>
    </contour>
  </outline>
</glyph>
<glyph name="taMatraI" format="1">
  <advance width="365"/>
  <unicode hex="0BBF"/>
  <outline>
    <contour>
      <point x="-191" y="703"/>
      <point x="-236" y="550" type="curve"/>
      <point x="-171" y="509" type="line"/>
      <point x="-146" y="614"/>
      <point x="-81" y="657"/>
      <point x="-17" y="657" type="curve" smooth="yes"/>
      <point x="86" y="657"/>
      <point x="129" y="598"/>
      <point x="129" y="479" type="curve" smooth="yes"/>
      <point x="130" y="0" type="line"/>
      <point x="219" y="0" type="line"/>
      <point x="217" y="479" type="line" smooth="yes"/>
      <point x="216" y="662"/>
      <point x="137" y="747"/>
      <point x="-14" y="746" type="curve" smooth="yes"/>
      <point x="-90" y="745"/>
    </contour>
  </outline>
</glyph>
<glyph name="taMatraIi" format="1">
  <advance width="0"/>
  <unicode hex="0BC0"/>
  <outline>
    <contour>
      <point x="0" y="560" type="curve"/>
      <point x="-3" y="484" type="line"/>
      <point x="-59" y="484"/>
      <point x="-162" y="529"/>
      <point x="-162" y="674" type="curve" smooth="yes"/>
      <point x="-162" y="833"/>
      <point x="-47" y="903"/>
      <point x="68" y="902" type="curve" smooth="yes"/>
      <point x="173" y="901"/>
      <point x="216" y="825"/>
      <point x="216" y="738" type="curve" smooth="yes"/>
      <point x="216" y="620"/>
      <point x="148" y="590"/>
      <point x="94" y="590" type="curve" smooth="yes"/>
      <point x="26" y="590"/>
      <point x="-30" y="632"/>
      <point x="-31" y="731" type="curve" smooth="yes"/>
      <point x="-31" y="812"/>
      <point x="24" y="863"/>
      <point x="60" y="884" type="curve"/>
      <point x="91" y="823" type="line"/>
      <point x="57" y="823"/>
      <point x="39" y="776"/>
      <point x="39" y="737" type="curve" smooth="yes"/>
      <point x="39" y="679"/>
      <point x="64" y="655"/>
      <point x="94" y="655" type="curve" smooth="yes"/>
      <point x="126" y="655"/>
      <point x="144" y="689"/>
      <point x="144" y="738" type="curve" smooth="yes"/>
      <point x="144" y="776"/>
      <point x="132" y="823"/>
      <point x="91" y="823" type="curve" smooth="yes"/>
      <point x="-21" y="823"/>
      <point x="-76" y="767"/>
      <point x="-76" y="673" type="curve" smooth="yes"/>
      <point x="-76" y="597"/>
      <point x="-38" y="561"/>
    </contour>
    <contour>
      <point x="0" y="560" type="move" name="_MatraIi"/>
    </contour>
    <contour>
      <point x="0" y="560" type="move" name="_i"/>
    </contour>
  </outline>
</glyph>
<glyph name="taMatraU" format="1">
  <advance width="377"/>
  <unicode hex="0BC1"/>
  <outline>
    <contour>
      <point x="281" y="211"/>
      <point x="193" y="211" type="curve" smooth="yes"/>
      <point x="98" y="211"/>
      <point x="47" y="282"/>
      <point x="47" y="373" type="curve" smooth="yes"/>
      <point x="47" y="480"/>
      <point x="109" y="529"/>
      <point x="189" y="529" type="curve"/>
      <point x="189" y="478" type="line"/>
      <point x="148" y="478"/>
      <point x="130" y="430"/>
      <point x="130" y="382" type="curve" smooth="yes"/>
      <point x="130" y="336"/>
      <point x="149" y="291"/>
      <point x="188" y="291" type="curve" smooth="yes"/>
      <point x="229" y="291"/>
      <point x="246" y="338"/>
      <point x="246" y="385" type="curve" smooth="yes"/>
      <point x="246" y="451"/>
      <point x="218" y="478"/>
      <point x="187" y="478" type="curve" smooth="yes"/>
      <point x="-179" y="478" type="line"/>
      <point x="-179" y="560" type="line"/>
      <point x="154" y="560" type="line" smooth="yes"/>
      <point x="238" y="560"/>
      <point x="337" y="532"/>
      <point x="337" y="385" type="curve" smooth="yes"/>
      <point x="337" y="272"/>
    </contour>
    <contour>
      <point x="-179" y="560" type="move" name="_MatraU"/>
    </contour>
    <contour>
      <point x="-179" y="560" type="move" name="anchor"/>
    </contour>
  </outline>
</glyph>
<glyph name="uMatra-tamil" format="2">
	<advance width="377"/>
	<unicode hex="0BC1"/>
	<anchor x="-179" y="560" name="_MatraU"/>
	<anchor x="-179" y="560" name="anchor"/>
	<outline>
		<contour>
			<point x="281" y="211"/>
			<point x="193" y="211" type="curve" smooth="yes"/>
			<point x="98" y="211"/>
			<point x="47" y="282"/>
			<point x="47" y="373" type="curve" smooth="yes"/>
			<point x="47" y="480"/>
			<point x="109" y="529"/>
			<point x="189" y="529" type="curve"/>
			<point x="189" y="478" type="line"/>
			<point x="148" y="478"/>
			<point x="130" y="430"/>
			<point x="130" y="382" type="curve" smooth="yes"/>
			<point x="130" y="336"/>
			<point x="149" y="291"/>
			<point x="188" y="291" type="curve" smooth="yes"/>
			<point x="229" y="291"/>
			<point x="246" y="338"/>
			<point x="246" y="385" type="curve" smooth="yes"/>
			<point x="246" y="451"/>
			<point x="218" y="478"/>
			<point x="187" y="478" type="curve" smooth="yes"/>
			<point x="-179" y="478" type="line"/>
			<point x="-179" y="560" type="line"/>
			<point x="154" y="560" type="line" smooth="yes"/>
			<point x="238" y="560"/>
			<point x="337" y="532"/>
			<point x="337" y="385" type="curve" smooth="yes"/>
			<point x="337" y="272"/>
		</contour>
	</outline>
</glyph>
<glyph name="taMatraE" format="1">
  <advance width="623"/>
  <unicode hex="0BC6"/>
  <outline>
    <contour>
      <point x="301" y="-29"/>
      <point x="206" y="-29" type="curve" smooth="yes"/>
      <point x="74" y="-29"/>
      <point x="39" y="147"/>
      <point x="39" y="348" type="curve" smooth="yes"/>
      <point x="39" y="633"/>
      <point x="166" y="806"/>
      <point x="341" y="806" type="curve" smooth="yes"/>
      <point x="509" y="807"/>
      <point x="573" y="676"/>
      <point x="574" y="440" type="curve" smooth="yes"/>
      <point x="575" y="0" type="line"/>
      <point x="486" y="0" type="line"/>
      <point x="485" y="436" type="line"/>
      <point x="485" y="633"/>
      <point x="433" y="717"/>
      <point x="337" y="717" type="curve" smooth="yes"/>
      <point x="220" y="717"/>
      <point x="126" y="579"/>
      <point x="126" y="371" type="curve" smooth="yes"/>
      <point x="126" y="318"/>
      <point x="132" y="274"/>
      <point x="138" y="168" type="curve" smooth="yes"/>
      <point x="144" y="112"/>
      <point x="162" y="52"/>
      <point x="207" y="52" type="curve" smooth="yes"/>
      <point x="256" y="52"/>
      <point x="272" y="116"/>
      <point x="272" y="182" type="curve" smooth="yes"/>
      <point x="272" y="255"/>
      <point x="253" y="318"/>
      <point x="206" y="318" type="curve" smooth="yes"/>
      <point x="161" y="318"/>
      <point x="132" y="259"/>
      <point x="138" y="169" type="curve"/>
      <point x="78" y="218" type="line"/>
      <point x="76" y="304"/>
      <point x="120" y="401"/>
      <point x="211" y="401" type="curve" smooth="yes"/>
      <point x="304" y="401"/>
      <point x="353" y="307"/>
      <point x="353" y="178" type="curve" smooth="yes"/>
      <point x="353" y="57"/>
    </contour>
  </outline>
</glyph>
<glyph name="taMatraEe" format="1">
  <advance width="505"/>
  <unicode hex="0BC7"/>
  <outline>
    <contour>
      <point x="405" y="-19"/>
      <point x="305" y="-19" type="curve" smooth="yes"/>
      <point x="122" y="-19"/>
      <point x="36" y="153"/>
      <point x="36" y="383" type="curve" smooth="yes"/>
      <point x="36" y="633"/>
      <point x="144" y="807"/>
      <point x="305" y="807" type="curve" smooth="yes"/>
      <point x="404" y="807"/>
      <point x="455" y="725"/>
      <point x="455" y="613" type="curve" smooth="yes"/>
      <point x="455" y="479"/>
      <point x="383" y="421"/>
      <point x="314" y="421" type="curve" smooth="yes"/>
      <point x="234" y="421"/>
      <point x="181" y="496"/>
      <point x="182" y="588" type="curve" smooth="yes"/>
      <point x="184" y="710"/>
      <point x="249" y="754"/>
      <point x="271" y="755" type="curve"/>
      <point x="311" y="726" type="line"/>
      <point x="294" y="726"/>
      <point x="251" y="707"/>
      <point x="251" y="615" type="curve" smooth="yes"/>
      <point x="250" y="541"/>
      <point x="282" y="504"/>
      <point x="312" y="504" type="curve" smooth="yes"/>
      <point x="344" y="504"/>
      <point x="372" y="541"/>
      <point x="372" y="613" type="curve" smooth="yes"/>
      <point x="372" y="659"/>
      <point x="361" y="725"/>
      <point x="312" y="725" type="curve" smooth="yes"/>
      <point x="197" y="725"/>
      <point x="120" y="584"/>
      <point x="120" y="383" type="curve" smooth="yes"/>
      <point x="120" y="201"/>
      <point x="177" y="55"/>
      <point x="310" y="55" type="curve" smooth="yes"/>
      <point x="359" y="55"/>
      <point x="369" y="124"/>
      <point x="369" y="163" type="curve" smooth="yes"/>
      <point x="369" y="242"/>
      <point x="344" y="280"/>
      <point x="310" y="280" type="curve" smooth="yes"/>
      <point x="278" y="280"/>
      <point x="252" y="237"/>
      <point x="253" y="163" type="curve" smooth="yes"/>
      <point x="253" y="124"/>
      <point x="269" y="56"/>
      <point x="309" y="56" type="curve"/>
      <point x="282" y="15" type="line"/>
      <point x="259" y="16"/>
      <point x="188" y="72"/>
      <point x="187" y="173" type="curve" smooth="yes"/>
      <point x="185" y="297"/>
      <point x="241" y="360"/>
      <point x="314" y="360" type="curve" smooth="yes"/>
      <point x="384" y="360"/>
      <point x="455" y="300"/>
      <point x="455" y="165" type="curve" smooth="yes"/>
      <point x="455" y="57"/>
    </contour>
  </outline>
</glyph>
<glyph name="aiMatra-tamil" format="2">
	<advance width="1158"/>
	<unicode hex="0BC8"/>
	<outline>
		<contour>
			<point x="204" y="-23" type="curve" smooth="yes"/>
			<point x="100" y="-23"/>
			<point x="42" y="90"/>
			<point x="42" y="236" type="curve" smooth="yes"/>
			<point x="42" y="469"/>
			<point x="207" y="570"/>
			<point x="349" y="570" type="curve" smooth="yes"/>
			<point x="471" y="570"/>
			<point x="690" y="498"/>
			<point x="690" y="204" type="curve" smooth="yes"/>
			<point x="690" y="58"/>
			<point x="630" y="-23"/>
			<point x="536" y="-23" type="curve" smooth="yes"/>
			<point x="438" y="-23"/>
			<point x="377" y="62"/>
			<point x="377" y="208" type="curve" smooth="yes"/>
			<point x="377" y="408"/>
			<point x="481" y="571"/>
			<point x="679" y="571" type="curve" smooth="yes"/>
			<point x="824" y="571"/>
			<point x="958" y="477"/>
			<point x="956" y="256" type="curve" smooth="yes"/>
			<point x="955" y="109"/>
			<point x="886" y="0"/>
			<point x="767" y="-16" type="curve"/>
			<point x="755" y="68" type="line"/>
			<point x="819" y="76"/>
			<point x="867" y="154"/>
			<point x="867" y="254" type="curve" smooth="yes"/>
			<point x="867" y="406"/>
			<point x="790" y="490"/>
			<point x="671" y="490" type="curve" smooth="yes"/>
			<point x="516" y="490"/>
			<point x="464" y="345"/>
			<point x="464" y="203" type="curve" smooth="yes"/>
			<point x="464" y="121"/>
			<point x="486" y="52"/>
			<point x="538" y="52" type="curve" smooth="yes"/>
			<point x="585" y="52"/>
			<point x="601" y="121"/>
			<point x="601" y="200" type="curve" smooth="yes"/>
			<point x="601" y="414"/>
			<point x="466" y="491"/>
			<point x="342" y="490" type="curve" smooth="yes"/>
			<point x="249" y="489"/>
			<point x="126" y="415"/>
			<point x="126" y="234" type="curve" smooth="yes"/>
			<point x="126" y="161"/>
			<point x="137" y="52"/>
			<point x="203" y="52" type="curve" smooth="yes"/>
			<point x="251" y="52"/>
			<point x="267" y="123"/>
			<point x="267" y="177" type="curve" smooth="yes"/>
			<point x="267" y="246"/>
			<point x="241" y="291"/>
			<point x="201" y="291" type="curve" smooth="yes"/>
			<point x="155" y="291"/>
			<point x="126" y="235"/>
			<point x="130" y="161" type="curve"/>
			<point x="83" y="188" type="line"/>
			<point x="83" y="275"/>
			<point x="131" y="360"/>
			<point x="212" y="360" type="curve" smooth="yes"/>
			<point x="283" y="360"/>
			<point x="347" y="296"/>
			<point x="347" y="171" type="curve" smooth="yes"/>
			<point x="347" y="53"/>
			<point x="290" y="-23"/>
		</contour>
	</outline>
</glyph>
<glyph name="taMatraAi" format="1">
  <advance width="998"/>
  <unicode hex="0BC8"/>
  <outline>
    <contour>
      <point x="290" y="-23"/>
      <point x="204" y="-23" type="curve" smooth="yes"/>
      <point x="100" y="-23"/>
      <point x="42" y="90"/>
      <point x="42" y="236" type="curve" smooth="yes"/>
      <point x="42" y="469"/>
      <point x="207" y="570"/>
      <point x="349" y="570" type="curve" smooth="yes"/>
      <point x="471" y="570"/>
      <point x="690" y="498"/>
      <point x="690" y="204" type="curve" smooth="yes"/>
      <point x="690" y="58"/>
      <point x="630" y="-23"/>
      <point x="536" y="-23" type="curve" smooth="yes"/>
      <point x="438" y="-23"/>
      <point x="377" y="62"/>
      <point x="377" y="208" type="curve" smooth="yes"/>
      <point x="377" y="408"/>
      <point x="481" y="571"/>
      <point x="679" y="571" type="curve" smooth="yes"/>
      <point x="824" y="571"/>
      <point x="958" y="477"/>
      <point x="956" y="256" type="curve" smooth="yes"/>
      <point x="955" y="109"/>
      <point x="886" y="0"/>
      <point x="767" y="-16" type="curve"/>
      <point x="755" y="68" type="line"/>
      <point x="819" y="76"/>
      <point x="867" y="154"/>
      <point x="867" y="254" type="curve" smooth="yes"/>
      <point x="867" y="406"/>
      <point x="790" y="490"/>
      <point x="671" y="490" type="curve" smooth="yes"/>
      <point x="516" y="490"/>
      <point x="464" y="345"/>
      <point x="464" y="203" type="curve" smooth="yes"/>
      <point x="464" y="121"/>
      <point x="486" y="52"/>
      <point x="538" y="52" type="curve" smooth="yes"/>
      <point x="585" y="52"/>
      <point x="601" y="121"/>
      <point x="601" y="200" type="curve" smooth="yes"/>
      <point x="601" y="414"/>
      <point x="466" y="491"/>
      <point x="342" y="490" type="curve" smooth="yes"/>
      <point x="249" y="489"/>
      <point x="126" y="415"/>
      <point x="126" y="234" type="curve" smooth="yes"/>
      <point x="126" y="161"/>
      <point x="137" y="52"/>
      <point x="203" y="52" type="curve" smooth="yes"/>
      <point x="251" y="52"/>
      <point x="267" y="123"/>
      <point x="267" y="177" type="curve" smooth="yes"/>
      <point x="267" y="246"/>
      <point x="241" y="291"/>
      <point x="201" y="291" type="curve" smooth="yes"/>
      <point x="155" y="291"/>
      <point x="126" y="235"/>
      <point x="130" y="161" type="curve"/>
      <point x="83" y="188" type="line"/>
      <point x="83" y="275"/>
      <point x="131" y="360"/>
      <point x="212" y="360" type="curve" smooth="yes"/>
      <point x="283" y="360"/>
      <point x="347" y="296"/>
      <point x="347" y="171" type="curve" smooth="yes"/>
      <point x="347" y="53"/>
    </contour>
  </outline>
</glyph>
<glyph name="pulli-tamil" format="2">
	<advance width="0"/>
	<unicode hex="0BCD"/>
	<anchor x="0" y="674" name="_tm_halant"/>
	<outline>
		<contour>
			<point x="0" y="638" type="curve" smooth="yes"/>
			<point x="34" y="638"/>
			<point x="63" y="667"/>
			<point x="63" y="701" type="curve" smooth="yes"/>
			<point x="63" y="736"/>
			<point x="34" y="765"/>
			<point x="0" y="765" type="curve" smooth="yes"/>
			<point x="-34" y="765"/>
			<point x="-64" y="736"/>
			<point x="-64" y="701" type="curve" smooth="yes"/>
			<point x="-64" y="667"/>
			<point x="-34" y="638"/>
		</contour>
	</outline>
</glyph>
<glyph name="taHalant" format="1">
  <advance width="0"/>
  <unicode hex="0BCD"/>
  <outline>
    <contour>
      <point x="0" y="638" type="curve" smooth="yes"/>
      <point x="34" y="638"/>
      <point x="63" y="667"/>
      <point x="63" y="701" type="curve" smooth="yes"/>
      <point x="63" y="736"/>
      <point x="34" y="765"/>
      <point x="0" y="765" type="curve" smooth="yes"/>
      <point x="-34" y="765"/>
      <point x="-64" y="736"/>
      <point x="-64" y="701" type="curve" smooth="yes"/>
      <point x="-64" y="667"/>
      <point x="-34" y="638"/>
    </contour>
    <contour>
      <point x="0" y="674" type="move" name="_tm_halant"/>
    </contour>
  </outline>
</glyph>
<glyph name="taOm" format="1">
  <advance width="721"/>
  <unicode hex="0BD0"/>
  <outline>
    <contour>
      <point x="31" y="-234"/>
      <point x="31" y="-130" type="curve" smooth="yes"/>
      <point x="31" y="-92"/>
      <point x="53" y="-50"/>
      <point x="89" y="-50" type="curve" smooth="yes"/>
      <point x="116" y="-50"/>
      <point x="139" y="-73"/>
      <point x="139" y="-100" type="curve" smooth="yes"/>
      <point x="139" y="-153" type="line"/>
      <point x="233" y="-153" type="line"/>
      <point x="233" y="-111" type="line" smooth="yes"/>
      <point x="233" y="-80"/>
      <point x="265" y="-59"/>
      <point x="298" y="-59" type="curve" smooth="yes"/>
      <point x="331" y="-59"/>
      <point x="366" y="-81"/>
      <point x="366" y="-113" type="curve" smooth="yes"/>
      <point x="366" y="-183" type="line"/>
      <point x="109" y="-183" type="line"/>
      <point x="109" y="-105" type="line" smooth="yes"/>
      <point x="109" y="-93"/>
      <point x="101" y="-80"/>
      <point x="89" y="-80" type="curve" smooth="yes"/>
      <point x="70" y="-80"/>
      <point x="61" y="-108"/>
      <point x="61" y="-129" type="curve" smooth="yes"/>
      <point x="61" y="-215"/>
      <point x="152" y="-252"/>
      <point x="245" y="-252" type="curve" smooth="yes"/>
      <point x="317" y="-252"/>
      <point x="394" y="-228"/>
      <point x="394" y="-164" type="curve" smooth="yes"/>
      <point x="394" y="-117"/>
      <point x="436" y="-80"/>
      <point x="483" y="-80" type="curve"/>
      <point x="431" y="-66"/>
      <point x="384" y="-20"/>
      <point x="384" y="43" type="curve" smooth="yes"/>
      <point x="384" y="112"/>
      <point x="432" y="178"/>
      <point x="499" y="178" type="curve"/>
      <point x="485" y="162"/>
      <point x="477" y="138"/>
      <point x="477" y="109" type="curve" smooth="yes"/>
      <point x="477" y="71"/>
      <point x="506" y="38"/>
      <point x="543" y="38" type="curve" smooth="yes"/>
      <point x="588" y="38"/>
      <point x="611" y="103"/>
      <point x="611" y="153" type="curve" smooth="yes"/>
      <point x="611" y="274"/>
      <point x="481" y="355"/>
      <point x="341" y="355" type="curve" smooth="yes"/>
      <point x="203" y="355"/>
      <point x="67" y="277"/>
      <point x="67" y="156" type="curve" smooth="yes"/>
      <point x="67" y="95"/>
      <point x="102" y="46"/>
      <point x="147" y="28" type="curve"/>
      <point x="131" y="44"/>
      <point x="119" y="73"/>
      <point x="119" y="105" type="curve" smooth="yes"/>
      <point x="119" y="160"/>
      <point x="162" y="208"/>
      <point x="217" y="208" type="curve" smooth="yes"/>
      <point x="277" y="208"/>
      <point x="329" y="160"/>
      <point x="329" y="100" type="curve" smooth="yes"/>
      <point x="329" y="37"/>
      <point x="271" y="-10"/>
      <point x="206" y="-10" type="curve" smooth="yes"/>
      <point x="114" y="-10"/>
      <point x="37" y="64"/>
      <point x="37" y="156" type="curve" smooth="yes"/>
      <point x="37" y="317"/>
      <point x="177" y="399"/>
      <point x="346" y="399" type="curve" smooth="yes"/>
      <point x="525" y="399"/>
      <point x="686" y="321"/>
      <point x="686" y="154" type="curve" smooth="yes"/>
      <point x="686" y="75"/>
      <point x="622" y="8"/>
      <point x="543" y="8" type="curve" smooth="yes"/>
      <point x="489" y="8"/>
      <point x="447" y="54"/>
      <point x="447" y="108" type="curve" smooth="yes"/>
      <point x="447" y="116"/>
      <point x="447" y="123"/>
      <point x="447" y="131" type="curve"/>
      <point x="425" y="116"/>
      <point x="414" y="79"/>
      <point x="414" y="40" type="curve" smooth="yes"/>
      <point x="414" y="-31"/>
      <point x="497" y="-74"/>
      <point x="572" y="-74" type="curve" smooth="yes"/>
      <point x="666" y="-74" type="line"/>
      <point x="666" y="-104" type="line"/>
      <point x="528" y="-104" type="line" smooth="yes"/>
      <point x="493" y="-104"/>
      <point x="469" y="-139"/>
      <point x="469" y="-176" type="curve" smooth="yes"/>
      <point x="469" y="-208"/>
      <point x="449" y="-234"/>
      <point x="408" y="-253" type="curve" smooth="yes"/>
      <point x="367" y="-272"/>
      <point x="312" y="-282"/>
      <point x="244" y="-282" type="curve" smooth="yes"/>
      <point x="133" y="-282"/>
    </contour>
    <contour>
      <point x="149" y="142"/>
      <point x="149" y="106" type="curve" smooth="yes"/>
      <point x="149" y="69"/>
      <point x="163" y="20"/>
      <point x="195" y="20" type="curve" smooth="yes"/>
      <point x="231" y="20"/>
      <point x="254" y="64"/>
      <point x="254" y="104" type="curve" smooth="yes"/>
      <point x="254" y="137"/>
      <point x="239" y="178"/>
      <point x="209" y="178" type="curve" smooth="yes"/>
      <point x="174" y="178"/>
    </contour>
    <contour>
      <point x="277" y="-99"/>
      <point x="277" y="-109" type="curve" smooth="yes"/>
      <point x="277" y="-153" type="line"/>
      <point x="322" y="-153" type="line"/>
      <point x="322" y="-109" type="line" smooth="yes"/>
      <point x="322" y="-98"/>
      <point x="309" y="-89"/>
      <point x="296" y="-89" type="curve" smooth="yes"/>
      <point x="286" y="-89"/>
    </contour>
    <contour>
      <point x="287" y="-28"/>
      <point x="287" y="-8" type="curve" smooth="yes"/>
      <point x="287" y="12"/>
      <point x="309" y="23"/>
      <point x="329" y="23" type="curve" smooth="yes"/>
      <point x="347" y="23"/>
      <point x="362" y="8"/>
      <point x="362" y="-9" type="curve" smooth="yes"/>
      <point x="362" y="-26"/>
      <point x="347" y="-41"/>
      <point x="329" y="-41" type="curve" smooth="yes"/>
      <point x="309" y="-41"/>
    </contour>
  </outline>
</glyph>
<glyph name="auLength-tamil" format="2">
	<advance width="931"/>
	<unicode hex="0BD7"/>
	<anchor x="823" y="560" name="MatraIi"/>
	<anchor x="43" y="228" name="MatraAi.alt"/>
	<anchor x="809" y="560" name="MatraI.alt2"/>
	<anchor x="459" y="669" name="tm_halant"/>
	<outline>
		<contour>
			<point x="349" y="173" type="curve" smooth="yes"/>
			<point x="349" y="55"/>
			<point x="293" y="-23"/>
			<point x="201" y="-23" type="curve" smooth="yes"/>
			<point x="100" y="-23"/>
			<point x="42" y="89"/>
			<point x="42" y="243" type="curve" smooth="yes"/>
			<point x="42" y="445"/>
			<point x="129" y="572"/>
			<point x="277" y="572" type="curve" smooth="yes"/>
			<point x="402" y="572"/>
			<point x="494" y="450"/>
			<point x="494" y="248" type="curve"/>
			<point x="424" y="264" type="line"/>
			<point x="424" y="404"/>
			<point x="367" y="492"/>
			<point x="278" y="492" type="curve" smooth="yes"/>
			<point x="177" y="492"/>
			<point x="126" y="386"/>
			<point x="126" y="250" type="curve" smooth="yes"/>
			<point x="126" y="156"/>
			<point x="144" y="59"/>
			<point x="202" y="59" type="curve" smooth="yes"/>
			<point x="252" y="59"/>
			<point x="267" y="123"/>
			<point x="267" y="176" type="curve" smooth="yes"/>
			<point x="267" y="252"/>
			<point x="237" y="291"/>
			<point x="203" y="291" type="curve" smooth="yes"/>
			<point x="153" y="291"/>
			<point x="128" y="235"/>
			<point x="133" y="161" type="curve"/>
			<point x="81" y="188" type="line"/>
			<point x="81" y="268"/>
			<point x="130" y="360"/>
			<point x="210" y="360" type="curve" smooth="yes"/>
			<point x="283" y="360"/>
			<point x="349" y="295"/>
		</contour>
		<contour>
			<point x="513" y="1" type="line"/>
			<point x="424" y="1" type="line"/>
			<point x="424" y="456" type="line"/>
			<point x="435" y="464" type="line"/>
			<point x="435" y="560" type="line"/>
			<point x="881" y="560" type="line"/>
			<point x="881" y="478" type="line"/>
			<point x="768" y="478" type="line"/>
			<point x="768" y="1" type="line"/>
			<point x="680" y="1" type="line"/>
			<point x="680" y="478" type="line"/>
			<point x="513" y="478" type="line"/>
		</contour>
	</outline>
</glyph>
<glyph name="day-tamil" format="2">
	<advance width="627"/>
	<unicode hex="0BF3"/>
	<outline>
		<contour>
			<point x="292" y="-23"/>
			<point x="201" y="-23" type="curve" smooth="yes"/>
			<point x="100" y="-23"/>
			<point x="42" y="89"/>
			<point x="42" y="243" type="curve" smooth="yes"/>
			<point x="42" y="444"/>
			<point x="132" y="570"/>
			<point x="284" y="570" type="curve" smooth="yes"/>
			<point x="414" y="570"/>
			<point x="511" y="459"/>
			<point x="510" y="279" type="curve" smooth="yes"/>
			<point x="509" y="165"/>
			<point x="481" y="96"/>
			<point x="458" y="42" type="curve"/>
			<point x="388" y="70" type="line"/>
			<point x="404" y="106"/>
			<point x="424" y="173"/>
			<point x="424" y="268" type="curve" smooth="yes"/>
			<point x="424" y="400"/>
			<point x="370" y="490"/>
			<point x="283" y="490" type="curve" smooth="yes"/>
			<point x="178" y="490"/>
			<point x="126" y="385"/>
			<point x="126" y="250" type="curve" smooth="yes"/>
			<point x="126" y="156"/>
			<point x="144" y="59"/>
			<point x="202" y="59" type="curve" smooth="yes"/>
			<point x="252" y="59"/>
			<point x="267" y="123"/>
			<point x="267" y="176" type="curve" smooth="yes"/>
			<point x="267" y="252"/>
			<point x="237" y="291"/>
			<point x="203" y="291" type="curve" smooth="yes"/>
			<point x="153" y="291"/>
			<point x="128" y="235"/>
			<point x="133" y="161" type="curve"/>
			<point x="83" y="188" type="line"/>
			<point x="83" y="275"/>
			<point x="132" y="360"/>
			<point x="212" y="360" type="curve" smooth="yes"/>
			<point x="283" y="360"/>
			<point x="347" y="295"/>
			<point x="347" y="173" type="curve" smooth="yes"/>
			<point x="347" y="55"/>
		</contour>
		<contour>
			<point x="388" y="1" type="line"/>
			<point x="388" y="70" type="line"/>
			<point x="473" y="83" type="line"/>
			<point x="610" y="83" type="line"/>
			<point x="610" y="1" type="line"/>
		</contour>
	</outline>
</glyph>
<glyph name="month-tamil" format="2">
	<advance width="1024"/>
	<unicode hex="0BF4"/>
	<outline>
		<contour>
			<point x="399" y="533" type="line"/>
			<point x="343" y="684"/>
			<point x="431" y="800"/>
			<point x="585" y="800" type="curve" smooth="yes"/>
			<point x="714" y="800"/>
			<point x="777" y="724"/>
			<point x="777" y="640" type="curve" smooth="yes"/>
			<point x="777" y="567"/>
			<point x="725" y="532"/>
			<point x="667" y="532" type="curve" smooth="yes"/>
			<point x="608" y="532"/>
			<point x="557" y="567"/>
			<point x="557" y="640" type="curve" smooth="yes"/>
			<point x="557" y="730"/>
			<point x="632" y="800"/>
			<point x="748" y="800" type="curve" smooth="yes"/>
			<point x="848" y="800"/>
			<point x="947" y="735"/>
			<point x="918" y="631" type="curve"/>
			<point x="1046" y="631" type="line"/>
			<point x="1046" y="557" type="line"/>
			<point x="839" y="557" type="line"/>
			<point x="839" y="608" type="line"/>
			<point x="879" y="655"/>
			<point x="840" y="730"/>
			<point x="758" y="730" type="curve" smooth="yes"/>
			<point x="675" y="730"/>
			<point x="624" y="697"/>
			<point x="624" y="641" type="curve" smooth="yes"/>
			<point x="624" y="612"/>
			<point x="643" y="596"/>
			<point x="667" y="596" type="curve" smooth="yes"/>
			<point x="689" y="596"/>
			<point x="709" y="611"/>
			<point x="709" y="641" type="curve" smooth="yes"/>
			<point x="709" y="696"/>
			<point x="647" y="732"/>
			<point x="582" y="732" type="curve" smooth="yes"/>
			<point x="500" y="732"/>
			<point x="425" y="675"/>
			<point x="468" y="549" type="curve"/>
		</contour>
		<component base="ma-tamil" xOffset="25"/>
	</outline>
</glyph>
<glyph name="year-tamil" format="2">
	<advance width="1780"/>
	<unicode hex="0BF5"/>
	<outline>
		<contour>
			<point x="416" y="-23" type="curve" smooth="yes"/>
			<point x="315" y="-23"/>
			<point x="257" y="89"/>
			<point x="257" y="243" type="curve" smooth="yes"/>
			<point x="257" y="444"/>
			<point x="347" y="572"/>
			<point x="499" y="572" type="curve" smooth="yes"/>
			<point x="629" y="572"/>
			<point x="726" y="461"/>
			<point x="725" y="280" type="curve" smooth="yes"/>
			<point x="724" y="182"/>
			<point x="700" y="96"/>
			<point x="677" y="42" type="curve"/>
			<point x="603" y="70" type="line"/>
			<point x="619" y="106"/>
			<point x="639" y="173"/>
			<point x="639" y="268" type="curve" smooth="yes"/>
			<point x="639" y="400"/>
			<point x="585" y="492"/>
			<point x="498" y="492" type="curve" smooth="yes"/>
			<point x="393" y="492"/>
			<point x="341" y="385"/>
			<point x="341" y="250" type="curve" smooth="yes"/>
			<point x="341" y="156"/>
			<point x="359" y="59"/>
			<point x="417" y="59" type="curve" smooth="yes"/>
			<point x="467" y="59"/>
			<point x="483" y="123"/>
			<point x="483" y="176" type="curve" smooth="yes"/>
			<point x="483" y="252"/>
			<point x="452" y="291"/>
			<point x="418" y="291" type="curve" smooth="yes"/>
			<point x="368" y="291"/>
			<point x="343" y="235"/>
			<point x="348" y="161" type="curve"/>
			<point x="298" y="188" type="line"/>
			<point x="298" y="275"/>
			<point x="347" y="360"/>
			<point x="427" y="360" type="curve" smooth="yes"/>
			<point x="498" y="360"/>
			<point x="562" y="295"/>
			<point x="562" y="173" type="curve" smooth="yes"/>
			<point x="562" y="55"/>
			<point x="507" y="-23"/>
		</contour>
		<contour>
			<point x="603" y="1" type="line"/>
			<point x="603" y="70" type="line"/>
			<point x="691" y="84" type="line"/>
			<point x="826" y="84" type="line"/>
			<point x="826" y="559" type="line"/>
			<point x="915" y="559" type="line"/>
			<point x="915" y="1" type="line"/>
		</contour>
		<contour>
			<point x="1172" y="0" type="line"/>
			<point x="1082" y="0" type="line"/>
			<point x="1083" y="478" type="line"/>
			<point x="827" y="478" type="line"/>
			<point x="827" y="560" type="line"/>
			<point x="1285" y="560" type="line"/>
			<point x="1285" y="478" type="line"/>
			<point x="1173" y="478" type="line"/>
		</contour>
		<contour>
			<point x="1238" y="-348"/>
			<point x="792" y="-348" type="curve" smooth="yes"/>
			<point x="265" y="-348"/>
			<point x="42" y="-86"/>
			<point x="42" y="234" type="curve" smooth="yes"/>
			<point x="42" y="632"/>
			<point x="350" y="850"/>
			<point x="800" y="850" type="curve" smooth="yes"/>
			<point x="1227" y="850"/>
			<point x="1513" y="678"/>
			<point x="1534" y="406" type="curve" smooth="yes"/>
			<point x="1538" y="361"/>
			<point x="1559" y="338"/>
			<point x="1595" y="338" type="curve" smooth="yes"/>
			<point x="1624" y="338"/>
			<point x="1650" y="356"/>
			<point x="1650" y="408" type="curve" smooth="yes"/>
			<point x="1650" y="560" type="line"/>
			<point x="1738" y="560" type="line"/>
			<point x="1738" y="394" type="line" smooth="yes"/>
			<point x="1738" y="305"/>
			<point x="1682" y="250"/>
			<point x="1596" y="250" type="curve" smooth="yes"/>
			<point x="1513" y="251"/>
			<point x="1453" y="312"/>
			<point x="1446" y="398" type="curve" smooth="yes"/>
			<point x="1431" y="624"/>
			<point x="1130" y="762"/>
			<point x="800" y="762" type="curve" smooth="yes"/>
			<point x="417" y="762"/>
			<point x="130" y="592"/>
			<point x="130" y="238" type="curve" smooth="yes"/>
			<point x="130" y="-22"/>
			<point x="314" y="-260"/>
			<point x="800" y="-260" type="curve" smooth="yes"/>
			<point x="1158" y="-260"/>
			<point x="1313" y="-70"/>
			<point x="1313" y="126" type="curve" smooth="yes"/>
			<point x="1313" y="224"/>
			<point x="1276" y="276"/>
			<point x="1232" y="276" type="curve" smooth="yes"/>
			<point x="1185" y="276"/>
			<point x="1172" y="233"/>
			<point x="1172" y="204" type="curve"/>
			<point x="1130" y="231" type="line"/>
			<point x="1130" y="304"/>
			<point x="1179" y="352"/>
			<point x="1241" y="352" type="curve" smooth="yes"/>
			<point x="1337" y="352"/>
			<point x="1398" y="267"/>
			<point x="1398" y="124" type="curve" smooth="yes"/>
			<point x="1398" y="-111"/>
		</contour>
	</outline>
</glyph>
<glyph name="taDebit" format="1">
  <advance width="778"/>
  <unicode hex="0BF6"/>
  <outline>
    <contour>
      <point x="544" y="3" type="line"/>
      <point x="544" y="-215"/>
      <point x="448" y="-347"/>
      <point x="283" y="-347" type="curve" smooth="yes"/>
      <point x="139" y="-347"/>
      <point x="42" y="-269"/>
      <point x="42" y="-183" type="curve" smooth="yes"/>
      <point x="42" y="-126"/>
      <point x="84" y="-76"/>
      <point x="173" y="-76" type="curve" smooth="yes"/>
      <point x="635" y="-75" type="line"/>
      <point x="635" y="560" type="line"/>
      <point x="723" y="560" type="line"/>
      <point x="723" y="-156" type="line"/>
      <point x="183" y="-155" type="line" smooth="yes"/>
      <point x="149" y="-155"/>
      <point x="130" y="-163"/>
      <point x="130" y="-191" type="curve" smooth="yes"/>
      <point x="130" y="-231"/>
      <point x="197" y="-266"/>
      <point x="283" y="-266" type="curve" smooth="yes"/>
      <point x="399" y="-266"/>
      <point x="457" y="-178"/>
      <point x="455" y="4" type="curve"/>
    </contour>
    <component base="taPa" xOffset="51"/>
  </outline>
</glyph>
<glyph name="credit-tamil" format="2">
	<advance width="1145"/>
	<unicode hex="0BF7"/>
	<outline>
		<contour>
			<point x="729" y="-24" type="curve" smooth="yes"/>
			<point x="632" y="-24"/>
			<point x="578" y="50"/>
			<point x="578" y="154" type="curve" smooth="yes"/>
			<point x="578" y="289"/>
			<point x="664" y="404"/>
			<point x="813" y="404" type="curve" smooth="yes"/>
			<point x="969" y="404"/>
			<point x="1033" y="283"/>
			<point x="1033" y="176" type="curve" smooth="yes"/>
			<point x="1033" y="72"/>
			<point x="985" y="20"/>
			<point x="980" y="15" type="curve"/>
			<point x="913" y="46" type="line"/>
			<point x="921" y="55"/>
			<point x="957" y="89"/>
			<point x="957" y="168" type="curve" smooth="yes"/>
			<point x="957" y="259"/>
			<point x="901" y="333"/>
			<point x="813" y="333" type="curve" smooth="yes"/>
			<point x="718" y="333"/>
			<point x="661" y="242"/>
			<point x="661" y="151" type="curve" smooth="yes"/>
			<point x="661" y="100"/>
			<point x="686" y="58"/>
			<point x="730" y="58" type="curve" smooth="yes"/>
			<point x="767" y="58"/>
			<point x="785" y="95"/>
			<point x="785" y="141" type="curve" smooth="yes"/>
			<point x="785" y="207"/>
			<point x="741" y="233"/>
			<point x="688" y="233" type="curve" smooth="yes"/>
			<point x="480" y="233" type="line"/>
			<point x="480" y="314" type="line"/>
			<point x="620" y="314" type="line" smooth="yes"/>
			<point x="642" y="314"/>
			<point x="680" y="309"/>
			<point x="699" y="307" type="curve" smooth="yes"/>
			<point x="758" y="306"/>
			<point x="874" y="274"/>
			<point x="874" y="141" type="curve" smooth="yes"/>
			<point x="873" y="37"/>
			<point x="819" y="-24"/>
		</contour>
		<contour>
			<point x="913" y="0" type="line"/>
			<point x="913" y="46" type="line"/>
			<point x="952" y="78" type="line"/>
			<point x="1122" y="78" type="line"/>
			<point x="1122" y="0" type="line"/>
		</contour>
		<component base="e-tamil" xOffset="9"/>
	</outline>
</glyph>
<glyph name="taCredit" format="1">
  <advance width="1145"/>
  <unicode hex="0BF7"/>
  <outline>
    <contour>
      <point x="729" y="-24" type="curve" smooth="yes"/>
      <point x="632" y="-24"/>
      <point x="578" y="50"/>
      <point x="578" y="154" type="curve" smooth="yes"/>
      <point x="578" y="289"/>
      <point x="664" y="404"/>
      <point x="813" y="404" type="curve" smooth="yes"/>
      <point x="969" y="404"/>
      <point x="1033" y="283"/>
      <point x="1033" y="176" type="curve" smooth="yes"/>
      <point x="1033" y="72"/>
      <point x="985" y="20"/>
      <point x="980" y="15" type="curve"/>
      <point x="913" y="46" type="line"/>
      <point x="921" y="55"/>
      <point x="957" y="89"/>
      <point x="957" y="168" type="curve" smooth="yes"/>
      <point x="957" y="259"/>
      <point x="901" y="333"/>
      <point x="813" y="333" type="curve" smooth="yes"/>
      <point x="718" y="333"/>
      <point x="661" y="242"/>
      <point x="661" y="151" type="curve" smooth="yes"/>
      <point x="661" y="100"/>
      <point x="686" y="58"/>
      <point x="730" y="58" type="curve" smooth="yes"/>
      <point x="767" y="58"/>
      <point x="785" y="95"/>
      <point x="785" y="141" type="curve" smooth="yes"/>
      <point x="785" y="207"/>
      <point x="741" y="233"/>
      <point x="688" y="233" type="curve" smooth="yes"/>
      <point x="480" y="233" type="line"/>
      <point x="480" y="314" type="line"/>
      <point x="620" y="314" type="line" smooth="yes"/>
      <point x="642" y="314"/>
      <point x="680" y="309"/>
      <point x="699" y="307" type="curve" smooth="yes"/>
      <point x="758" y="306"/>
      <point x="874" y="274"/>
      <point x="874" y="141" type="curve" smooth="yes"/>
      <point x="873" y="37"/>
      <point x="819" y="-24"/>
    </contour>
    <contour>
      <point x="913" y="0" type="line"/>
      <point x="913" y="46" type="line"/>
      <point x="952" y="78" type="line"/>
      <point x="1122" y="78" type="line"/>
      <point x="1122" y="0" type="line"/>
    </contour>
    <component base="taE" xOffset="9"/>
  </outline>
</glyph>
<glyph name="asabove-tamil" format="2">
	<advance width="1214"/>
	<unicode hex="0BF8"/>
	<outline>
		<contour>
			<point x="42" y="316" type="curve" smooth="yes"/>
			<point x="42" y="588"/>
			<point x="198" y="756"/>
			<point x="388" y="756" type="curve" smooth="yes"/>
			<point x="577" y="756"/>
			<point x="691" y="572"/>
			<point x="691" y="341" type="curve" smooth="yes"/>
			<point x="691" y="118"/>
			<point x="625" y="-28"/>
			<point x="515" y="-28" type="curve" smooth="yes"/>
			<point x="438" y="-28"/>
			<point x="386" y="16"/>
			<point x="386" y="115" type="curve" smooth="yes"/>
			<point x="386" y="264"/>
			<point x="480" y="403"/>
			<point x="626" y="403" type="curve" smooth="yes"/>
			<point x="734" y="403"/>
			<point x="825" y="322"/>
			<point x="824" y="192" type="curve" smooth="yes"/>
			<point x="823" y="149"/>
			<point x="809" y="109"/>
			<point x="793" y="81" type="curve"/>
			<point x="1069" y="81" type="line" smooth="yes"/>
			<point x="1082" y="81"/>
			<point x="1090" y="85"/>
			<point x="1090" y="96" type="curve" smooth="yes"/>
			<point x="1090" y="105"/>
			<point x="1085" y="109"/>
			<point x="1070" y="118" type="curve" smooth="yes"/>
			<point x="915" y="217" type="line"/>
			<point x="867" y="245"/>
			<point x="843" y="283"/>
			<point x="843" y="329" type="curve" smooth="yes"/>
			<point x="844" y="416"/>
			<point x="909" y="449"/>
			<point x="962" y="449" type="curve" smooth="yes"/>
			<point x="1053" y="449"/>
			<point x="1090" y="371"/>
			<point x="1070" y="283" type="curve" smooth="yes"/>
			<point x="974" y="-148" type="line"/>
			<point x="889" y="-148" type="line"/>
			<point x="985" y="280" type="line" smooth="yes"/>
			<point x="994" y="316"/>
			<point x="995" y="367"/>
			<point x="960" y="367" type="curve" smooth="yes"/>
			<point x="936" y="367"/>
			<point x="925" y="350"/>
			<point x="925" y="333" type="curve" smooth="yes"/>
			<point x="925" y="315"/>
			<point x="934" y="303"/>
			<point x="955" y="289" type="curve" smooth="yes"/>
			<point x="1111" y="186" type="line" smooth="yes"/>
			<point x="1166" y="154"/>
			<point x="1172" y="124"/>
			<point x="1172" y="95" type="curve" smooth="yes"/>
			<point x="1172" y="33"/>
			<point x="1129" y="0"/>
			<point x="1070" y="0" type="curve" smooth="yes"/>
			<point x="691" y="0" type="line"/>
			<point x="691" y="64" type="line"/>
			<point x="720" y="95"/>
			<point x="745" y="137"/>
			<point x="745" y="189" type="curve" smooth="yes"/>
			<point x="745" y="271"/>
			<point x="692" y="322"/>
			<point x="619" y="322" type="curve" smooth="yes"/>
			<point x="519" y="322"/>
			<point x="466" y="198"/>
			<point x="466" y="119" type="curve" smooth="yes"/>
			<point x="466" y="81"/>
			<point x="478" y="53"/>
			<point x="509" y="53" type="curve" smooth="yes"/>
			<point x="571" y="53"/>
			<point x="605" y="194"/>
			<point x="605" y="337" type="curve" smooth="yes"/>
			<point x="605" y="489"/>
			<point x="542" y="666"/>
			<point x="380" y="666" type="curve" smooth="yes"/>
			<point x="202" y="666"/>
			<point x="109" y="436"/>
			<point x="127" y="222" type="curve" smooth="yes"/>
			<point x="133" y="137"/>
			<point x="157" y="52"/>
			<point x="212" y="52" type="curve" smooth="yes"/>
			<point x="263" y="52"/>
			<point x="273" y="122"/>
			<point x="273" y="182" type="curve" smooth="yes"/>
			<point x="273" y="255"/>
			<point x="245" y="318"/>
			<point x="197" y="318" type="curve" smooth="yes"/>
			<point x="149" y="318"/>
			<point x="125" y="261"/>
			<point x="134" y="172" type="curve"/>
			<point x="80" y="215" type="line"/>
			<point x="76" y="299"/>
			<point x="116" y="401"/>
			<point x="209" y="401" type="curve" smooth="yes"/>
			<point x="302" y="401"/>
			<point x="355" y="307"/>
			<point x="355" y="178" type="curve" smooth="yes"/>
			<point x="355" y="60"/>
			<point x="307" y="-29"/>
			<point x="210" y="-29" type="curve" smooth="yes"/>
			<point x="79" y="-29"/>
			<point x="42" y="158"/>
		</contour>
	</outline>
</glyph>
<glyph name="taAbove" format="1">
  <advance width="1214"/>
  <unicode hex="0BF8"/>
  <outline>
    <contour>
      <point x="42" y="316" type="curve" smooth="yes"/>
      <point x="42" y="588"/>
      <point x="198" y="756"/>
      <point x="388" y="756" type="curve" smooth="yes"/>
      <point x="577" y="756"/>
      <point x="691" y="572"/>
      <point x="691" y="341" type="curve" smooth="yes"/>
      <point x="691" y="118"/>
      <point x="625" y="-28"/>
      <point x="515" y="-28" type="curve" smooth="yes"/>
      <point x="438" y="-28"/>
      <point x="386" y="16"/>
      <point x="386" y="115" type="curve" smooth="yes"/>
      <point x="386" y="264"/>
      <point x="480" y="403"/>
      <point x="626" y="403" type="curve" smooth="yes"/>
      <point x="734" y="403"/>
      <point x="825" y="322"/>
      <point x="824" y="192" type="curve" smooth="yes"/>
      <point x="823" y="149"/>
      <point x="809" y="109"/>
      <point x="793" y="81" type="curve"/>
      <point x="1069" y="81" type="line" smooth="yes"/>
      <point x="1082" y="81"/>
      <point x="1090" y="85"/>
      <point x="1090" y="96" type="curve" smooth="yes"/>
      <point x="1090" y="105"/>
      <point x="1085" y="109"/>
      <point x="1070" y="118" type="curve" smooth="yes"/>
      <point x="915" y="217" type="line"/>
      <point x="867" y="245"/>
      <point x="843" y="283"/>
      <point x="843" y="329" type="curve" smooth="yes"/>
      <point x="844" y="416"/>
      <point x="909" y="449"/>
      <point x="962" y="449" type="curve" smooth="yes"/>
      <point x="1053" y="449"/>
      <point x="1090" y="371"/>
      <point x="1070" y="283" type="curve" smooth="yes"/>
      <point x="974" y="-148" type="line"/>
      <point x="889" y="-148" type="line"/>
      <point x="985" y="280" type="line" smooth="yes"/>
      <point x="994" y="316"/>
      <point x="995" y="367"/>
      <point x="960" y="367" type="curve" smooth="yes"/>
      <point x="936" y="367"/>
      <point x="925" y="350"/>
      <point x="925" y="333" type="curve" smooth="yes"/>
      <point x="925" y="315"/>
      <point x="934" y="303"/>
      <point x="955" y="289" type="curve" smooth="yes"/>
      <point x="1111" y="186" type="line" smooth="yes"/>
      <point x="1166" y="154"/>
      <point x="1172" y="124"/>
      <point x="1172" y="95" type="curve" smooth="yes"/>
      <point x="1172" y="33"/>
      <point x="1129" y="0"/>
      <point x="1070" y="0" type="curve" smooth="yes"/>
      <point x="691" y="0" type="line"/>
      <point x="691" y="64" type="line"/>
      <point x="720" y="95"/>
      <point x="745" y="137"/>
      <point x="745" y="189" type="curve" smooth="yes"/>
      <point x="745" y="271"/>
      <point x="692" y="322"/>
      <point x="619" y="322" type="curve" smooth="yes"/>
      <point x="519" y="322"/>
      <point x="466" y="198"/>
      <point x="466" y="119" type="curve" smooth="yes"/>
      <point x="466" y="81"/>
      <point x="478" y="53"/>
      <point x="509" y="53" type="curve" smooth="yes"/>
      <point x="571" y="53"/>
      <point x="605" y="194"/>
      <point x="605" y="337" type="curve" smooth="yes"/>
      <point x="605" y="489"/>
      <point x="542" y="666"/>
      <point x="380" y="666" type="curve" smooth="yes"/>
      <point x="202" y="666"/>
      <point x="109" y="436"/>
      <point x="127" y="222" type="curve" smooth="yes"/>
      <point x="133" y="137"/>
      <point x="157" y="52"/>
      <point x="212" y="52" type="curve" smooth="yes"/>
      <point x="263" y="52"/>
      <point x="273" y="122"/>
      <point x="273" y="182" type="curve" smooth="yes"/>
      <point x="273" y="255"/>
      <point x="245" y="318"/>
      <point x="197" y="318" type="curve" smooth="yes"/>
      <point x="149" y="318"/>
      <point x="125" y="261"/>
      <point x="134" y="172" type="curve"/>
      <point x="80" y="215" type="line"/>
      <point x="76" y="299"/>
      <point x="116" y="401"/>
      <point x="209" y="401" type="curve" smooth="yes"/>
      <point x="302" y="401"/>
      <point x="355" y="307"/>
      <point x="355" y="178" type="curve" smooth="yes"/>
      <point x="355" y="60"/>
      <point x="307" y="-29"/>
      <point x="210" y="-29" type="curve" smooth="yes"/>
      <point x="79" y="-29"/>
      <point x="42" y="158"/>
    </contour>
  </outline>
</glyph>
<glyph name="number-tamil" format="2">
	<advance width="1067"/>
	<unicode hex="0BFA"/>
	<outline>
		<contour>
			<point x="423" y="537" type="curve"/>
			<point x="352" y="537" type="line"/>
			<point x="316" y="627"/>
			<point x="361" y="755"/>
			<point x="505" y="755" type="curve" smooth="yes"/>
			<point x="672" y="755"/>
			<point x="843" y="615"/>
			<point x="843" y="373" type="curve" smooth="yes"/>
			<point x="843" y="286"/>
			<point x="815" y="204"/>
			<point x="719" y="204" type="curve" smooth="yes"/>
			<point x="637" y="204"/>
			<point x="590" y="274"/>
			<point x="590" y="376" type="curve" smooth="yes"/>
			<point x="590" y="488"/>
			<point x="675" y="574"/>
			<point x="781" y="574" type="curve" smooth="yes"/>
			<point x="895" y="574"/>
			<point x="1008" y="500"/>
			<point x="1010" y="319" type="curve" smooth="yes"/>
			<point x="1011" y="206"/>
			<point x="958" y="124"/>
			<point x="916" y="82" type="curve"/>
			<point x="1050" y="82" type="line"/>
			<point x="1050" y="0" type="line"/>
			<point x="798" y="0" type="line"/>
			<point x="797" y="68" type="line"/>
			<point x="856" y="117"/>
			<point x="926" y="196"/>
			<point x="926" y="312" type="curve" smooth="yes"/>
			<point x="926" y="440"/>
			<point x="863" y="489"/>
			<point x="781" y="489" type="curve" smooth="yes"/>
			<point x="705" y="489"/>
			<point x="668" y="429"/>
			<point x="668" y="367" type="curve" smooth="yes"/>
			<point x="668" y="313"/>
			<point x="686" y="281"/>
			<point x="719" y="281" type="curve" smooth="yes"/>
			<point x="753" y="281"/>
			<point x="768" y="311"/>
			<point x="768" y="359" type="curve" smooth="yes"/>
			<point x="768" y="552"/>
			<point x="654" y="676"/>
			<point x="511" y="674" type="curve" smooth="yes"/>
			<point x="436" y="673"/>
			<point x="389" y="621"/>
		</contour>
		<contour>
			<point x="143" y="0" type="line"/>
			<point x="55" y="0" type="line"/>
			<point x="55" y="560" type="line"/>
			<point x="449" y="560" type="line"/>
			<point x="449" y="478" type="line"/>
			<point x="344" y="478" type="line"/>
			<point x="344" y="0" type="line"/>
			<point x="255" y="0" type="line"/>
			<point x="255" y="478" type="line"/>
			<point x="143" y="478" type="line"/>
		</contour>
		<contour>
			<point x="399" y="0" type="curve"/>
			<point x="399" y="66" type="line"/>
			<point x="441" y="66"/>
			<point x="477" y="133"/>
			<point x="477" y="217" type="curve" smooth="yes"/>
			<point x="477" y="285"/>
			<point x="450" y="331"/>
			<point x="405" y="331" type="curve" smooth="yes"/>
			<point x="360" y="331"/>
			<point x="344" y="291"/>
			<point x="344" y="260" type="curve"/>
			<point x="299" y="282" type="line"/>
			<point x="299" y="355"/>
			<point x="351" y="408"/>
			<point x="426" y="408" type="curve" smooth="yes"/>
			<point x="503" y="408"/>
			<point x="558" y="330"/>
			<point x="558" y="231" type="curve" smooth="yes"/>
			<point x="558" y="114"/>
			<point x="508" y="0"/>
		</contour>
	</outline>
</glyph>
